Korean-Hangul.ufo
<glyph name="exclam" format="2">
  <advance width="256"/>
  <unicode hex="0021"/>
  <outline>
    <contour>
      <point x="176" y="707" type="line"/>
      <point x="169" y="199" type="line"/>
      <point x="87" y="199" type="line"/>
      <point x="80" y="707" type="line"/>
    </contour>
    <contour>
      <point x="128" y="-6" type="curve" smooth="yes"/>
      <point x="94" y="-6"/>
      <point x="64" y="23"/>
      <point x="65" y="58" type="curve" smooth="yes"/>
      <point x="64" y="92"/>
      <point x="94" y="120"/>
      <point x="128" y="120" type="curve" smooth="yes"/>
      <point x="162" y="120"/>
      <point x="190" y="92"/>
      <point x="190" y="58" type="curve" smooth="yes"/>
      <point x="190" y="23"/>
      <point x="162" y="-6"/>
    </contour>
  </outline>
</glyph>
<glyph name="quotedbl" format="2">
  <advance width="378"/>
  <unicode hex="0022"/>
  <outline>
    <contour>
      <point x="139" y="707" type="line"/>
      <point x="139" y="463" type="line"/>
      <point x="62" y="463" type="line"/>
      <point x="62" y="707" type="line"/>
    </contour>
    <contour>
      <point x="315" y="707" type="line"/>
      <point x="315" y="463" type="line"/>
      <point x="238" y="463" type="line"/>
      <point x="238" y="707" type="line"/>
    </contour>
  </outline>
</glyph>
<glyph name="numbersign" format="2">
  <advance width="599"/>
  <unicode hex="0023"/>
  <outline>
    <contour>
      <point x="330" y="0" type="line"/>
      <point x="362" y="195" type="line"/>
      <point x="185" y="195" type="line"/>
      <point x="152" y="0" type="line"/>
      <point x="81" y="0" type="line"/>
      <point x="113" y="195" type="line"/>
      <point x="9" y="195" type="line"/>
      <point x="21" y="266" type="line"/>
      <point x="125" y="266" type="line"/>
      <point x="154" y="441" type="line"/>
      <point x="51" y="441" type="line"/>
      <point x="62" y="512" type="line"/>
      <point x="165" y="512" type="line"/>
      <point x="197" y="707" type="line"/>
      <point x="269" y="707" type="line"/>
      <point x="236" y="512" type="line"/>
      <point x="414" y="512" type="line"/>
      <point x="446" y="707" type="line"/>
      <point x="518" y="707" type="line"/>
      <point x="485" y="512" type="line"/>
      <point x="591" y="512" type="line"/>
      <point x="579" y="441" type="line"/>
      <point x="475" y="441" type="line"/>
      <point x="445" y="266" type="line"/>
      <point x="549" y="266" type="line"/>
      <point x="537" y="195" type="line"/>
      <point x="434" y="195" type="line"/>
      <point x="401" y="0" type="line"/>
    </contour>
    <contour>
      <point x="196" y="266" type="line"/>
      <point x="374" y="266" type="line"/>
      <point x="403" y="441" type="line"/>
      <point x="226" y="441" type="line"/>
    </contour>
  </outline>
</glyph>
<glyph name="percent" format="2">
  <advance width="862"/>
  <unicode hex="0025"/>
  <outline>
    <contour>
      <point x="216" y="379" type="curve" smooth="yes"/>
      <point x="124" y="379"/>
      <point x="74" y="447"/>
      <point x="74" y="549" type="curve" smooth="yes"/>
      <point x="74" y="649"/>
      <point x="126" y="718"/>
      <point x="216" y="718" type="curve" smooth="yes"/>
      <point x="309" y="718"/>
      <point x="357" y="649"/>
      <point x="357" y="549" type="curve" smooth="yes"/>
      <point x="357" y="447"/>
      <point x="307" y="379"/>
    </contour>
    <contour>
      <point x="216" y="439" type="curve" smooth="yes"/>
      <point x="264" y="439"/>
      <point x="286" y="483"/>
      <point x="286" y="549" type="curve" smooth="yes"/>
      <point x="286" y="614"/>
      <point x="266" y="658"/>
      <point x="216" y="657" type="curve" smooth="yes"/>
      <point x="169" y="657"/>
      <point x="146" y="614"/>
      <point x="146" y="549" type="curve" smooth="yes"/>
      <point x="146" y="483"/>
      <point x="169" y="439"/>
    </contour>
    <contour>
      <point x="647" y="-10" type="curve" smooth="yes"/>
      <point x="555" y="-11"/>
      <point x="505" y="58"/>
      <point x="506" y="159" type="curve" smooth="yes"/>
      <point x="505" y="260"/>
      <point x="557" y="329"/>
      <point x="647" y="329" type="curve" smooth="yes"/>
      <point x="739" y="329"/>
      <point x="788" y="260"/>
      <point x="788" y="159" type="curve" smooth="yes"/>
      <point x="788" y="58"/>
      <point x="737" y="-11"/>
    </contour>
    <contour>
      <point x="647" y="51" type="curve" smooth="yes"/>
      <point x="694" y="51"/>
      <point x="717" y="94"/>
      <point x="717" y="159" type="curve" smooth="yes"/>
      <point x="717" y="225"/>
      <point x="696" y="270"/>
      <point x="647" y="269" type="curve" smooth="yes"/>
      <point x="600" y="268"/>
      <point x="576" y="225"/>
      <point x="576" y="159" type="curve" smooth="yes"/>
      <point x="576" y="94"/>
      <point x="599" y="51"/>
    </contour>
    <contour>
      <point x="144" y="0" type="line"/>
      <point x="630" y="707" type="line"/>
      <point x="709" y="707" type="line"/>
      <point x="223" y="0" type="line"/>
    </contour>
  </outline>
</glyph>
<glyph name="ampersand" format="2">
  <advance width="609"/>
  <unicode hex="0026"/>
  <outline>
    <contour>
      <point x="268" y="-10" type="curve" smooth="yes"/>
      <point x="129" y="-10"/>
      <point x="42" y="74"/>
      <point x="42" y="188" type="curve" smooth="yes"/>
      <point x="42" y="274"/>
      <point x="99" y="326"/>
      <point x="182" y="384" type="curve"/>
      <point x="134" y="442"/>
      <point x="100" y="491"/>
      <point x="100" y="553" type="curve" smooth="yes"/>
      <point x="100" y="649"/>
      <point x="167" y="714"/>
      <point x="271" y="714" type="curve" smooth="yes"/>
      <point x="377" y="714"/>
      <point x="443" y="645"/>
      <point x="443" y="565" type="curve" smooth="yes"/>
      <point x="443" y="498"/>
      <point x="408" y="451"/>
      <point x="350" y="408" type="curve" smooth="yes"/>
      <point x="298" y="369" type="line"/>
      <point x="450" y="185" type="line"/>
      <point x="468" y="220"/>
      <point x="479" y="263"/>
      <point x="479" y="311" type="curve"/>
      <point x="561" y="311" type="line"/>
      <point x="561" y="213"/>
      <point x="531" y="154"/>
      <point x="504" y="119" type="curve"/>
      <point x="602" y="0" type="line"/>
      <point x="501" y="0" type="line"/>
      <point x="451" y="60" type="line"/>
      <point x="405" y="14"/>
      <point x="333" y="-10"/>
    </contour>
    <contour>
      <point x="128" y="188" type="curve" smooth="yes"/>
      <point x="128" y="123"/>
      <point x="183" y="64"/>
      <point x="266" y="64" type="curve" smooth="yes"/>
      <point x="314" y="64"/>
      <point x="362" y="84"/>
      <point x="401" y="120" type="curve"/>
      <point x="233" y="321" type="line"/>
      <point x="209" y="303" type="line" smooth="yes"/>
      <point x="146" y="257"/>
      <point x="128" y="209"/>
    </contour>
    <contour>
      <point x="184" y="552" type="curve" smooth="yes"/>
      <point x="184" y="513"/>
      <point x="212" y="474"/>
      <point x="247" y="432" type="curve"/>
      <point x="294" y="466" type="line" smooth="yes"/>
      <point x="333" y="492"/>
      <point x="359" y="517"/>
      <point x="359" y="565" type="curve" smooth="yes"/>
      <point x="359" y="600"/>
      <point x="324" y="642"/>
      <point x="274" y="642" type="curve" smooth="yes"/>
      <point x="220" y="642"/>
      <point x="184" y="596"/>
    </contour>
  </outline>
</glyph>
<glyph name="quotesingle" format="2">
  <advance width="201"/>
  <unicode hex="0027"/>
  <outline>
    <contour>
      <point x="139" y="707" type="line"/>
      <point x="139" y="463" type="line"/>
      <point x="62" y="463" type="line"/>
      <point x="62" y="707" type="line"/>
    </contour>
  </outline>
</glyph>
<glyph name="parenright" format="2">
  <advance width="340"/>
  <unicode hex="0029"/>
  <outline>
    <contour>
      <point x="252" y="270" type="curve" smooth="yes"/>
      <point x="251" y="85"/>
      <point x="201" y="-68"/>
      <point x="111" y="-199" type="curve"/>
      <point x="37" y="-199" type="line"/>
      <point x="103" y="-102"/>
      <point x="165" y="96"/>
      <point x="165" y="270" type="curve" smooth="yes"/>
      <point x="165" y="444"/>
      <point x="103" y="640"/>
      <point x="37" y="737" type="curve"/>
      <point x="111" y="737" type="line"/>
      <point x="201" y="607"/>
      <point x="251" y="455"/>
    </contour>
  </outline>
</glyph>
<glyph name="comma" format="2">
  <advance width="257"/>
  <unicode hex="002C"/>
  <outline>
    <contour>
      <point x="178" y="65" type="line"/>
      <point x="102" y="-200" type="line"/>
      <point x="29" y="-200" type="line"/>
      <point x="83" y="65" type="line"/>
    </contour>
  </outline>
</glyph>
<glyph name="period" format="2">
  <advance width="253"/>
  <unicode hex="002E"/>
  <outline>
    <contour>
      <point x="127" y="-6" type="curve" smooth="yes"/>
      <point x="93" y="-6"/>
      <point x="63" y="23"/>
      <point x="64" y="58" type="curve" smooth="yes"/>
      <point x="63" y="92"/>
      <point x="93" y="120"/>
      <point x="127" y="120" type="curve" smooth="yes"/>
      <point x="161" y="120"/>
      <point x="189" y="92"/>
      <point x="189" y="58" type="curve" smooth="yes"/>
      <point x="189" y="23"/>
      <point x="161" y="-6"/>
    </contour>
  </outline>
</glyph>
<glyph name="slash" format="2">
  <advance width="333"/>
  <unicode hex="002F"/>
  <outline>
    <contour>
      <point x="319" y="740" type="line"/>
      <point x="91" y="-106" type="line"/>
      <point x="15" y="-106" type="line"/>
      <point x="242" y="740" type="line"/>
    </contour>
  </outline>
</glyph>
<glyph name="two" format="2">
  <advance width="586"/>
  <unicode hex="0032"/>
  <outline>
    <contour>
      <point x="66" y="0" type="line"/>
      <point x="65" y="64" type="line"/>
      <point x="307" y="318" type="line" smooth="yes"/>
      <point x="391" y="407"/>
      <point x="431" y="456"/>
      <point x="431" y="521" type="curve" smooth="yes"/>
      <point x="431" y="593"/>
      <point x="369" y="641"/>
      <point x="290" y="641" type="curve" smooth="yes"/>
      <point x="206" y="641"/>
      <point x="152" y="587"/>
      <point x="152" y="508" type="curve"/>
      <point x="69" y="508" type="line"/>
      <point x="68" y="633"/>
      <point x="165" y="717"/>
      <point x="293" y="717" type="curve" smooth="yes"/>
      <point x="421" y="717"/>
      <point x="513" y="631"/>
      <point x="513" y="521" type="curve" smooth="yes"/>
      <point x="513" y="442"/>
      <point x="476" y="380"/>
      <point x="351" y="251" type="curve" smooth="yes"/>
      <point x="188" y="84" type="line"/>
      <point x="188" y="78" type="line"/>
      <point x="525" y="78" type="line"/>
      <point x="525" y="0" type="line"/>
    </contour>
  </outline>
</glyph>
<glyph name="five" format="2">
  <advance width="596"/>
  <unicode hex="0035"/>
  <outline>
    <contour>
      <point x="297" y="-10" type="curve" smooth="yes"/>
      <point x="169" y="-10"/>
      <point x="72" y="70"/>
      <point x="67" y="178" type="curve"/>
      <point x="152" y="178" type="line"/>
      <point x="159" y="115"/>
      <point x="221" y="67"/>
      <point x="297" y="67" type="curve" smooth="yes"/>
      <point x="389" y="67"/>
      <point x="455" y="135"/>
      <point x="455" y="224" type="curve" smooth="yes"/>
      <point x="455" y="316"/>
      <point x="386" y="383"/>
      <point x="291" y="384" type="curve" smooth="yes"/>
      <point x="231" y="385"/>
      <point x="185" y="366"/>
      <point x="159" y="320" type="curve"/>
      <point x="74" y="320" type="line"/>
      <point x="124" y="707" type="line"/>
      <point x="507" y="707" type="line"/>
      <point x="507" y="629" type="line"/>
      <point x="197" y="629" type="line"/>
      <point x="171" y="422" type="line"/>
      <point x="178" y="422" type="line"/>
      <point x="209" y="446"/>
      <point x="257" y="463"/>
      <point x="307" y="463" type="curve" smooth="yes"/>
      <point x="442" y="463"/>
      <point x="541" y="364"/>
      <point x="541" y="226" type="curve" smooth="yes"/>
      <point x="541" y="89"/>
      <point x="438" y="-10"/>
    </contour>
  </outline>
</glyph>
<glyph name="seven" format="2">
  <advance width="551"/>
  <unicode hex="0037"/>
  <outline>
    <contour>
      <point x="89" y="0" type="line"/>
      <point x="413" y="624" type="line"/>
      <point x="413" y="629" type="line"/>
      <point x="39" y="629" type="line"/>
      <point x="39" y="707" type="line"/>
      <point x="504" y="707" type="line"/>
      <point x="504" y="625" type="line"/>
      <point x="181" y="0" type="line"/>
    </contour>
  </outline>
</glyph>
<glyph name="eight" format="2">
  <advance width="606"/>
  <unicode hex="0038"/>
  <outline>
    <contour>
      <point x="303" y="-10" type="curve" smooth="yes"/>
      <point x="155" y="-10"/>
      <point x="51" y="73"/>
      <point x="52" y="188" type="curve" smooth="yes"/>
      <point x="51" y="280"/>
      <point x="114" y="354"/>
      <point x="195" y="367" type="curve"/>
      <point x="195" y="371" type="line"/>
      <point x="125" y="388"/>
      <point x="79" y="452"/>
      <point x="79" y="529" type="curve" smooth="yes"/>
      <point x="79" y="637"/>
      <point x="174" y="717"/>
      <point x="303" y="717" type="curve" smooth="yes"/>
      <point x="432" y="717"/>
      <point x="526" y="637"/>
      <point x="527" y="529" type="curve" smooth="yes"/>
      <point x="526" y="452"/>
      <point x="479" y="388"/>
      <point x="410" y="371" type="curve"/>
      <point x="410" y="367" type="line"/>
      <point x="490" y="354"/>
      <point x="554" y="280"/>
      <point x="555" y="188" type="curve" smooth="yes"/>
      <point x="554" y="73"/>
      <point x="450" y="-10"/>
    </contour>
    <contour>
      <point x="303" y="67" type="curve" smooth="yes"/>
      <point x="405" y="67"/>
      <point x="467" y="118"/>
      <point x="467" y="192" type="curve" smooth="yes"/>
      <point x="467" y="270"/>
      <point x="398" y="328"/>
      <point x="303" y="328" type="curve" smooth="yes"/>
      <point x="208" y="328"/>
      <point x="138" y="270"/>
      <point x="140" y="192" type="curve"/>
      <point x="138" y="118"/>
      <point x="201" y="67"/>
    </contour>
    <contour>
      <point x="303" y="402" type="curve" smooth="yes"/>
      <point x="383" y="402"/>
      <point x="441" y="451"/>
      <point x="441" y="522" type="curve" smooth="yes"/>
      <point x="441" y="592"/>
      <point x="386" y="641"/>
      <point x="303" y="641" type="curve" smooth="yes"/>
      <point x="219" y="641"/>
      <point x="164" y="592"/>
      <point x="164" y="522" type="curve" smooth="yes"/>
      <point x="164" y="451"/>
      <point x="222" y="402"/>
    </contour>
  </outline>
</glyph>
<glyph name="nine" format="2">
  <advance width="613"/>
  <unicode hex="0039"/>
  <outline>
    <contour>
      <point x="302" y="717" type="curve" smooth="yes"/>
      <point x="424" y="716"/>
      <point x="559" y="643"/>
      <point x="559" y="382" type="curve" smooth="yes"/>
      <point x="559" y="131"/>
      <point x="456" y="-10"/>
      <point x="290" y="-10" type="curve" smooth="yes"/>
      <point x="166" y="-10"/>
      <point x="79" y="67"/>
      <point x="61" y="179" type="curve"/>
      <point x="147" y="179" type="line"/>
      <point x="163" y="116"/>
      <point x="211" y="68"/>
      <point x="290" y="68" type="curve" smooth="yes"/>
      <point x="405" y="68"/>
      <point x="476" y="168"/>
      <point x="477" y="340" type="curve"/>
      <point x="467" y="340" type="line"/>
      <point x="426" y="281"/>
      <point x="361" y="246"/>
      <point x="286" y="246" type="curve" smooth="yes"/>
      <point x="159" y="246"/>
      <point x="55" y="342"/>
      <point x="55" y="479" type="curve" smooth="yes"/>
      <point x="55" y="611"/>
      <point x="152" y="718"/>
    </contour>
    <contour>
      <point x="302" y="640" type="curve" smooth="yes"/>
      <point x="209" y="640"/>
      <point x="140" y="567"/>
      <point x="141" y="480" type="curve" smooth="yes"/>
      <point x="141" y="392"/>
      <point x="206" y="323"/>
      <point x="299" y="323" type="curve" smooth="yes"/>
      <point x="391" y="323"/>
      <point x="463" y="399"/>
      <point x="463" y="482" type="curve" smooth="yes"/>
      <point x="463" y="563"/>
      <point x="396" y="640"/>
    </contour>
  </outline>
</glyph>
<glyph name="colon" format="2">
  <advance width="253"/>
  <unicode hex="003A"/>
  <outline>
    <contour>
      <point x="127" y="-6" type="curve" smooth="yes"/>
      <point x="93" y="-6"/>
      <point x="63" y="23"/>
      <point x="64" y="58" type="curve" smooth="yes"/>
      <point x="63" y="92"/>
      <point x="93" y="120"/>
      <point x="127" y="120" type="curve" smooth="yes"/>
      <point x="161" y="120"/>
      <point x="189" y="92"/>
      <point x="189" y="58" type="curve" smooth="yes"/>
      <point x="189" y="23"/>
      <point x="161" y="-6"/>
    </contour>
    <contour>
      <point x="127" y="387" type="curve" smooth="yes"/>
      <point x="93" y="387"/>
      <point x="63" y="415"/>
      <point x="64" y="450" type="curve" smooth="yes"/>
      <point x="63" y="484"/>
      <point x="93" y="513"/>
      <point x="127" y="513" type="curve" smooth="yes"/>
      <point x="161" y="513"/>
      <point x="189" y="484"/>
      <point x="189" y="450" type="curve" smooth="yes"/>
      <point x="189" y="415"/>
      <point x="161" y="387"/>
    </contour>
  </outline>
</glyph>
<glyph name="semicolon" format="2">
  <advance width="253"/>
  <unicode hex="003B"/>
  <outline>
    <contour>
      <point x="178" y="65" type="line"/>
      <point x="102" y="-200" type="line"/>
      <point x="29" y="-200" type="line"/>
      <point x="83" y="65" type="line"/>
    </contour>
    <contour>
      <point x="127" y="388" type="curve" smooth="yes"/>
      <point x="93" y="388"/>
      <point x="63" y="416"/>
      <point x="64" y="451" type="curve" smooth="yes"/>
      <point x="63" y="485"/>
      <point x="93" y="514"/>
      <point x="127" y="514" type="curve" smooth="yes"/>
      <point x="161" y="514"/>
      <point x="189" y="485"/>
      <point x="189" y="451" type="curve" smooth="yes"/>
      <point x="189" y="416"/>
      <point x="161" y="388"/>
    </contour>
  </outline>
</glyph>
<glyph name="less" format="2">
  <advance width="626"/>
  <unicode hex="003C"/>
  <outline>
    <contour>
      <point x="91" y="247" type="line"/>
      <point x="91" y="306" type="line"/>
      <point x="537" y="532" type="line"/>
      <point x="537" y="441" type="line"/>
      <point x="199" y="279" type="line"/>
      <point x="199" y="273" type="line"/>
      <point x="537" y="112" type="line"/>
      <point x="537" y="21" type="line"/>
    </contour>
  </outline>
</glyph>
<glyph name="B" format="2">
  <advance width="619"/>
  <unicode hex="0042"/>
  <outline>
    <contour>
      <point x="78" y="0" type="line"/>
      <point x="78" y="707" type="line"/>
      <point x="326" y="707" type="line" smooth="yes"/>
      <point x="474" y="707"/>
      <point x="544" y="624"/>
      <point x="544" y="520" type="curve" smooth="yes"/>
      <point x="544" y="429"/>
      <point x="491" y="388"/>
      <point x="429" y="371" type="curve"/>
      <point x="429" y="364" type="line"/>
      <point x="494" y="360"/>
      <point x="572" y="300"/>
      <point x="572" y="188" type="curve" smooth="yes"/>
      <point x="572" y="82"/>
      <point x="502" y="0"/>
      <point x="335" y="0" type="curve" smooth="yes"/>
    </contour>
    <contour>
      <point x="334" y="78" type="line" smooth="yes"/>
      <point x="444" y="78"/>
      <point x="487" y="126"/>
      <point x="487" y="188" type="curve" smooth="yes"/>
      <point x="487" y="260"/>
      <point x="430" y="321"/>
      <point x="339" y="321" type="curve" smooth="yes"/>
      <point x="166" y="321" type="line"/>
      <point x="166" y="78" type="line"/>
    </contour>
    <contour>
      <point x="323" y="397" type="line" smooth="yes"/>
      <point x="399" y="397"/>
      <point x="460" y="445"/>
      <point x="460" y="519" type="curve" smooth="yes"/>
      <point x="460" y="581"/>
      <point x="419" y="629"/>
      <point x="326" y="629" type="curve" smooth="yes"/>
      <point x="166" y="629" type="line"/>
      <point x="166" y="397" type="line"/>
    </contour>
  </outline>
</glyph>
<glyph name="G" format="2">
  <advance width="708"/>
  <unicode hex="0047"/>
  <outline>
    <contour>
      <point x="561" y="486" type="line"/>
      <point x="531" y="577"/>
      <point x="461" y="635"/>
      <point x="360" y="635" type="curve" smooth="yes"/>
      <point x="235" y="635"/>
      <point x="136" y="537"/>
      <point x="136" y="354" type="curve" smooth="yes"/>
      <point x="136" y="171"/>
      <point x="235" y="72"/>
      <point x="366" y="72" type="curve" smooth="yes"/>
      <point x="486" y="72"/>
      <point x="567" y="152"/>
      <point x="569" y="277" type="curve"/>
      <point x="385" y="277" type="line"/>
      <point x="385" y="354" type="line"/>
      <point x="655" y="354" type="line"/>
      <point x="655" y="278" type="line" smooth="yes"/>
      <point x="655" y="102"/>
      <point x="534" y="-10"/>
      <point x="366" y="-10" type="curve" smooth="yes"/>
      <point x="178" y="-10"/>
      <point x="51" y="130"/>
      <point x="51" y="354" type="curve" smooth="yes"/>
      <point x="51" y="578"/>
      <point x="178" y="717"/>
      <point x="360" y="717" type="curve" smooth="yes"/>
      <point x="509" y="717"/>
      <point x="625" y="623"/>
      <point x="651" y="486" type="curve"/>
    </contour>
  </outline>
</glyph>
<glyph name="J" format="2">
  <advance width="515"/>
  <unicode hex="004A"/>
  <outline>
    <contour>
      <point x="349" y="707" type="line"/>
      <point x="438" y="707" type="line"/>
      <point x="438" y="202" type="line" smooth="yes"/>
      <point x="438" y="66"/>
      <point x="357" y="-10"/>
      <point x="234" y="-10" type="curve" smooth="yes"/>
      <point x="117" y="-10"/>
      <point x="32" y="58"/>
      <point x="32" y="167" type="curve"/>
      <point x="119" y="167" type="line"/>
      <point x="119" y="107"/>
      <point x="168" y="68"/>
      <point x="234" y="68" type="curve" smooth="yes"/>
      <point x="307" y="68"/>
      <point x="349" y="114"/>
      <point x="349" y="202" type="curve" smooth="yes"/>
    </contour>
  </outline>
</glyph>
<glyph name="K" format="2">
  <advance width="621"/>
  <unicode hex="004B"/>
  <outline>
    <contour>
      <point x="78" y="0" type="line"/>
      <point x="78" y="707" type="line"/>
      <point x="166" y="707" type="line"/>
      <point x="166" y="357" type="line"/>
      <point x="175" y="357" type="line"/>
      <point x="489" y="707" type="line"/>
      <point x="604" y="707" type="line"/>
      <point x="309" y="388" type="line"/>
      <point x="604" y="0" type="line"/>
      <point x="497" y="0" type="line"/>
      <point x="254" y="327" type="line"/>
      <point x="166" y="228" type="line"/>
      <point x="166" y="0" type="line"/>
    </contour>
  </outline>
</glyph>
<glyph name="M" format="2">
  <advance width="852"/>
  <unicode hex="004D"/>
  <outline>
    <contour>
      <point x="78" y="707" type="line"/>
      <point x="184" y="707" type="line"/>
      <point x="422" y="125" type="line"/>
      <point x="431" y="125" type="line"/>
      <point x="669" y="707" type="line"/>
      <point x="774" y="707" type="line"/>
      <point x="774" y="0" type="line"/>
      <point x="691" y="0" type="line"/>
      <point x="691" y="534" type="line"/>
      <point x="685" y="534" type="line"/>
      <point x="465" y="0" type="line"/>
      <point x="387" y="0" type="line"/>
      <point x="167" y="534" type="line"/>
      <point x="161" y="534" type="line"/>
      <point x="161" y="0" type="line"/>
      <point x="78" y="0" type="line"/>
    </contour>
  </outline>
</glyph>
<glyph name="Q" format="2">
  <advance width="726"/>
  <unicode hex="0051"/>
  <outline>
    <contour>
      <point x="334" y="222" type="line"/>
      <point x="430" y="222" type="line"/>
      <point x="505" y="124" type="line"/>
      <point x="558" y="170"/>
      <point x="591" y="248"/>
      <point x="591" y="354" type="curve" smooth="yes"/>
      <point x="591" y="537"/>
      <point x="491" y="635"/>
      <point x="363" y="635" type="curve" smooth="yes"/>
      <point x="235" y="635"/>
      <point x="136" y="537"/>
      <point x="136" y="354" type="curve" smooth="yes"/>
      <point x="136" y="171"/>
      <point x="235" y="72"/>
      <point x="363" y="72" type="curve" smooth="yes"/>
      <point x="389" y="72"/>
      <point x="415" y="77"/>
      <point x="438" y="85" type="curve"/>
    </contour>
    <contour>
      <point x="676" y="354" type="curve" smooth="yes"/>
      <point x="676" y="222"/>
      <point x="630" y="119"/>
      <point x="556" y="57" type="curve"/>
      <point x="647" y="-66" type="line"/>
      <point x="552" y="-66" type="line"/>
      <point x="490" y="17" type="line"/>
      <point x="451" y="-1"/>
      <point x="409" y="-10"/>
      <point x="363" y="-10" type="curve" smooth="yes"/>
      <point x="181" y="-10"/>
      <point x="51" y="130"/>
      <point x="51" y="354" type="curve" smooth="yes"/>
      <point x="51" y="578"/>
      <point x="181" y="717"/>
      <point x="363" y="717" type="curve" smooth="yes"/>
      <point x="544" y="717"/>
      <point x="676" y="578"/>
    </contour>
  </outline>
</glyph>
<glyph name="R" format="2">
  <advance width="608"/>
  <unicode hex="0052"/>
  <outline>
    <contour>
      <point x="78" y="0" type="line"/>
      <point x="78" y="707" type="line"/>
      <point x="318" y="707" type="line" smooth="yes"/>
      <point x="484" y="707"/>
      <point x="560" y="615"/>
      <point x="560" y="489" type="curve" smooth="yes"/>
      <point x="560" y="396"/>
      <point x="518" y="322"/>
      <point x="428" y="291" type="curve"/>
      <point x="587" y="0" type="line"/>
      <point x="484" y="0" type="line"/>
      <point x="337" y="275" type="line"/>
      <point x="319" y="274" type="line"/>
      <point x="166" y="274" type="line"/>
      <point x="166" y="0" type="line"/>
    </contour>
    <contour>
      <point x="166" y="354" type="line"/>
      <point x="315" y="354" type="line" smooth="yes"/>
      <point x="427" y="354"/>
      <point x="473" y="405"/>
      <point x="473" y="489" type="curve" smooth="yes"/>
      <point x="473" y="574"/>
      <point x="427" y="629"/>
      <point x="314" y="629" type="curve" smooth="yes"/>
      <point x="166" y="629" type="line"/>
    </contour>
  </outline>
</glyph>
<glyph name="U" format="2">
  <advance width="707"/>
  <unicode hex="0055"/>
  <outline>
    <contour>
      <point x="541" y="707" type="line"/>
      <point x="629" y="707" type="line"/>
      <point x="629" y="239" type="line" smooth="yes"/>
      <point x="629" y="93"/>
      <point x="521" y="-13"/>
      <point x="354" y="-13" type="curve" smooth="yes"/>
      <point x="187" y="-13"/>
      <point x="78" y="93"/>
      <point x="78" y="239" type="curve" smooth="yes"/>
      <point x="78" y="707" type="line"/>
      <point x="166" y="707" type="line"/>
      <point x="166" y="246" type="line" smooth="yes"/>
      <point x="166" y="143"/>
      <point x="238" y="69"/>
      <point x="354" y="69" type="curve" smooth="yes"/>
      <point x="471" y="69"/>
      <point x="541" y="143"/>
      <point x="541" y="246" type="curve" smooth="yes"/>
    </contour>
  </outline>
</glyph>
<glyph name="Y" format="2">
  <advance width="633"/>
  <unicode hex="0059"/>
  <outline>
    <contour>
      <point x="18" y="707" type="line"/>
      <point x="118" y="707" type="line"/>
      <point x="312" y="379" type="line"/>
      <point x="321" y="379" type="line"/>
      <point x="516" y="707" type="line"/>
      <point x="617" y="707" type="line"/>
      <point x="361" y="290" type="line"/>
      <point x="361" y="0" type="line"/>
      <point x="272" y="0" type="line"/>
      <point x="272" y="290" type="line"/>
    </contour>
  </outline>
</glyph>
<glyph name="backslash" format="2">
  <advance width="333"/>
  <unicode hex="005C"/>
  <outline>
    <contour>
      <point x="242" y="-106" type="line"/>
      <point x="15" y="740" type="line"/>
      <point x="91" y="740" type="line"/>
      <point x="319" y="-106" type="line"/>
    </contour>
  </outline>
</glyph>
<glyph name="bracketright" format="2">
  <advance width="340"/>
  <unicode hex="005D"/>
  <outline>
    <contour>
      <point x="233" y="-199" type="line"/>
      <point x="26" y="-199" type="line"/>
      <point x="26" y="-129" type="line"/>
      <point x="154" y="-129" type="line"/>
      <point x="154" y="668" type="line"/>
      <point x="26" y="668" type="line"/>
      <point x="26" y="737" type="line"/>
      <point x="233" y="737" type="line"/>
    </contour>
  </outline>
</glyph>
<glyph name="asciicircum" format="2">
  <advance width="442"/>
  <unicode hex="005E"/>
  <outline>
    <contour>
      <point x="31" y="387" type="line"/>
      <point x="174" y="686" type="line"/>
      <point x="268" y="686" type="line"/>
      <point x="411" y="387" type="line"/>
      <point x="328" y="387" type="line"/>
      <point x="224" y="611" type="line"/>
      <point x="220" y="611" type="line"/>
      <point x="114" y="387" type="line"/>
    </contour>
  </outline>
</glyph>
<glyph name="grave" format="2">
  <advance width="468"/>
  <unicode hex="0060"/>
  <outline>
    <contour>
      <point x="252" y="603" type="line"/>
      <point x="145" y="763" type="line"/>
      <point x="242" y="763" type="line"/>
      <point x="325" y="603" type="line"/>
    </contour>
  </outline>
</glyph>
<glyph name="b" format="2">
  <advance width="590"/>
  <unicode hex="0062"/>
  <outline>
    <contour>
      <point x="78" y="0" type="line"/>
      <point x="78" y="707" type="line"/>
      <point x="162" y="707" type="line"/>
      <point x="162" y="446" type="line"/>
      <point x="169" y="446" type="line"/>
      <point x="188" y="474"/>
      <point x="218" y="537"/>
      <point x="322" y="537" type="curve" smooth="yes"/>
      <point x="455" y="537"/>
      <point x="549" y="432"/>
      <point x="549" y="264" type="curve" smooth="yes"/>
      <point x="549" y="96"/>
      <point x="455" y="-11"/>
      <point x="323" y="-11" type="curve" smooth="yes"/>
      <point x="221" y="-11"/>
      <point x="188" y="52"/>
      <point x="169" y="81" type="curve"/>
      <point x="159" y="81" type="line"/>
      <point x="159" y="0" type="line"/>
    </contour>
    <contour>
      <point x="160" y="266" type="curve" smooth="yes"/>
      <point x="160" y="147"/>
      <point x="214" y="64"/>
      <point x="311" y="64" type="curve" smooth="yes"/>
      <point x="412" y="64"/>
      <point x="464" y="153"/>
      <point x="464" y="266" type="curve" smooth="yes"/>
      <point x="464" y="376"/>
      <point x="414" y="462"/>
      <point x="311" y="462" type="curve" smooth="yes"/>
      <point x="213" y="462"/>
      <point x="160" y="383"/>
    </contour>
  </outline>
</glyph>
<glyph name="d" format="2">
  <advance width="590"/>
  <unicode hex="0064"/>
  <outline>
    <contour>
      <point x="268" y="-11" type="curve" smooth="yes"/>
      <point x="136" y="-11"/>
      <point x="42" y="96"/>
      <point x="42" y="264" type="curve" smooth="yes"/>
      <point x="42" y="432"/>
      <point x="136" y="537"/>
      <point x="269" y="537" type="curve" smooth="yes"/>
      <point x="372" y="537"/>
      <point x="404" y="474"/>
      <point x="422" y="446" type="curve"/>
      <point x="428" y="446" type="line"/>
      <point x="428" y="707" type="line"/>
      <point x="513" y="707" type="line"/>
      <point x="513" y="0" type="line"/>
      <point x="431" y="0" type="line"/>
      <point x="431" y="81" type="line"/>
      <point x="422" y="81" type="line"/>
      <point x="403" y="52"/>
      <point x="370" y="-11"/>
    </contour>
    <contour>
      <point x="279" y="64" type="curve" smooth="yes"/>
      <point x="376" y="64"/>
      <point x="431" y="147"/>
      <point x="431" y="266" type="curve" smooth="yes"/>
      <point x="431" y="383"/>
      <point x="378" y="462"/>
      <point x="279" y="462" type="curve" smooth="yes"/>
      <point x="177" y="462"/>
      <point x="127" y="376"/>
      <point x="127" y="266" type="curve" smooth="yes"/>
      <point x="127" y="153"/>
      <point x="178" y="64"/>
    </contour>
  </outline>
</glyph>
<glyph name="g" format="2">
  <advance width="579"/>
  <unicode hex="0067"/>
  <outline>
    <contour>
      <point x="282" y="-210" type="curve" smooth="yes"/>
      <point x="154" y="-210"/>
      <point x="68" y="-155"/>
      <point x="58" y="-56" type="curve"/>
      <point x="146" y="-56" type="line"/>
      <point x="158" y="-110"/>
      <point x="207" y="-137"/>
      <point x="282" y="-137" type="curve" smooth="yes"/>
      <point x="373" y="-137"/>
      <point x="429" y="-98"/>
      <point x="429" y="-10" type="curve" smooth="yes"/>
      <point x="429" y="98" type="line"/>
      <point x="422" y="98" type="line"/>
      <point x="404" y="69"/>
      <point x="371" y="8"/>
      <point x="268" y="8" type="curve" smooth="yes"/>
      <point x="139" y="8"/>
      <point x="42" y="105"/>
      <point x="42" y="272" type="curve" smooth="yes"/>
      <point x="42" y="435"/>
      <point x="136" y="537"/>
      <point x="269" y="537" type="curve" smooth="yes"/>
      <point x="372" y="537"/>
      <point x="404" y="474"/>
      <point x="424" y="446" type="curve"/>
      <point x="431" y="446" type="line"/>
      <point x="431" y="530" type="line"/>
      <point x="513" y="530" type="line"/>
      <point x="513" y="-15" type="line" smooth="yes"/>
      <point x="513" y="-152"/>
      <point x="411" y="-210"/>
    </contour>
    <contour>
      <point x="279" y="83" type="curve" smooth="yes"/>
      <point x="376" y="83"/>
      <point x="431" y="153"/>
      <point x="431" y="270" type="curve" smooth="yes"/>
      <point x="431" y="383"/>
      <point x="378" y="462"/>
      <point x="279" y="462" type="curve" smooth="yes"/>
      <point x="177" y="462"/>
      <point x="127" y="376"/>
      <point x="127" y="270" type="curve" smooth="yes"/>
      <point x="127" y="160"/>
      <point x="178" y="83"/>
    </contour>
  </outline>
</glyph>
<glyph name="j" format="2">
  <advance width="217"/>
  <unicode hex="006A"/>
  <outline>
    <contour>
      <point x="67" y="530" type="line"/>
      <point x="151" y="530" type="line"/>
      <point x="151" y="-38" type="line" smooth="yes"/>
      <point x="151" y="-138"/>
      <point x="101" y="-199"/>
      <point x="-3" y="-199" type="curve" smooth="yes"/>
      <point x="-21" y="-199" type="line"/>
      <point x="-21" y="-121" type="line"/>
      <point x="-4" y="-121" type="line" smooth="yes"/>
      <point x="45" y="-121"/>
      <point x="67" y="-91"/>
      <point x="67" y="-38" type="curve" smooth="yes"/>
    </contour>
    <contour>
      <point x="108" y="618" type="curve" smooth="yes"/>
      <point x="76" y="618"/>
      <point x="50" y="643"/>
      <point x="50" y="674" type="curve" smooth="yes"/>
      <point x="50" y="705"/>
      <point x="76" y="729"/>
      <point x="108" y="729" type="curve" smooth="yes"/>
      <point x="140" y="729"/>
      <point x="168" y="705"/>
      <point x="168" y="674" type="curve" smooth="yes"/>
      <point x="168" y="643"/>
      <point x="140" y="618"/>
    </contour>
  </outline>
</glyph>
<glyph name="k" format="2">
  <advance width="516"/>
  <unicode hex="006B"/>
  <outline>
    <contour>
      <point x="67" y="0" type="line"/>
      <point x="67" y="707" type="line"/>
      <point x="151" y="707" type="line"/>
      <point x="151" y="296" type="line"/>
      <point x="161" y="296" type="line"/>
      <point x="391" y="530" type="line"/>
      <point x="494" y="530" type="line"/>
      <point x="271" y="304" type="line"/>
      <point x="511" y="0" type="line"/>
      <point x="404" y="0" type="line"/>
      <point x="208" y="250" type="line"/>
      <point x="151" y="198" type="line"/>
      <point x="151" y="0" type="line"/>
    </contour>
  </outline>
</glyph>
<glyph name="l" format="2">
  <advance width="217"/>
  <unicode hex="006C"/>
  <outline>
    <contour>
      <point x="151" y="707" type="line"/>
      <point x="151" y="0" type="line"/>
      <point x="67" y="0" type="line"/>
      <point x="67" y="707" type="line"/>
    </contour>
  </outline>
</glyph>
<glyph name="m" format="2">
  <advance width="833"/>
  <unicode hex="006D"/>
  <outline>
    <contour>
      <point x="67" y="0" type="line"/>
      <point x="67" y="530" type="line"/>
      <point x="148" y="530" type="line"/>
      <point x="148" y="447" type="line"/>
      <point x="155" y="447" type="line"/>
      <point x="177" y="504"/>
      <point x="229" y="537"/>
      <point x="298" y="537" type="curve" smooth="yes"/>
      <point x="367" y="537"/>
      <point x="414" y="504"/>
      <point x="439" y="447" type="curve"/>
      <point x="445" y="447" type="line"/>
      <point x="472" y="502"/>
      <point x="528" y="537"/>
      <point x="604" y="537" type="curve" smooth="yes"/>
      <point x="699" y="537"/>
      <point x="767" y="479"/>
      <point x="767" y="354" type="curve" smooth="yes"/>
      <point x="767" y="0" type="line"/>
      <point x="683" y="0" type="line"/>
      <point x="683" y="354" type="line" smooth="yes"/>
      <point x="683" y="432"/>
      <point x="633" y="462"/>
      <point x="575" y="462" type="curve" smooth="yes"/>
      <point x="501" y="462"/>
      <point x="459" y="412"/>
      <point x="459" y="345" type="curve" smooth="yes"/>
      <point x="459" y="0" type="line"/>
      <point x="374" y="0" type="line"/>
      <point x="374" y="362" type="line" smooth="yes"/>
      <point x="374" y="422"/>
      <point x="332" y="462"/>
      <point x="271" y="462" type="curve" smooth="yes"/>
      <point x="208" y="462"/>
      <point x="151" y="408"/>
      <point x="151" y="331" type="curve" smooth="yes"/>
      <point x="151" y="0" type="line"/>
    </contour>
  </outline>
</glyph>
<glyph name="n" format="2">
  <advance width="556"/>
  <unicode hex="006E"/>
  <outline>
    <contour>
      <point x="151" y="318" type="curve" smooth="yes"/>
      <point x="151" y="0" type="line"/>
      <point x="67" y="0" type="line"/>
      <point x="67" y="530" type="line"/>
      <point x="148" y="530" type="line"/>
      <point x="148" y="447" type="line"/>
      <point x="155" y="447" type="line"/>
      <point x="180" y="501"/>
      <point x="230" y="537"/>
      <point x="311" y="537" type="curve" smooth="yes"/>
      <point x="418" y="537"/>
      <point x="489" y="472"/>
      <point x="489" y="337" type="curve" smooth="yes"/>
      <point x="489" y="0" type="line"/>
      <point x="405" y="0" type="line"/>
      <point x="405" y="331" type="line" smooth="yes"/>
      <point x="405" y="413"/>
      <point x="360" y="462"/>
      <point x="285" y="462" type="curve" smooth="yes"/>
      <point x="208" y="462"/>
      <point x="151" y="410"/>
    </contour>
  </outline>
</glyph>
<glyph name="t" format="2">
  <advance width="339"/>
  <unicode hex="0074"/>
  <outline>
    <contour>
      <point x="299" y="530" type="line"/>
      <point x="299" y="460" type="line"/>
      <point x="188" y="460" type="line"/>
      <point x="188" y="152" type="line" smooth="yes"/>
      <point x="188" y="84"/>
      <point x="221" y="73"/>
      <point x="257" y="73" type="curve" smooth="yes"/>
      <point x="273" y="73"/>
      <point x="294" y="74"/>
      <point x="307" y="75" type="curve"/>
      <point x="307" y="-3" type="line"/>
      <point x="294" y="-5"/>
      <point x="272" y="-7"/>
      <point x="248" y="-7" type="curve" smooth="yes"/>
      <point x="178" y="-7"/>
      <point x="103" y="37"/>
      <point x="103" y="131" type="curve" smooth="yes"/>
      <point x="103" y="460" type="line"/>
      <point x="22" y="460" type="line"/>
      <point x="22" y="530" type="line"/>
      <point x="103" y="530" type="line"/>
      <point x="103" y="657" type="line"/>
      <point x="188" y="657" type="line"/>
      <point x="188" y="530" type="line"/>
    </contour>
  </outline>
</glyph>
<glyph name="v" format="2">
  <advance width="529"/>
  <unicode hex="0076"/>
  <outline>
    <contour>
      <point x="504" y="530" type="line"/>
      <point x="308" y="0" type="line"/>
      <point x="221" y="0" type="line"/>
      <point x="25" y="530" type="line"/>
      <point x="117" y="530" type="line"/>
      <point x="262" y="109" type="line"/>
      <point x="268" y="109" type="line"/>
      <point x="412" y="530" type="line"/>
    </contour>
  </outline>
</glyph>
<glyph name="w" format="2">
  <advance width="777"/>
  <unicode hex="0077"/>
  <outline>
    <contour>
      <point x="187" y="0" type="line"/>
      <point x="25" y="530" type="line"/>
      <point x="114" y="530" type="line"/>
      <point x="228" y="126" type="line"/>
      <point x="232" y="126" type="line"/>
      <point x="345" y="530" type="line"/>
      <point x="435" y="530" type="line"/>
      <point x="545" y="128" type="line"/>
      <point x="551" y="128" type="line"/>
      <point x="664" y="530" type="line"/>
      <point x="752" y="530" type="line"/>
      <point x="591" y="0" type="line"/>
      <point x="508" y="0" type="line"/>
      <point x="393" y="404" type="line"/>
      <point x="385" y="404" type="line"/>
      <point x="271" y="0" type="line"/>
    </contour>
  </outline>
</glyph>
<glyph name="z" format="2">
  <advance width="512"/>
  <unicode hex="007A"/>
  <outline>
    <contour>
      <point x="52" y="0" type="line"/>
      <point x="52" y="63" type="line"/>
      <point x="351" y="447" type="line"/>
      <point x="351" y="453" type="line"/>
      <point x="62" y="453" type="line"/>
      <point x="62" y="530" type="line"/>
      <point x="459" y="530" type="line"/>
      <point x="459" y="464" type="line"/>
      <point x="169" y="83" type="line"/>
      <point x="169" y="77" type="line"/>
      <point x="469" y="77" type="line"/>
      <point x="469" y="0" type="line"/>
    </contour>
  </outline>
</glyph>
<glyph name="bar" format="2">
  <advance width="305"/>
  <unicode hex="007C"/>
  <outline>
    <contour>
      <point x="189" y="807" type="line"/>
      <point x="189" y="-100" type="line"/>
      <point x="117" y="-100" type="line"/>
      <point x="117" y="807" type="line"/>
    </contour>
  </outline>
</glyph>
<glyph name="asciitilde" format="2">
  <advance width="626"/>
  <unicode hex="007E"/>
  <outline>
    <contour>
      <point x="95" y="290" type="line"/>
      <point x="126" y="326"/>
      <point x="165" y="346"/>
      <point x="208" y="346" type="curve" smooth="yes"/>
      <point x="282" y="346"/>
      <point x="350" y="289"/>
      <point x="421" y="289" type="curve" smooth="yes"/>
      <point x="465" y="289"/>
      <point x="503" y="311"/>
      <point x="532" y="351" type="curve"/>
      <point x="532" y="270" type="line"/>
      <point x="500" y="233"/>
      <point x="462" y="214"/>
      <point x="419" y="214" type="curve" smooth="yes"/>
      <point x="345" y="214"/>
      <point x="277" y="271"/>
      <point x="205" y="271" type="curve" smooth="yes"/>
      <point x="162" y="271"/>
      <point x="124" y="249"/>
      <point x="95" y="209" type="curve"/>
    </contour>
  </outline>
</glyph>
<glyph name="section" format="2">
  <advance width="522"/>
  <unicode hex="00A7"/>
  <outline>
    <contour>
      <point x="353" y="540" type="line"/>
      <point x="353" y="598"/>
      <point x="324" y="642"/>
      <point x="260" y="642" type="curve" smooth="yes"/>
      <point x="199" y="642"/>
      <point x="171" y="602"/>
      <point x="171" y="568" type="curve" smooth="yes"/>
      <point x="171" y="527"/>
      <point x="212" y="494"/>
      <point x="245" y="474" type="curve" smooth="yes"/>
      <point x="379" y="396" type="line" smooth="yes"/>
      <point x="415" y="375"/>
      <point x="480" y="330"/>
      <point x="479" y="244" type="curve" smooth="yes"/>
      <point x="479" y="192"/>
      <point x="436" y="137"/>
      <point x="384" y="120" type="curve"/>
      <point x="384" y="119" type="line"/>
      <point x="417" y="90"/>
      <point x="433" y="51"/>
      <point x="433" y="6" type="curve" smooth="yes"/>
      <point x="433" y="-96"/>
      <point x="348" y="-144"/>
      <point x="256" y="-144" type="curve" smooth="yes"/>
      <point x="147" y="-144"/>
      <point x="67" y="-76"/>
      <point x="67" y="35" type="curve"/>
      <point x="149" y="35" type="line"/>
      <point x="149" y="-32"/>
      <point x="194" y="-68"/>
      <point x="256" y="-68" type="curve" smooth="yes"/>
      <point x="307" y="-68"/>
      <point x="352" y="-44"/>
      <point x="352" y="6" type="curve" smooth="yes"/>
      <point x="352" y="58"/>
      <point x="310" y="81"/>
      <point x="277" y="101" type="curve" smooth="yes"/>
      <point x="144" y="178" type="line" smooth="yes"/>
      <point x="108" y="199"/>
      <point x="42" y="244"/>
      <point x="42" y="331" type="curve" smooth="yes"/>
      <point x="43" y="381"/>
      <point x="83" y="439"/>
      <point x="139" y="456" type="curve"/>
      <point x="139" y="458" type="line"/>
      <point x="110" y="487"/>
      <point x="90" y="523"/>
      <point x="90" y="568" type="curve" smooth="yes"/>
      <point x="90" y="654"/>
      <point x="161" y="717"/>
      <point x="260" y="717" type="curve" smooth="yes"/>
      <point x="367" y="717"/>
      <point x="434" y="644"/>
      <point x="434" y="540" type="curve"/>
    </contour>
    <contour>
      <point x="402" y="243" type="curve" smooth="yes"/>
      <point x="402" y="282"/>
      <point x="371" y="312"/>
      <point x="338" y="332" type="curve" smooth="yes"/>
      <point x="203" y="409" type="line" smooth="yes"/>
      <point x="174" y="428"/>
      <point x="120" y="388"/>
      <point x="120" y="331" type="curve" smooth="yes"/>
      <point x="120" y="288"/>
      <point x="152" y="262"/>
      <point x="186" y="241" type="curve" smooth="yes"/>
      <point x="314" y="168" type="line" smooth="yes"/>
      <point x="342" y="151"/>
      <point x="402" y="187"/>
    </contour>
  </outline>
</glyph>
<glyph name="dieresis" format="2">
  <advance width="561"/>
  <unicode hex="00A8"/>
  <outline>
    <contour>
      <point x="181" y="618" type="curve" smooth="yes"/>
      <point x="152" y="618"/>
      <point x="125" y="645"/>
      <point x="125" y="674" type="curve" smooth="yes"/>
      <point x="125" y="706"/>
      <point x="152" y="729"/>
      <point x="181" y="729" type="curve" smooth="yes"/>
      <point x="214" y="729"/>
      <point x="237" y="706"/>
      <point x="237" y="674" type="curve" smooth="yes"/>
      <point x="237" y="645"/>
      <point x="214" y="618"/>
    </contour>
    <contour>
      <point x="381" y="618" type="curve" smooth="yes"/>
      <point x="351" y="618"/>
      <point x="324" y="645"/>
      <point x="324" y="674" type="curve" smooth="yes"/>
      <point x="324" y="706"/>
      <point x="351" y="729"/>
      <point x="381" y="729" type="curve" smooth="yes"/>
      <point x="412" y="729"/>
      <point x="437" y="706"/>
      <point x="437" y="674" type="curve" smooth="yes"/>
      <point x="437" y="645"/>
      <point x="412" y="618"/>
    </contour>
  </outline>
</glyph>
<glyph name="copyright" format="2">
  <advance width="830"/>
  <unicode hex="00A9"/>
  <outline>
    <contour>
      <point x="214" y="354" type="curve" smooth="yes"/>
      <point x="214" y="467"/>
      <point x="306" y="558"/>
      <point x="419" y="558" type="curve" smooth="yes"/>
      <point x="517" y="558"/>
      <point x="598" y="489"/>
      <point x="612" y="397" type="curve"/>
      <point x="527" y="397" type="line"/>
      <point x="517" y="444"/>
      <point x="471" y="478"/>
      <point x="419" y="478" type="curve" smooth="yes"/>
      <point x="351" y="478"/>
      <point x="295" y="422"/>
      <point x="295" y="354" type="curve" smooth="yes"/>
      <point x="295" y="286"/>
      <point x="351" y="229"/>
      <point x="419" y="229" type="curve" smooth="yes"/>
      <point x="471" y="229"/>
      <point x="511" y="263"/>
      <point x="521" y="310" type="curve"/>
      <point x="604" y="310" type="line"/>
      <point x="591" y="218"/>
      <point x="517" y="149"/>
      <point x="419" y="149" type="curve" smooth="yes"/>
      <point x="306" y="149"/>
      <point x="214" y="241"/>
    </contour>
    <contour>
      <point x="415" y="-11" type="curve" smooth="yes"/>
      <point x="215" y="-11"/>
      <point x="50" y="153"/>
      <point x="51" y="354" type="curve" smooth="yes"/>
      <point x="51" y="556"/>
      <point x="215" y="718"/>
      <point x="415" y="718" type="curve" smooth="yes"/>
      <point x="617" y="718"/>
      <point x="779" y="556"/>
      <point x="779" y="354" type="curve" smooth="yes"/>
      <point x="780" y="153"/>
      <point x="617" y="-11"/>
    </contour>
    <contour>
      <point x="415" y="70" type="curve" smooth="yes"/>
      <point x="572" y="70"/>
      <point x="699" y="198"/>
      <point x="698" y="354" type="curve" smooth="yes"/>
      <point x="697" y="511"/>
      <point x="571" y="637"/>
      <point x="415" y="637" type="curve" smooth="yes"/>
      <point x="260" y="637"/>
      <point x="133" y="510"/>
      <point x="132" y="354" type="curve" smooth="yes"/>
      <point x="131" y="199"/>
      <point x="259" y="70"/>
    </contour>
  </outline>
</glyph>
<glyph name="ordfeminine" format="2">
  <advance width="354"/>
  <unicode hex="00AA"/>
  <outline>
    <contour>
      <point x="21" y="451" type="curve" smooth="yes"/>
      <point x="21" y="521"/>
      <point x="76" y="554"/>
      <point x="154" y="558" type="curve" smooth="yes"/>
      <point x="208" y="562"/>
      <point x="235" y="562"/>
      <point x="243" y="562" type="curve"/>
      <point x="243" y="597" type="line" smooth="yes"/>
      <point x="243" y="633"/>
      <point x="218" y="655"/>
      <point x="176" y="655" type="curve" smooth="yes"/>
      <point x="138" y="655"/>
      <point x="108" y="635"/>
      <point x="103" y="608" type="curve"/>
      <point x="31" y="609" type="line"/>
      <point x="39" y="673"/>
      <point x="101" y="711"/>
      <point x="178" y="711" type="curve" smooth="yes"/>
      <point x="251" y="711"/>
      <point x="317" y="676"/>
      <point x="317" y="596" type="curve" smooth="yes"/>
      <point x="317" y="354" type="line"/>
      <point x="246" y="354" type="line"/>
      <point x="246" y="407" type="line"/>
      <point x="244" y="407" type="line"/>
      <point x="227" y="374"/>
      <point x="192" y="347"/>
      <point x="136" y="347" type="curve" smooth="yes"/>
      <point x="73" y="347"/>
      <point x="21" y="383"/>
    </contour>
    <contour>
      <point x="93" y="453" type="curve" smooth="yes"/>
      <point x="93" y="421"/>
      <point x="120" y="399"/>
      <point x="155" y="399" type="curve" smooth="yes"/>
      <point x="206" y="399"/>
      <point x="243" y="437"/>
      <point x="243" y="485" type="curve" smooth="yes"/>
      <point x="243" y="516" type="line"/>
      <point x="166" y="509" type="line" smooth="yes"/>
      <point x="114" y="505"/>
      <point x="93" y="484"/>
    </contour>
  </outline>
</glyph>
<glyph name="uni00AD" format="2">
  <advance width="432"/>
  <unicode hex="00AD"/>
  <outline>
    <contour>
      <point x="371" y="341" type="line"/>
      <point x="371" y="264" type="line"/>
      <point x="62" y="264" type="line"/>
      <point x="62" y="341" type="line"/>
    </contour>
  </outline>
</glyph>
<glyph name="macron" format="2">
  <advance width="421"/>
  <unicode hex="00AF"/>
  <outline>
    <contour>
      <point x="373" y="707" type="line"/>
      <point x="373" y="638" type="line"/>
      <point x="49" y="638" type="line"/>
      <point x="49" y="707" type="line"/>
    </contour>
  </outline>
</glyph>
<glyph name="degree" format="2">
  <advance width="427"/>
  <unicode hex="00B0"/>
  <outline>
    <contour>
      <point x="214" y="395" type="curve" smooth="yes"/>
      <point x="126" y="395"/>
      <point x="55" y="466"/>
      <point x="55" y="553" type="curve" smooth="yes"/>
      <point x="55" y="642"/>
      <point x="126" y="713"/>
      <point x="214" y="713" type="curve" smooth="yes"/>
      <point x="302" y="713"/>
      <point x="373" y="642"/>
      <point x="373" y="553" type="curve" smooth="yes"/>
      <point x="373" y="466"/>
      <point x="302" y="395"/>
    </contour>
    <contour>
      <point x="214" y="464" type="curve" smooth="yes"/>
      <point x="263" y="464"/>
      <point x="303" y="504"/>
      <point x="303" y="553" type="curve" smooth="yes"/>
      <point x="303" y="603"/>
      <point x="263" y="643"/>
      <point x="214" y="643" type="curve" smooth="yes"/>
      <point x="164" y="643"/>
      <point x="124" y="603"/>
      <point x="124" y="553" type="curve" smooth="yes"/>
      <point x="124" y="504"/>
      <point x="164" y="464"/>
    </contour>
  </outline>
</glyph>
<glyph name="uni00B2" format="2">
  <advance width="395"/>
  <unicode hex="00B2"/>
  <outline>
    <contour>
      <point x="41" y="354" type="line"/>
      <point x="41" y="408" type="line"/>
      <point x="203" y="552" type="line" smooth="yes"/>
      <point x="251" y="594"/>
      <point x="276" y="620"/>
      <point x="276" y="656" type="curve" smooth="yes"/>
      <point x="276" y="697"/>
      <point x="240" y="723"/>
      <point x="193" y="723" type="curve" smooth="yes"/>
      <point x="144" y="723"/>
      <point x="111" y="694"/>
      <point x="111" y="651" type="curve"/>
      <point x="38" y="651" type="line"/>
      <point x="38" y="730"/>
      <point x="103" y="783"/>
      <point x="194" y="783" type="curve" smooth="yes"/>
      <point x="286" y="783"/>
      <point x="349" y="729"/>
      <point x="349" y="657" type="curve" smooth="yes"/>
      <point x="349" y="600"/>
      <point x="315" y="561"/>
      <point x="239" y="496" type="curve" smooth="yes"/>
      <point x="150" y="419" type="line"/>
      <point x="150" y="416" type="line"/>
      <point x="361" y="416" type="line"/>
      <point x="361" y="354" type="line"/>
    </contour>
  </outline>
</glyph>
<glyph name="uni00B3" format="2">
  <advance width="404"/>
  <unicode hex="00B3"/>
  <outline>
    <contour>
      <point x="201" y="348" type="curve" smooth="yes"/>
      <point x="105" y="348"/>
      <point x="35" y="400"/>
      <point x="34" y="473" type="curve"/>
      <point x="110" y="473" type="line"/>
      <point x="112" y="436"/>
      <point x="150" y="411"/>
      <point x="201" y="411" type="curve" smooth="yes"/>
      <point x="255" y="411"/>
      <point x="293" y="439"/>
      <point x="293" y="477" type="curve" smooth="yes"/>
      <point x="293" y="516"/>
      <point x="253" y="542"/>
      <point x="191" y="542" type="curve" smooth="yes"/>
      <point x="157" y="542" type="line"/>
      <point x="157" y="599" type="line"/>
      <point x="191" y="599" type="line" smooth="yes"/>
      <point x="242" y="599"/>
      <point x="280" y="623"/>
      <point x="280" y="661" type="curve" smooth="yes"/>
      <point x="280" y="697"/>
      <point x="249" y="723"/>
      <point x="202" y="723" type="curve" smooth="yes"/>
      <point x="156" y="723"/>
      <point x="117" y="698"/>
      <point x="116" y="660" type="curve"/>
      <point x="44" y="660" type="line"/>
      <point x="45" y="733"/>
      <point x="114" y="783"/>
      <point x="202" y="783" type="curve" smooth="yes"/>
      <point x="293" y="783"/>
      <point x="354" y="733"/>
      <point x="354" y="666" type="curve" smooth="yes"/>
      <point x="354" y="616"/>
      <point x="317" y="583"/>
      <point x="267" y="574" type="curve"/>
      <point x="267" y="572" type="line"/>
      <point x="334" y="562"/>
      <point x="371" y="523"/>
      <point x="371" y="471" type="curve" smooth="yes"/>
      <point x="371" y="401"/>
      <point x="301" y="348"/>
    </contour>
  </outline>
</glyph>
<glyph name="paragraph" format="2">
  <advance width="569"/>
  <unicode hex="00B6"/>
  <outline>
    <contour>
      <point x="404" y="0" type="line"/>
      <point x="404" y="630" type="line"/>
      <point x="318" y="630" type="line"/>
      <point x="318" y="263" type="line"/>
      <point x="278" y="263" type="line" smooth="yes"/>
      <point x="128" y="263"/>
      <point x="45" y="356"/>
      <point x="45" y="484" type="curve" smooth="yes"/>
      <point x="45" y="612"/>
      <point x="128" y="707"/>
      <point x="278" y="707" type="curve" smooth="yes"/>
      <point x="491" y="707" type="line"/>
      <point x="491" y="0" type="line"/>
    </contour>
  </outline>
</glyph>
<glyph name="periodcentered" format="2">
  <advance width="253"/>
  <unicode hex="00B7"/>
  <outline>
    <contour>
      <point x="127" y="246" type="curve" smooth="yes"/>
      <point x="93" y="246"/>
      <point x="63" y="275"/>
      <point x="64" y="310" type="curve" smooth="yes"/>
      <point x="63" y="344"/>
      <point x="93" y="372"/>
      <point x="127" y="372" type="curve" smooth="yes"/>
      <point x="161" y="372"/>
      <point x="189" y="344"/>
      <point x="189" y="310" type="curve" smooth="yes"/>
      <point x="189" y="275"/>
      <point x="161" y="246"/>
    </contour>
  </outline>
</glyph>
<glyph name="guillemotright" format="2">
  <advance width="514"/>
  <unicode hex="00BB"/>
  <outline>
    <contour>
      <point x="58" y="76" type="line"/>
      <point x="188" y="288" type="line"/>
      <point x="58" y="500" type="line"/>
      <point x="132" y="500" type="line"/>
      <point x="271" y="293" type="line"/>
      <point x="271" y="283" type="line"/>
      <point x="132" y="76" type="line"/>
    </contour>
    <contour>
      <point x="236" y="76" type="line"/>
      <point x="367" y="288" type="line"/>
      <point x="236" y="500" type="line"/>
      <point x="311" y="500" type="line"/>
      <point x="450" y="293" type="line"/>
      <point x="450" y="283" type="line"/>
      <point x="311" y="76" type="line"/>
    </contour>
  </outline>
</glyph>
<glyph name="onehalf" format="2">
  <advance width="885"/>
  <unicode hex="00BD"/>
  <outline>
    <contour>
      <point x="124" y="0" type="line"/>
      <point x="610" y="707" type="line"/>
      <point x="689" y="707" type="line"/>
      <point x="203" y="0" type="line"/>
    </contour>
    <contour>
      <point x="121" y="331" type="line"/>
      <point x="121" y="631" type="line"/>
      <point x="118" y="631" type="line"/>
      <point x="25" y="569" type="line"/>
      <point x="25" y="644" type="line"/>
      <point x="121" y="707" type="line"/>
      <point x="194" y="707" type="line"/>
      <point x="194" y="331" type="line"/>
    </contour>
    <contour>
      <point x="562" y="0" type="line"/>
      <point x="562" y="53" type="line"/>
      <point x="711" y="178" type="line" smooth="yes"/>
      <point x="754" y="214"/>
      <point x="774" y="237"/>
      <point x="774" y="266" type="curve" smooth="yes"/>
      <point x="774" y="301"/>
      <point x="742" y="324"/>
      <point x="701" y="324" type="curve" smooth="yes"/>
      <point x="659" y="324"/>
      <point x="629" y="299"/>
      <point x="629" y="263" type="curve"/>
      <point x="559" y="263" type="line"/>
      <point x="559" y="333"/>
      <point x="617" y="381"/>
      <point x="702" y="381" type="curve" smooth="yes"/>
      <point x="789" y="381"/>
      <point x="844" y="331"/>
      <point x="844" y="267" type="curve" smooth="yes"/>
      <point x="844" y="216"/>
      <point x="815" y="182"/>
      <point x="744" y="123" type="curve" smooth="yes"/>
      <point x="669" y="62" type="line"/>
      <point x="669" y="59" type="line"/>
      <point x="857" y="59" type="line"/>
      <point x="857" y="0" type="line"/>
    </contour>
  </outline>
</glyph>
<glyph name="threequarters" format="2">
  <advance width="908"/>
  <unicode hex="00BE"/>
  <outline>
    <contour>
      <point x="188" y="0" type="line"/>
      <point x="675" y="707" type="line"/>
      <point x="754" y="707" type="line"/>
      <point x="268" y="0" type="line"/>
    </contour>
    <contour>
      <point x="563" y="67" type="line"/>
      <point x="563" y="125" type="line"/>
      <point x="743" y="376" type="line"/>
      <point x="835" y="376" type="line"/>
      <point x="835" y="126" type="line"/>
      <point x="887" y="126" type="line"/>
      <point x="887" y="67" type="line"/>
      <point x="835" y="67" type="line"/>
      <point x="835" y="0" type="line"/>
      <point x="765" y="0" type="line"/>
      <point x="765" y="67" type="line"/>
    </contour>
    <contour>
      <point x="182" y="325" type="curve" smooth="yes"/>
      <point x="93" y="325"/>
      <point x="28" y="374"/>
      <point x="28" y="440" type="curve"/>
      <point x="103" y="440" type="line"/>
      <point x="103" y="409"/>
      <point x="137" y="386"/>
      <point x="182" y="386" type="curve" smooth="yes"/>
      <point x="228" y="386"/>
      <point x="261" y="410"/>
      <point x="261" y="441" type="curve" smooth="yes"/>
      <point x="261" y="474"/>
      <point x="225" y="496"/>
      <point x="172" y="496" type="curve" smooth="yes"/>
      <point x="142" y="496" type="line"/>
      <point x="142" y="549" type="line"/>
      <point x="172" y="549" type="line" smooth="yes"/>
      <point x="218" y="549"/>
      <point x="252" y="571"/>
      <point x="252" y="602" type="curve" smooth="yes"/>
      <point x="252" y="632"/>
      <point x="223" y="655"/>
      <point x="182" y="655" type="curve" smooth="yes"/>
      <point x="141" y="655"/>
      <point x="107" y="632"/>
      <point x="107" y="601" type="curve"/>
      <point x="36" y="601" type="line"/>
      <point x="38" y="665"/>
      <point x="99" y="712"/>
      <point x="182" y="712" type="curve" smooth="yes"/>
      <point x="266" y="712"/>
      <point x="323" y="668"/>
      <point x="323" y="607" type="curve" smooth="yes"/>
      <point x="323" y="564"/>
      <point x="290" y="534"/>
      <point x="240" y="527" type="curve"/>
      <point x="240" y="524" type="line"/>
      <point x="302" y="516"/>
      <point x="337" y="482"/>
      <point x="337" y="436" type="curve" smooth="yes"/>
      <point x="337" y="373"/>
      <point x="274" y="325"/>
    </contour>
    <contour>
      <point x="639" y="126" type="line"/>
      <point x="767" y="126" type="line"/>
      <point x="767" y="296" type="line"/>
      <point x="764" y="296" type="line"/>
      <point x="639" y="128" type="line"/>
    </contour>
  </outline>
</glyph>
<glyph name="questiondown" format="2">
  <advance width="479"/>
  <unicode hex="00BF"/>
  <outline>
    <contour>
      <point x="306" y="325" type="line" smooth="yes"/>
      <point x="305" y="194"/>
      <point x="264" y="154"/>
      <point x="197" y="113" type="curve" smooth="yes"/>
      <point x="157" y="89"/>
      <point x="126" y="50"/>
      <point x="126" y="-5" type="curve" smooth="yes"/>
      <point x="126" y="-71"/>
      <point x="178" y="-113"/>
      <point x="242" y="-113" type="curve" smooth="yes"/>
      <point x="298" y="-113"/>
      <point x="353" y="-80"/>
      <point x="359" y="0" type="curve"/>
      <point x="448" y="0" type="line"/>
      <point x="443" y="-118"/>
      <point x="353" y="-188"/>
      <point x="242" y="-188" type="curve" smooth="yes"/>
      <point x="120" y="-188"/>
      <point x="40" y="-108"/>
      <point x="40" y="-1" type="curve" smooth="yes"/>
      <point x="40" y="75"/>
      <point x="76" y="129"/>
      <point x="137" y="166" type="curve" smooth="yes"/>
      <point x="198" y="203"/>
      <point x="220" y="240"/>
      <point x="222" y="325" type="curve"/>
      <point x="222" y="330" type="line"/>
      <point x="306" y="330" type="line"/>
    </contour>
    <contour>
      <point x="261" y="535" type="curve" smooth="yes"/>
      <point x="295" y="535"/>
      <point x="324" y="507"/>
      <point x="323" y="472" type="curve" smooth="yes"/>
      <point x="324" y="438"/>
      <point x="295" y="409"/>
      <point x="261" y="409" type="curve" smooth="yes"/>
      <point x="227" y="409"/>
      <point x="198" y="438"/>
      <point x="198" y="472" type="curve" smooth="yes"/>
      <point x="198" y="507"/>
      <point x="227" y="535"/>
    </contour>
  </outline>
</glyph>
<glyph name="divide" format="2">
  <advance width="626"/>
  <unicode hex="00F7"/>
  <outline>
    <contour>
      <point x="536" y="316" type="line"/>
      <point x="536" y="237" type="line"/>
      <point x="92" y="237" type="line"/>
      <point x="92" y="316" type="line"/>
    </contour>
    <contour>
      <point x="314" y="34" type="curve" smooth="yes"/>
      <point x="279" y="34"/>
      <point x="251" y="63"/>
      <point x="251" y="98" type="curve" smooth="yes"/>
      <point x="251" y="131"/>
      <point x="279" y="159"/>
      <point x="314" y="159" type="curve" smooth="yes"/>
      <point x="347" y="159"/>
      <point x="376" y="131"/>
      <point x="376" y="98" type="curve" smooth="yes"/>
      <point x="376" y="63"/>
      <point x="347" y="34"/>
    </contour>
    <contour>
      <point x="314" y="394" type="curve" smooth="yes"/>
      <point x="279" y="394"/>
      <point x="251" y="421"/>
      <point x="251" y="456" type="curve" smooth="yes"/>
      <point x="251" y="490"/>
      <point x="279" y="518"/>
      <point x="314" y="518" type="curve" smooth="yes"/>
      <point x="347" y="518"/>
      <point x="376" y="490"/>
      <point x="376" y="456" type="curve" smooth="yes"/>
      <point x="376" y="421"/>
      <point x="347" y="394"/>
    </contour>
  </outline>
</glyph>
<glyph name="uni0394" format="2">
  <advance width="645"/>
  <unicode hex="0394"/>
  <outline>
    <contour>
      <point x="18" y="0" type="line"/>
      <point x="276" y="707" type="line"/>
      <point x="369" y="707" type="line"/>
      <point x="628" y="0" type="line"/>
    </contour>
    <contour>
      <point x="138" y="78" type="line"/>
      <point x="507" y="78" type="line"/>
      <point x="325" y="593" type="line"/>
      <point x="319" y="593" type="line"/>
    </contour>
  </outline>
</glyph>
<glyph name="Zeta" format="2">
  <advance width="594"/>
  <unicode hex="0396"/>
  <outline>
    <contour>
      <point x="55" y="0" type="line"/>
      <point x="55" y="63" type="line"/>
      <point x="435" y="629" type="line"/>
      <point x="51" y="629" type="line"/>
      <point x="51" y="707" type="line"/>
      <point x="540" y="707" type="line"/>
      <point x="540" y="644" type="line"/>
      <point x="160" y="78" type="line"/>
      <point x="544" y="78" type="line"/>
      <point x="544" y="0" type="line"/>
    </contour>
  </outline>
</glyph>
<glyph name="Kappa" format="2">
  <advance width="621"/>
  <unicode hex="039A"/>
  <outline>
    <contour>
      <point x="78" y="0" type="line"/>
      <point x="78" y="707" type="line"/>
      <point x="166" y="707" type="line"/>
      <point x="166" y="357" type="line"/>
      <point x="175" y="357" type="line"/>
      <point x="489" y="707" type="line"/>
      <point x="604" y="707" type="line"/>
      <point x="309" y="388" type="line"/>
      <point x="604" y="0" type="line"/>
      <point x="497" y="0" type="line"/>
      <point x="254" y="327" type="line"/>
      <point x="166" y="228" type="line"/>
      <point x="166" y="0" type="line"/>
    </contour>
  </outline>
</glyph>
<glyph name="Lambda" format="2">
  <advance width="645"/>
  <unicode hex="039B"/>
  <outline>
    <contour>
      <point x="109" y="0" type="line"/>
      <point x="18" y="0" type="line"/>
      <point x="276" y="707" type="line"/>
      <point x="369" y="707" type="line"/>
      <point x="628" y="0" type="line"/>
      <point x="535" y="0" type="line"/>
      <point x="325" y="593" type="line"/>
      <point x="319" y="593" type="line"/>
    </contour>
  </outline>
</glyph>
<glyph name="Nu" format="2">
  <advance width="717"/>
  <unicode hex="039D"/>
  <outline>
    <contour>
      <point x="640" y="707" type="line"/>
      <point x="640" y="0" type="line"/>
      <point x="556" y="0" type="line"/>
      <point x="173" y="551" type="line"/>
      <point x="166" y="551" type="line"/>
      <point x="166" y="0" type="line"/>
      <point x="78" y="0" type="line"/>
      <point x="78" y="707" type="line"/>
      <point x="163" y="707" type="line"/>
      <point x="546" y="155" type="line"/>
      <point x="553" y="155" type="line"/>
      <point x="553" y="707" type="line"/>
    </contour>
  </outline>
</glyph>
<glyph name="Xi" format="2">
  <advance width="510"/>
  <unicode hex="039E"/>
  <outline>
    <contour>
      <point x="31" y="0" type="line"/>
      <point x="31" y="78" type="line"/>
      <point x="479" y="78" type="line"/>
      <point x="479" y="0" type="line"/>
    </contour>
    <contour>
      <point x="73" y="321" type="line"/>
      <point x="73" y="398" type="line"/>
      <point x="436" y="398" type="line"/>
      <point x="436" y="321" type="line"/>
    </contour>
    <contour>
      <point x="33" y="629" type="line"/>
      <point x="33" y="707" type="line"/>
      <point x="473" y="707" type="line"/>
      <point x="473" y="629" type="line"/>
    </contour>
  </outline>
</glyph>
<glyph name="Omicron" format="2">
  <advance width="726"/>
  <unicode hex="039F"/>
  <outline>
    <contour>
      <point x="676" y="354" type="curve" smooth="yes"/>
      <point x="676" y="130"/>
      <point x="544" y="-10"/>
      <point x="363" y="-10" type="curve" smooth="yes"/>
      <point x="181" y="-10"/>
      <point x="51" y="130"/>
      <point x="51" y="354" type="curve" smooth="yes"/>
      <point x="51" y="578"/>
      <point x="181" y="717"/>
      <point x="363" y="717" type="curve" smooth="yes"/>
      <point x="544" y="717"/>
      <point x="676" y="578"/>
    </contour>
    <contour>
      <point x="591" y="354" type="curve" smooth="yes"/>
      <point x="591" y="537"/>
      <point x="491" y="635"/>
      <point x="363" y="635" type="curve" smooth="yes"/>
      <point x="235" y="635"/>
      <point x="136" y="537"/>
      <point x="136" y="354" type="curve" smooth="yes"/>
      <point x="136" y="171"/>
      <point x="235" y="72"/>
      <point x="363" y="72" type="curve" smooth="yes"/>
      <point x="491" y="72"/>
      <point x="591" y="171"/>
    </contour>
  </outline>
</glyph>
<glyph name="Pi" format="2">
  <advance width="688"/>
  <unicode hex="03A0"/>
  <outline>
    <contour>
      <point x="609" y="707" type="line"/>
      <point x="609" y="0" type="line"/>
      <point x="521" y="0" type="line"/>
      <point x="521" y="629" type="line"/>
      <point x="167" y="629" type="line"/>
      <point x="167" y="0" type="line"/>
      <point x="79" y="0" type="line"/>
      <point x="79" y="707" type="line"/>
    </contour>
  </outline>
</glyph>
<glyph name="Rho" format="2">
  <advance width="604"/>
  <unicode hex="03A1"/>
  <outline>
    <contour>
      <point x="78" y="0" type="line"/>
      <point x="78" y="707" type="line"/>
      <point x="318" y="707" type="line" smooth="yes"/>
      <point x="484" y="707"/>
      <point x="560" y="608"/>
      <point x="560" y="482" type="curve" smooth="yes"/>
      <point x="560" y="357"/>
      <point x="484" y="257"/>
      <point x="319" y="257" type="curve" smooth="yes"/>
      <point x="166" y="257" type="line"/>
      <point x="166" y="0" type="line"/>
    </contour>
    <contour>
      <point x="166" y="335" type="line"/>
      <point x="315" y="335" type="line" smooth="yes"/>
      <point x="427" y="335"/>
      <point x="473" y="398"/>
      <point x="473" y="482" type="curve" smooth="yes"/>
      <point x="473" y="567"/>
      <point x="427" y="629"/>
      <point x="314" y="629" type="curve" smooth="yes"/>
      <point x="166" y="629" type="line"/>
    </contour>
  </outline>
</glyph>
<glyph name="Sigma" format="2">
  <advance width="598"/>
  <unicode hex="03A3"/>
  <outline>
    <contour>
      <point x="543" y="82" type="line"/>
      <point x="543" y="0" type="line"/>
      <point x="56" y="0" type="line"/>
      <point x="56" y="72" type="line"/>
      <point x="280" y="344" type="line"/>
      <point x="56" y="619" type="line"/>
      <point x="56" y="692" type="line"/>
      <point x="521" y="692" type="line"/>
      <point x="521" y="610" type="line"/>
      <point x="183" y="610" type="line"/>
      <point x="388" y="350" type="line"/>
      <point x="388" y="341" type="line"/>
      <point x="183" y="82" type="line"/>
    </contour>
  </outline>
</glyph>
<glyph name="Phi" format="2">
  <advance width="716"/>
  <unicode hex="03A6"/>
  <outline>
    <contour>
      <point x="402" y="707" type="line"/>
      <point x="402" y="614" type="line"/>
      <point x="557" y="612"/>
      <point x="675" y="506"/>
      <point x="675" y="354" type="curve" smooth="yes"/>
      <point x="675" y="199"/>
      <point x="561" y="96"/>
      <point x="402" y="93" type="curve"/>
      <point x="402" y="0" type="line"/>
      <point x="317" y="0" type="line"/>
      <point x="317" y="93" type="line"/>
      <point x="158" y="95"/>
      <point x="42" y="200"/>
      <point x="42" y="353" type="curve" smooth="yes"/>
      <point x="42" y="507"/>
      <point x="161" y="612"/>
      <point x="317" y="614" type="curve"/>
      <point x="317" y="707" type="line"/>
    </contour>
    <contour>
      <point x="127" y="353" type="curve" smooth="yes"/>
      <point x="127" y="246"/>
      <point x="202" y="176"/>
      <point x="317" y="174" type="curve"/>
      <point x="317" y="533" type="line"/>
      <point x="203" y="531"/>
      <point x="127" y="462"/>
    </contour>
    <contour>
      <point x="402" y="174" type="line"/>
      <point x="516" y="177"/>
      <point x="590" y="246"/>
      <point x="590" y="354" type="curve" smooth="yes"/>
      <point x="590" y="462"/>
      <point x="514" y="531"/>
      <point x="402" y="533" type="curve"/>
    </contour>
  </outline>
</glyph>
<glyph name="Psi" format="2">
  <advance width="745"/>
  <unicode hex="03A8"/>
  <outline>
    <contour>
      <point x="579" y="707" type="line"/>
      <point x="667" y="707" type="line"/>
      <point x="667" y="442" type="line" smooth="yes"/>
      <point x="667" y="280"/>
      <point x="562" y="187"/>
      <point x="417" y="174" type="curve"/>
      <point x="417" y="0" type="line"/>
      <point x="329" y="0" type="line"/>
      <point x="329" y="174" type="line"/>
      <point x="183" y="187"/>
      <point x="78" y="280"/>
      <point x="78" y="442" type="curve" smooth="yes"/>
      <point x="78" y="707" type="line"/>
      <point x="166" y="707" type="line"/>
      <point x="166" y="442" type="line" smooth="yes"/>
      <point x="166" y="328"/>
      <point x="233" y="264"/>
      <point x="329" y="251" type="curve"/>
      <point x="329" y="707" type="line"/>
      <point x="417" y="707" type="line"/>
      <point x="417" y="252" type="line"/>
      <point x="512" y="264"/>
      <point x="579" y="328"/>
      <point x="579" y="442" type="curve" smooth="yes"/>
    </contour>
  </outline>
</glyph>
<glyph name="uni03A9" format="2">
  <advance width="727"/>
  <unicode hex="03A9"/>
  <outline>
    <contour>
      <point x="51" y="0" type="line"/>
      <point x="51" y="78" type="line"/>
      <point x="197" y="78" type="line"/>
      <point x="197" y="84" type="line"/>
      <point x="107" y="143"/>
      <point x="51" y="240"/>
      <point x="51" y="374" type="curve" smooth="yes"/>
      <point x="51" y="574"/>
      <point x="180" y="717"/>
      <point x="364" y="717" type="curve" smooth="yes"/>
      <point x="546" y="717"/>
      <point x="677" y="574"/>
      <point x="677" y="374" type="curve" smooth="yes"/>
      <point x="677" y="240"/>
      <point x="620" y="143"/>
      <point x="529" y="84" type="curve"/>
      <point x="529" y="78" type="line"/>
      <point x="677" y="78" type="line"/>
      <point x="677" y="0" type="line"/>
      <point x="424" y="0" type="line"/>
      <point x="424" y="99" type="line"/>
      <point x="515" y="138"/>
      <point x="591" y="242"/>
      <point x="591" y="373" type="curve" smooth="yes"/>
      <point x="591" y="519"/>
      <point x="496" y="635"/>
      <point x="364" y="635" type="curve" smooth="yes"/>
      <point x="230" y="635"/>
      <point x="136" y="519"/>
      <point x="136" y="373" type="curve" smooth="yes"/>
      <point x="136" y="242"/>
      <point x="213" y="138"/>
      <point x="303" y="99" type="curve"/>
      <point x="303" y="0" type="line"/>
    </contour>
  </outline>
</glyph>
<glyph name="alpha" format="2">
  <advance width="609"/>
  <unicode hex="03B1"/>
  <outline>
    <contour>
      <point x="263" y="-11" type="curve" smooth="yes"/>
      <point x="129" y="-10"/>
      <point x="42" y="105"/>
      <point x="42" y="266" type="curve" smooth="yes"/>
      <point x="42" y="425"/>
      <point x="136" y="537"/>
      <point x="268" y="537" type="curve" smooth="yes"/>
      <point x="365" y="537"/>
      <point x="419" y="478"/>
      <point x="452" y="393" type="curve"/>
      <point x="453" y="393" type="line"/>
      <point x="482" y="530" type="line"/>
      <point x="561" y="530" type="line"/>
      <point x="500" y="266" type="line"/>
      <point x="567" y="0" type="line"/>
      <point x="489" y="0" type="line"/>
      <point x="457" y="133" type="line"/>
      <point x="456" y="133" type="line"/>
      <point x="421" y="49"/>
      <point x="360" y="-12"/>
    </contour>
    <contour>
      <point x="126" y="264" type="curve" smooth="yes"/>
      <point x="126" y="150"/>
      <point x="181" y="64"/>
      <point x="263" y="64" type="curve" smooth="yes"/>
      <point x="365" y="64"/>
      <point x="409" y="195"/>
      <point x="425" y="264" type="curve"/>
      <point x="426" y="266" type="line"/>
      <point x="425" y="267" type="line"/>
      <point x="411" y="334"/>
      <point x="373" y="462"/>
      <point x="269" y="462" type="curve" smooth="yes"/>
      <point x="186" y="462"/>
      <point x="126" y="381"/>
    </contour>
  </outline>
</glyph>
<glyph name="beta" format="2">
  <advance width="562"/>
  <unicode hex="03B2"/>
  <outline>
    <contour>
      <point x="278" y="717" type="curve" smooth="yes"/>
      <point x="409" y="717"/>
      <point x="484" y="624"/>
      <point x="484" y="530" type="curve" smooth="yes"/>
      <point x="484" y="478"/>
      <point x="462" y="422"/>
      <point x="414" y="385" type="curve"/>
      <point x="484" y="348"/>
      <point x="516" y="273"/>
      <point x="516" y="203" type="curve" smooth="yes"/>
      <point x="516" y="83"/>
      <point x="424" y="-10"/>
      <point x="299" y="-10" type="curve" smooth="yes"/>
      <point x="247" y="-10"/>
      <point x="195" y="6"/>
      <point x="157" y="59" type="curve"/>
      <point x="151" y="56" type="line"/>
      <point x="151" y="-199" type="line"/>
      <point x="67" y="-199" type="line"/>
      <point x="67" y="524" type="line" smooth="yes"/>
      <point x="67" y="635"/>
      <point x="156" y="717"/>
    </contour>
    <contour>
      <point x="151" y="193" type="line" smooth="yes"/>
      <point x="151" y="126"/>
      <point x="203" y="68"/>
      <point x="288" y="68" type="curve" smooth="yes"/>
      <point x="377" y="68"/>
      <point x="432" y="131"/>
      <point x="432" y="204" type="curve" smooth="yes"/>
      <point x="432" y="272"/>
      <point x="382" y="337"/>
      <point x="306" y="337" type="curve" smooth="yes"/>
      <point x="238" y="337" type="line"/>
      <point x="238" y="414" type="line"/>
      <point x="277" y="414" type="line" smooth="yes"/>
      <point x="356" y="414"/>
      <point x="402" y="470"/>
      <point x="402" y="529" type="curve" smooth="yes"/>
      <point x="402" y="592"/>
      <point x="347" y="639"/>
      <point x="278" y="639" type="curve" smooth="yes"/>
      <point x="209" y="639"/>
      <point x="151" y="592"/>
      <point x="151" y="524" type="curve" smooth="yes"/>
    </contour>
  </outline>
</glyph>
<glyph name="gamma" format="2">
  <advance width="505"/>
  <unicode hex="03B3"/>
  <outline>
    <contour>
      <point x="25" y="530" type="line"/>
      <point x="117" y="530" type="line"/>
      <point x="255" y="129" type="line"/>
      <point x="390" y="530" type="line"/>
      <point x="480" y="530" type="line"/>
      <point x="296" y="11" type="line"/>
      <point x="296" y="-199" type="line"/>
      <point x="212" y="-199" type="line"/>
      <point x="212" y="11" type="line"/>
    </contour>
  </outline>
</glyph>
<glyph name="delta" format="2">
  <advance width="511"/>
  <unicode hex="03B4"/>
  <outline>
    <contour>
      <point x="84" y="604" type="curve" smooth="yes"/>
      <point x="84" y="686"/>
      <point x="153" y="739"/>
      <point x="266" y="739" type="curve" smooth="yes"/>
      <point x="315" y="739"/>
      <point x="351" y="732"/>
      <point x="394" y="715" type="curve"/>
      <point x="394" y="633" type="line"/>
      <point x="367" y="644"/>
      <point x="315" y="659"/>
      <point x="268" y="659" type="curve" smooth="yes"/>
      <point x="212" y="659"/>
      <point x="183" y="636"/>
      <point x="183" y="604" type="curve" smooth="yes"/>
      <point x="183" y="580"/>
      <point x="200" y="549"/>
      <point x="286" y="518" type="curve" smooth="yes"/>
      <point x="426" y="468"/>
      <point x="487" y="379"/>
      <point x="487" y="251" type="curve" smooth="yes"/>
      <point x="487" y="242" type="line" smooth="yes"/>
      <point x="487" y="99"/>
      <point x="402" y="-10"/>
      <point x="257" y="-10" type="curve" smooth="yes"/>
      <point x="111" y="-10"/>
      <point x="25" y="99"/>
      <point x="25" y="242" type="curve" smooth="yes"/>
      <point x="25" y="251" type="line" smooth="yes"/>
      <point x="25" y="362"/>
      <point x="96" y="450"/>
      <point x="181" y="471" type="curve"/>
      <point x="181" y="474" type="line"/>
      <point x="121" y="497"/>
      <point x="84" y="543"/>
    </contour>
    <contour>
      <point x="123" y="242" type="line" smooth="yes"/>
      <point x="123" y="147"/>
      <point x="164" y="67"/>
      <point x="257" y="67" type="curve" smooth="yes"/>
      <point x="349" y="67"/>
      <point x="391" y="147"/>
      <point x="391" y="242" type="curve" smooth="yes"/>
      <point x="391" y="252" type="line" smooth="yes"/>
      <point x="391" y="329"/>
      <point x="338" y="412"/>
      <point x="257" y="429" type="curve"/>
      <point x="164" y="429"/>
      <point x="123" y="347"/>
      <point x="123" y="252" type="curve" smooth="yes"/>
    </contour>
  </outline>
</glyph>
<glyph name="epsilon" format="2">
  <advance width="515"/>
  <unicode hex="03B5"/>
  <outline>
    <contour>
      <point x="42" y="144" type="curve" smooth="yes"/>
      <point x="42" y="188"/>
      <point x="62" y="243"/>
      <point x="146" y="266" type="curve"/>
      <point x="68" y="287"/>
      <point x="52" y="338"/>
      <point x="52" y="381" type="curve" smooth="yes"/>
      <point x="52" y="480"/>
      <point x="135" y="537"/>
      <point x="256" y="537" type="curve" smooth="yes"/>
      <point x="378" y="537"/>
      <point x="456" y="480"/>
      <point x="470" y="384" type="curve"/>
      <point x="382" y="384" type="line"/>
      <point x="371" y="431"/>
      <point x="326" y="463"/>
      <point x="256" y="463" type="curve" smooth="yes"/>
      <point x="184" y="463"/>
      <point x="138" y="429"/>
      <point x="138" y="381" type="curve" smooth="yes"/>
      <point x="138" y="337"/>
      <point x="175" y="309"/>
      <point x="251" y="309" type="curve" smooth="yes"/>
      <point x="314" y="309" type="line"/>
      <point x="314" y="237" type="line"/>
      <point x="251" y="237" type="line" smooth="yes"/>
      <point x="178" y="237"/>
      <point x="131" y="198"/>
      <point x="131" y="148" type="curve" smooth="yes"/>
      <point x="131" y="99"/>
      <point x="183" y="66"/>
      <point x="262" y="66" type="curve" smooth="yes"/>
      <point x="339" y="66"/>
      <point x="378" y="94"/>
      <point x="392" y="154" type="curve"/>
      <point x="479" y="154" type="line"/>
      <point x="467" y="54"/>
      <point x="383" y="-10"/>
      <point x="258" y="-10" type="curve" smooth="yes"/>
      <point x="134" y="-10"/>
      <point x="42" y="52"/>
    </contour>
  </outline>
</glyph>
<glyph name="zeta" format="2">
  <advance width="494"/>
  <unicode hex="03B6"/>
  <outline>
    <contour>
      <point x="447" y="707" type="line"/>
      <point x="447" y="646" type="line"/>
      <point x="284" y="434" type="line" smooth="yes"/>
      <point x="208" y="334"/>
      <point x="161" y="289"/>
      <point x="161" y="185" type="curve" smooth="yes"/>
      <point x="161" y="138"/>
      <point x="190" y="101"/>
      <point x="237" y="87" type="curve" smooth="yes"/>
      <point x="301" y="67" type="line" smooth="yes"/>
      <point x="379" y="44"/>
      <point x="427" y="4"/>
      <point x="427" y="-41" type="curve" smooth="yes"/>
      <point x="427" y="-86"/>
      <point x="393" y="-139"/>
      <point x="340" y="-183" type="curve"/>
      <point x="289" y="-139" type="line"/>
      <point x="317" y="-109"/>
      <point x="334" y="-77"/>
      <point x="334" y="-56" type="curve" smooth="yes"/>
      <point x="334" y="-37"/>
      <point x="307" y="-19"/>
      <point x="263" y="-6" type="curve" smooth="yes"/>
      <point x="220" y="7" type="line" smooth="yes"/>
      <point x="129" y="33"/>
      <point x="74" y="100"/>
      <point x="74" y="183" type="curve" smooth="yes"/>
      <point x="74" y="300"/>
      <point x="124" y="375"/>
      <point x="209" y="474" type="curve" smooth="yes"/>
      <point x="339" y="629" type="line"/>
      <point x="39" y="629" type="line"/>
      <point x="39" y="707" type="line"/>
    </contour>
  </outline>
</glyph>
<glyph name="theta" format="2">
  <advance width="511"/>
  <unicode hex="03B8"/>
  <outline>
    <contour>
      <point x="477" y="306" type="line" smooth="yes"/>
      <point x="477" y="90"/>
      <point x="391" y="-10"/>
      <point x="257" y="-10" type="curve" smooth="yes"/>
      <point x="124" y="-10"/>
      <point x="35" y="90"/>
      <point x="35" y="306" type="curve" smooth="yes"/>
      <point x="35" y="392" type="line" smooth="yes"/>
      <point x="35" y="608"/>
      <point x="123" y="702"/>
      <point x="256" y="702" type="curve" smooth="yes"/>
      <point x="391" y="702"/>
      <point x="477" y="608"/>
      <point x="477" y="392" type="curve" smooth="yes"/>
    </contour>
    <contour>
      <point x="391" y="407" type="line" smooth="yes"/>
      <point x="391" y="549"/>
      <point x="336" y="627"/>
      <point x="256" y="627" type="curve" smooth="yes"/>
      <point x="176" y="627"/>
      <point x="119" y="549"/>
      <point x="119" y="407" type="curve" smooth="yes"/>
      <point x="119" y="384" type="line"/>
      <point x="391" y="384" type="line"/>
    </contour>
    <contour>
      <point x="119" y="291" type="line" smooth="yes"/>
      <point x="119" y="149"/>
      <point x="178" y="65"/>
      <point x="257" y="65" type="curve" smooth="yes"/>
      <point x="338" y="65"/>
      <point x="391" y="149"/>
      <point x="391" y="291" type="curve" smooth="yes"/>
      <point x="391" y="306" type="line"/>
      <point x="119" y="306" type="line"/>
    </contour>
  </outline>
</glyph>
<glyph name="iota" format="2">
  <advance width="245"/>
  <unicode hex="03B9"/>
  <outline>
    <contour>
      <point x="64" y="530" type="line"/>
      <point x="148" y="530" type="line"/>
      <point x="147" y="133" type="line" smooth="yes"/>
      <point x="147" y="84"/>
      <point x="180" y="74"/>
      <point x="209" y="74" type="curve" smooth="yes"/>
      <point x="223" y="74"/>
      <point x="242" y="79"/>
      <point x="249" y="81" type="curve"/>
      <point x="249" y="3" type="line"/>
      <point x="234" y="-1"/>
      <point x="212" y="-7"/>
      <point x="179" y="-7" type="curve" smooth="yes"/>
      <point x="114" y="-7"/>
      <point x="64" y="29"/>
      <point x="64" y="132" type="curve" smooth="yes"/>
    </contour>
  </outline>
</glyph>
<glyph name="kappa" format="2">
  <advance width="600"/>
  <unicode hex="03BA"/>
  <outline>
    <contour>
      <point x="173" y="530" type="line"/>
      <point x="173" y="311" type="line"/>
      <point x="221" y="311" type="line"/>
      <point x="407" y="530" type="line"/>
      <point x="525" y="530" type="line"/>
      <point x="299" y="266" type="line"/>
      <point x="525" y="0" type="line"/>
      <point x="402" y="0" type="line"/>
      <point x="212" y="226" type="line"/>
      <point x="173" y="226" type="line"/>
      <point x="173" y="0" type="line"/>
      <point x="75" y="0" type="line"/>
      <point x="75" y="530" type="line"/>
    </contour>
  </outline>
</glyph>
<glyph name="lambda" format="2">
  <advance width="555"/>
  <unicode hex="03BB"/>
  <outline>
    <contour>
      <point x="490" y="-8" type="curve" smooth="yes"/>
      <point x="436" y="-8"/>
      <point x="394" y="24"/>
      <point x="372" y="89" type="curve" smooth="yes"/>
      <point x="262" y="404" type="line"/>
      <point x="256" y="404" type="line"/>
      <point x="116" y="0" type="line"/>
      <point x="25" y="0" type="line"/>
      <point x="217" y="520" type="line"/>
      <point x="199" y="562" type="line" smooth="yes"/>
      <point x="171" y="635"/>
      <point x="142" y="650"/>
      <point x="74" y="633" type="curve"/>
      <point x="53" y="707" type="line"/>
      <point x="63" y="711"/>
      <point x="86" y="717"/>
      <point x="113" y="717" type="curve" smooth="yes"/>
      <point x="189" y="717"/>
      <point x="242" y="678"/>
      <point x="271" y="596" type="curve" smooth="yes"/>
      <point x="451" y="109" type="line" smooth="yes"/>
      <point x="458" y="90"/>
      <point x="466" y="69"/>
      <point x="492" y="69" type="curve" smooth="yes"/>
      <point x="512" y="70" type="line"/>
      <point x="529" y="-3" type="line"/>
      <point x="515" y="-6"/>
      <point x="503" y="-8"/>
    </contour>
  </outline>
</glyph>
<glyph name="uni03BC" format="2">
  <advance width="592"/>
  <unicode hex="03BC"/>
  <outline>
    <contour>
      <point x="67" y="-199" type="line"/>
      <point x="67" y="530" type="line"/>
      <point x="151" y="530" type="line"/>
      <point x="151" y="218" type="line" smooth="yes"/>
      <point x="151" y="132"/>
      <point x="209" y="74"/>
      <point x="296" y="74" type="curve" smooth="yes"/>
      <point x="384" y="74"/>
      <point x="442" y="133"/>
      <point x="442" y="218" type="curve" smooth="yes"/>
      <point x="442" y="530" type="line"/>
      <point x="526" y="530" type="line"/>
      <point x="526" y="0" type="line"/>
      <point x="442" y="0" type="line"/>
      <point x="442" y="79" type="line"/>
      <point x="438" y="79" type="line"/>
      <point x="410" y="22"/>
      <point x="356" y="-6"/>
      <point x="296" y="-6" type="curve" smooth="yes"/>
      <point x="237" y="-6"/>
      <point x="183" y="22"/>
      <point x="155" y="79" type="curve"/>
      <point x="151" y="79" type="line"/>
      <point x="151" y="-199" type="line"/>
    </contour>
  </outline>
</glyph>
<glyph name="nu" format="2">
  <advance width="550"/>
  <unicode hex="03BD"/>
  <outline>
    <contour>
      <point x="222" y="0" type="line"/>
      <point x="25" y="530" type="line"/>
      <point x="116" y="530" type="line"/>
      <point x="269" y="89" type="line"/>
      <point x="274" y="89" type="line"/>
      <point x="391" y="275"/>
      <point x="416" y="385"/>
      <point x="419" y="530" type="curve"/>
      <point x="504" y="530" type="line"/>
      <point x="503" y="352"/>
      <point x="438" y="169"/>
      <point x="307" y="0" type="curve"/>
    </contour>
  </outline>
</glyph>
<glyph name="xi" format="2">
  <advance width="511"/>
  <unicode hex="03BE"/>
  <outline>
    <contour>
      <point x="426" y="621" type="line"/>
      <point x="381" y="634"/>
      <point x="350" y="639"/>
      <point x="316" y="639" type="curve" smooth="yes"/>
      <point x="232" y="639"/>
      <point x="183" y="605"/>
      <point x="183" y="543" type="curve" smooth="yes"/>
      <point x="183" y="480"/>
      <point x="237" y="444"/>
      <point x="331" y="444" type="curve" smooth="yes"/>
      <point x="399" y="444" type="line"/>
      <point x="399" y="366" type="line"/>
      <point x="331" y="366" type="line" smooth="yes"/>
      <point x="215" y="366"/>
      <point x="152" y="317"/>
      <point x="152" y="216" type="curve" smooth="yes"/>
      <point x="152" y="143"/>
      <point x="195" y="93"/>
      <point x="277" y="73" type="curve" smooth="yes"/>
      <point x="331" y="61" type="line" smooth="yes"/>
      <point x="422" y="40"/>
      <point x="457" y="13"/>
      <point x="457" y="-39" type="curve" smooth="yes"/>
      <point x="456" y="-86"/>
      <point x="423" y="-143"/>
      <point x="371" y="-188" type="curve"/>
      <point x="315" y="-146" type="line"/>
      <point x="357" y="-101"/>
      <point x="364" y="-79"/>
      <point x="364" y="-62" type="curve" smooth="yes"/>
      <point x="364" y="-33"/>
      <point x="346" y="-21"/>
      <point x="293" y="-10" type="curve" smooth="yes"/>
      <point x="264" y="-3" type="line"/>
      <point x="120" y="27"/>
      <point x="55" y="93"/>
      <point x="55" y="206" type="curve" smooth="yes"/>
      <point x="55" y="310"/>
      <point x="106" y="377"/>
      <point x="202" y="407" type="curve"/>
      <point x="129" y="433"/>
      <point x="85" y="485"/>
      <point x="85" y="552" type="curve" smooth="yes"/>
      <point x="85" y="651"/>
      <point x="177" y="717"/>
      <point x="314" y="717" type="curve" smooth="yes"/>
      <point x="362" y="717"/>
      <point x="409" y="709"/>
      <point x="439" y="697" type="curve"/>
    </contour>
  </outline>
</glyph>
<glyph name="pi" format="2">
  <advance width="600"/>
  <unicode hex="03C0"/>
  <outline>
    <contour>
      <point x="551" y="530" type="line"/>
      <point x="551" y="453" type="line"/>
      <point x="474" y="453" type="line"/>
      <point x="474" y="133" type="line" smooth="yes"/>
      <point x="474" y="84"/>
      <point x="506" y="74"/>
      <point x="533" y="74" type="curve" smooth="yes"/>
      <point x="549" y="74"/>
      <point x="566" y="79"/>
      <point x="574" y="81" type="curve"/>
      <point x="574" y="4" type="line"/>
      <point x="560" y="0"/>
      <point x="536" y="-7"/>
      <point x="504" y="-7" type="curve" smooth="yes"/>
      <point x="438" y="-7"/>
      <point x="391" y="29"/>
      <point x="391" y="132" type="curve" smooth="yes"/>
      <point x="391" y="453" type="line"/>
      <point x="189" y="453" type="line"/>
      <point x="189" y="0" type="line"/>
      <point x="105" y="0" type="line"/>
      <point x="105" y="453" type="line"/>
      <point x="27" y="453" type="line"/>
      <point x="27" y="530" type="line"/>
    </contour>
  </outline>
</glyph>
<glyph name="rho" format="2">
  <advance width="541"/>
  <unicode hex="03C1"/>
  <outline>
    <contour>
      <point x="62" y="272" type="line" smooth="yes"/>
      <point x="62" y="450"/>
      <point x="154" y="537"/>
      <point x="277" y="537" type="curve" smooth="yes"/>
      <point x="418" y="537"/>
      <point x="500" y="422"/>
      <point x="500" y="248" type="curve" smooth="yes"/>
      <point x="500" y="238" type="line" smooth="yes"/>
      <point x="500" y="93"/>
      <point x="417" y="-10"/>
      <point x="284" y="-10" type="curve" smooth="yes"/>
      <point x="220" y="-10"/>
      <point x="177" y="15"/>
      <point x="145" y="57" type="curve"/>
      <point x="146" y="-197" type="line"/>
      <point x="62" y="-197" type="line"/>
    </contour>
    <contour>
      <point x="143" y="273" type="curve" smooth="yes"/>
      <point x="144" y="224" type="line" smooth="yes"/>
      <point x="147" y="157"/>
      <point x="181" y="65"/>
      <point x="279" y="65" type="curve" smooth="yes"/>
      <point x="371" y="65"/>
      <point x="413" y="145"/>
      <point x="413" y="238" type="curve" smooth="yes"/>
      <point x="413" y="248" type="line" smooth="yes"/>
      <point x="413" y="368"/>
      <point x="371" y="459"/>
      <point x="277" y="459" type="curve" smooth="yes"/>
      <point x="180" y="459"/>
      <point x="143" y="362"/>
    </contour>
  </outline>
</glyph>
<glyph name="sigma" format="2">
  <advance width="599"/>
  <unicode hex="03C3"/>
  <outline>
    <contour>
      <point x="49" y="263" type="line" smooth="yes"/>
      <point x="49" y="405"/>
      <point x="135" y="514"/>
      <point x="279" y="514" type="curve" smooth="yes"/>
      <point x="551" y="514" type="line"/>
      <point x="551" y="437" type="line"/>
      <point x="418" y="437" type="line"/>
      <point x="476" y="396"/>
      <point x="511" y="326"/>
      <point x="511" y="242" type="curve" smooth="yes"/>
      <point x="511" y="232" type="line" smooth="yes"/>
      <point x="511" y="107"/>
      <point x="426" y="-10"/>
      <point x="281" y="-10" type="curve" smooth="yes"/>
      <point x="135" y="-10"/>
      <point x="49" y="104"/>
      <point x="49" y="251" type="curve" smooth="yes"/>
    </contour>
    <contour>
      <point x="146" y="251" type="line" smooth="yes"/>
      <point x="146" y="152"/>
      <point x="186" y="67"/>
      <point x="281" y="67" type="curve" smooth="yes"/>
      <point x="374" y="67"/>
      <point x="413" y="152"/>
      <point x="413" y="251" type="curve" smooth="yes"/>
      <point x="413" y="263" type="line" smooth="yes"/>
      <point x="413" y="356"/>
      <point x="374" y="437"/>
      <point x="279" y="437" type="curve" smooth="yes"/>
      <point x="186" y="437"/>
      <point x="146" y="356"/>
      <point x="146" y="263" type="curve" smooth="yes"/>
    </contour>
  </outline>
</glyph>
<glyph name="tau" format="2">
  <advance width="445"/>
  <unicode hex="03C4"/>
  <outline>
    <contour>
      <point x="439" y="530" type="line"/>
      <point x="439" y="453" type="line"/>
      <point x="260" y="453" type="line"/>
      <point x="260" y="130" type="line" smooth="yes"/>
      <point x="260" y="69"/>
      <point x="290" y="69"/>
      <point x="312" y="69" type="curve" smooth="yes"/>
      <point x="329" y="69"/>
      <point x="345" y="77"/>
      <point x="354" y="84" type="curve"/>
      <point x="377" y="18" type="line"/>
      <point x="346" y="-5"/>
      <point x="317" y="-10"/>
      <point x="287" y="-10" type="curve" smooth="yes"/>
      <point x="214" y="-10"/>
      <point x="176" y="31"/>
      <point x="176" y="134" type="curve" smooth="yes"/>
      <point x="176" y="453" type="line"/>
      <point x="6" y="453" type="line"/>
      <point x="6" y="530" type="line"/>
    </contour>
  </outline>
</glyph>
<glyph name="upsilon" format="2">
  <advance width="555"/>
  <unicode hex="03C5"/>
  <outline>
    <contour>
      <point x="67" y="530" type="line"/>
      <point x="151" y="530" type="line"/>
      <point x="151" y="204" type="line" smooth="yes"/>
      <point x="151" y="102"/>
      <point x="202" y="66"/>
      <point x="257" y="66" type="curve" smooth="yes"/>
      <point x="345" y="66"/>
      <point x="406" y="157"/>
      <point x="406" y="270" type="curve"/>
      <point x="404" y="348"/>
      <point x="377" y="451"/>
      <point x="346" y="530" type="curve"/>
      <point x="433" y="530" type="line"/>
      <point x="462" y="472"/>
      <point x="488" y="363"/>
      <point x="488" y="270" type="curve" smooth="yes"/>
      <point x="488" y="124"/>
      <point x="421" y="-10"/>
      <point x="260" y="-10" type="curve" smooth="yes"/>
      <point x="146" y="-10"/>
      <point x="67" y="57"/>
      <point x="67" y="206" type="curve" smooth="yes"/>
    </contour>
  </outline>
</glyph>
<glyph name="phi" format="2">
  <advance width="699"/>
  <unicode hex="03C6"/>
  <outline>
    <contour>
      <point x="304" y="427" type="line" smooth="yes"/>
      <point x="304" y="504"/>
      <point x="346" y="537"/>
      <point x="422" y="537" type="curve" smooth="yes"/>
      <point x="553" y="537"/>
      <point x="657" y="423"/>
      <point x="657" y="270" type="curve" smooth="yes"/>
      <point x="657" y="133"/>
      <point x="584" y="7"/>
      <point x="388" y="-8" type="curve"/>
      <point x="388" y="-199" type="line"/>
      <point x="304" y="-199" type="line"/>
      <point x="304" y="-8" type="line"/>
      <point x="112" y="8"/>
      <point x="42" y="133"/>
      <point x="42" y="280" type="curve" smooth="yes"/>
      <point x="42" y="390"/>
      <point x="82" y="482"/>
      <point x="161" y="537" type="curve"/>
      <point x="212" y="475" type="line"/>
      <point x="157" y="426"/>
      <point x="129" y="364"/>
      <point x="126" y="280" type="curve"/>
      <point x="126" y="182"/>
      <point x="179" y="87"/>
      <point x="304" y="70" type="curve"/>
    </contour>
    <contour>
      <point x="388" y="70" type="line"/>
      <point x="517" y="86"/>
      <point x="573" y="179"/>
      <point x="573" y="270" type="curve"/>
      <point x="570" y="374"/>
      <point x="515" y="463"/>
      <point x="422" y="463" type="curve" smooth="yes"/>
      <point x="399" y="463"/>
      <point x="388" y="448"/>
      <point x="388" y="429" type="curve" smooth="yes"/>
    </contour>
  </outline>
</glyph>
<glyph name="chi" format="2">
  <advance width="569"/>
  <unicode hex="03C7"/>
  <outline>
    <contour>
      <point x="61" y="-199" type="line"/>
      <point x="256" y="169" type="line"/>
      <point x="134" y="401" type="line" smooth="yes"/>
      <point x="105" y="456"/>
      <point x="103" y="459"/>
      <point x="55" y="459" type="curve" smooth="yes"/>
      <point x="34" y="459" type="line"/>
      <point x="34" y="536" type="line"/>
      <point x="55" y="536" type="line" smooth="yes"/>
      <point x="134" y="536"/>
      <point x="161" y="518"/>
      <point x="203" y="438" type="curve" smooth="yes"/>
      <point x="301" y="249" type="line"/>
      <point x="451" y="530" type="line"/>
      <point x="540" y="530" type="line"/>
      <point x="345" y="169" type="line"/>
      <point x="466" y="-70" type="line" smooth="yes"/>
      <point x="489" y="-118"/>
      <point x="499" y="-121"/>
      <point x="545" y="-121" type="curve" smooth="yes"/>
      <point x="565" y="-121" type="line"/>
      <point x="565" y="-199" type="line"/>
      <point x="545" y="-199" type="line" smooth="yes"/>
      <point x="466" y="-199"/>
      <point x="435" y="-183"/>
      <point x="396" y="-106" type="curve" smooth="yes"/>
      <point x="299" y="89" type="line"/>
      <point x="149" y="-199" type="line"/>
    </contour>
  </outline>
</glyph>
<glyph name="psi" format="2">
  <advance width="714"/>
  <unicode hex="03C8"/>
  <outline>
    <contour>
      <point x="67" y="530" type="line"/>
      <point x="151" y="530" type="line"/>
      <point x="151" y="283" type="line" smooth="yes"/>
      <point x="151" y="141"/>
      <point x="230" y="80"/>
      <point x="327" y="69" type="curve"/>
      <point x="327" y="530" type="line"/>
      <point x="411" y="530" type="line"/>
      <point x="411" y="71" type="line"/>
      <point x="535" y="90"/>
      <point x="589" y="184"/>
      <point x="589" y="271" type="curve"/>
      <point x="586" y="354"/>
      <point x="562" y="451"/>
      <point x="529" y="530" type="curve"/>
      <point x="618" y="530" type="line"/>
      <point x="646" y="472"/>
      <point x="673" y="375"/>
      <point x="673" y="271" type="curve" smooth="yes"/>
      <point x="673" y="134"/>
      <point x="604" y="9"/>
      <point x="411" y="-8" type="curve"/>
      <point x="411" y="-227" type="line"/>
      <point x="327" y="-227" type="line"/>
      <point x="327" y="-8" type="line"/>
      <point x="166" y="4"/>
      <point x="67" y="95"/>
      <point x="67" y="283" type="curve" smooth="yes"/>
    </contour>
  </outline>
</glyph>
<glyph name="omega" format="2">
  <advance width="775"/>
  <unicode hex="03C9"/>
  <outline>
    <contour>
      <point x="212" y="530" type="line"/>
      <point x="146" y="416"/>
      <point x="131" y="348"/>
      <point x="131" y="263" type="curve" smooth="yes"/>
      <point x="131" y="140"/>
      <point x="173" y="67"/>
      <point x="240" y="67" type="curve" smooth="yes"/>
      <point x="301" y="67"/>
      <point x="339" y="122"/>
      <point x="339" y="225" type="curve" smooth="yes"/>
      <point x="339" y="384" type="line"/>
      <point x="437" y="384" type="line"/>
      <point x="437" y="225" type="line" smooth="yes"/>
      <point x="437" y="122"/>
      <point x="475" y="67"/>
      <point x="535" y="67" type="curve" smooth="yes"/>
      <point x="602" y="67"/>
      <point x="645" y="140"/>
      <point x="645" y="263" type="curve" smooth="yes"/>
      <point x="645" y="348"/>
      <point x="630" y="416"/>
      <point x="563" y="530" type="curve"/>
      <point x="658" y="530" type="line"/>
      <point x="708" y="451"/>
      <point x="732" y="365"/>
      <point x="732" y="270" type="curve" smooth="yes"/>
      <point x="732" y="93"/>
      <point x="662" y="-10"/>
      <point x="542" y="-10" type="curve" smooth="yes"/>
      <point x="466" y="-10"/>
      <point x="413" y="29"/>
      <point x="388" y="104" type="curve"/>
      <point x="363" y="29"/>
      <point x="309" y="-10"/>
      <point x="233" y="-10" type="curve" smooth="yes"/>
      <point x="114" y="-10"/>
      <point x="44" y="93"/>
      <point x="44" y="270" type="curve" smooth="yes"/>
      <point x="44" y="365"/>
      <point x="67" y="451"/>
      <point x="117" y="530" type="curve"/>
    </contour>
  </outline>
</glyph>
<glyph name="uni0411" format="2">
  <advance width="626"/>
  <unicode hex="0411"/>
  <outline>
    <contour>
      <point x="78" y="0" type="line"/>
      <point x="78" y="707" type="line"/>
      <point x="506" y="707" type="line"/>
      <point x="506" y="629" type="line"/>
      <point x="166" y="629" type="line"/>
      <point x="166" y="411" type="line"/>
      <point x="343" y="411" type="line" smooth="yes"/>
      <point x="496" y="411"/>
      <point x="579" y="333"/>
      <point x="579" y="209" type="curve" smooth="yes"/>
      <point x="579" y="86"/>
      <point x="496" y="0"/>
      <point x="343" y="0" type="curve" smooth="yes"/>
    </contour>
    <contour>
      <point x="343" y="76" type="line" smooth="yes"/>
      <point x="440" y="76"/>
      <point x="492" y="143"/>
      <point x="492" y="211" type="curve" smooth="yes"/>
      <point x="492" y="277"/>
      <point x="440" y="334"/>
      <point x="343" y="334" type="curve" smooth="yes"/>
      <point x="166" y="334" type="line"/>
      <point x="166" y="76" type="line"/>
    </contour>
  </outline>
</glyph>
<glyph name="uni0413" format="2">
  <advance width="545"/>
  <unicode hex="0413"/>
  <outline>
    <contour>
      <point x="506" y="707" type="line"/>
      <point x="506" y="629" type="line"/>
      <point x="166" y="629" type="line"/>
      <point x="166" y="0" type="line"/>
      <point x="78" y="0" type="line"/>
      <point x="78" y="707" type="line"/>
    </contour>
  </outline>
</glyph>
<glyph name="uni0414" format="2">
  <advance width="713"/>
  <unicode hex="0414"/>
  <outline>
    <contour>
      <point x="18" y="-171" type="line"/>
      <point x="18" y="78" type="line"/>
      <point x="62" y="78" type="line"/>
      <point x="109" y="120"/>
      <point x="152" y="206"/>
      <point x="162" y="409" type="curve" smooth="yes"/>
      <point x="178" y="707" type="line"/>
      <point x="600" y="707" type="line"/>
      <point x="600" y="78" type="line"/>
      <point x="681" y="78" type="line"/>
      <point x="681" y="-170" type="line"/>
      <point x="597" y="-170" type="line"/>
      <point x="597" y="0" type="line"/>
      <point x="102" y="0" type="line"/>
      <point x="102" y="-171" type="line"/>
    </contour>
    <contour>
      <point x="168" y="78" type="curve"/>
      <point x="516" y="78" type="line"/>
      <point x="516" y="629" type="line"/>
      <point x="258" y="629" type="line"/>
      <point x="246" y="409" type="line" smooth="yes"/>
      <point x="238" y="255"/>
      <point x="211" y="145"/>
    </contour>
  </outline>
</glyph>
<glyph name="uni0416" format="2">
  <advance width="913"/>
  <unicode hex="0416"/>
  <outline>
    <contour>
      <point x="501" y="707" type="line"/>
      <point x="501" y="395" type="line"/>
      <point x="587" y="395" type="line"/>
      <point x="771" y="707" type="line"/>
      <point x="876" y="707" type="line"/>
      <point x="666" y="367" type="line"/>
      <point x="895" y="0" type="line"/>
      <point x="793" y="0" type="line"/>
      <point x="603" y="312" type="line"/>
      <point x="501" y="312" type="line"/>
      <point x="501" y="0" type="line"/>
      <point x="412" y="0" type="line"/>
      <point x="412" y="312" type="line"/>
      <point x="311" y="312" type="line"/>
      <point x="119" y="0" type="line"/>
      <point x="19" y="0" type="line"/>
      <point x="248" y="369" type="line"/>
      <point x="38" y="707" type="line"/>
      <point x="145" y="707" type="line"/>
      <point x="327" y="395" type="line"/>
      <point x="412" y="395" type="line"/>
      <point x="412" y="707" type="line"/>
    </contour>
  </outline>
</glyph>
<glyph name="uni0417" format="2">
  <advance width="617"/>
  <unicode hex="0417"/>
  <outline>
    <contour>
      <point x="311" y="-10" type="curve" smooth="yes"/>
      <point x="170" y="-10"/>
      <point x="69" y="66"/>
      <point x="64" y="178" type="curve"/>
      <point x="153" y="178" type="line"/>
      <point x="158" y="111"/>
      <point x="226" y="68"/>
      <point x="310" y="68" type="curve" smooth="yes"/>
      <point x="403" y="68"/>
      <point x="471" y="119"/>
      <point x="471" y="192" type="curve" smooth="yes"/>
      <point x="471" y="269"/>
      <point x="409" y="324"/>
      <point x="299" y="324" type="curve" smooth="yes"/>
      <point x="241" y="324" type="line"/>
      <point x="241" y="401" type="line"/>
      <point x="299" y="401" type="line" smooth="yes"/>
      <point x="385" y="401"/>
      <point x="444" y="449"/>
      <point x="444" y="522" type="curve" smooth="yes"/>
      <point x="444" y="592"/>
      <point x="392" y="641"/>
      <point x="312" y="641" type="curve" smooth="yes"/>
      <point x="237" y="641"/>
      <point x="168" y="598"/>
      <point x="164" y="529" type="curve"/>
      <point x="79" y="529" type="line"/>
      <point x="84" y="641"/>
      <point x="187" y="717"/>
      <point x="313" y="717" type="curve" smooth="yes"/>
      <point x="448" y="717"/>
      <point x="530" y="629"/>
      <point x="529" y="527" type="curve" smooth="yes"/>
      <point x="530" y="447"/>
      <point x="483" y="388"/>
      <point x="409" y="367" type="curve"/>
      <point x="409" y="362" type="line"/>
      <point x="501" y="347"/>
      <point x="558" y="282"/>
      <point x="557" y="192" type="curve" smooth="yes"/>
      <point x="558" y="76"/>
      <point x="452" y="-10"/>
    </contour>
  </outline>
</glyph>
<glyph name="uni0418" format="2">
  <advance width="717"/>
  <unicode hex="0418"/>
  <outline>
    <contour>
      <point x="78" y="707" type="line"/>
      <point x="165" y="707" type="line"/>
      <point x="165" y="155" type="line"/>
      <point x="171" y="155" type="line"/>
      <point x="556" y="707" type="line"/>
      <point x="640" y="707" type="line"/>
      <point x="640" y="0" type="line"/>
      <point x="552" y="0" type="line"/>
      <point x="552" y="551" type="line"/>
      <point x="545" y="551" type="line"/>
      <point x="162" y="0" type="line"/>
      <point x="78" y="0" type="line"/>
    </contour>
  </outline>
</glyph>
<glyph name="uni0419" format="2">
  <advance width="717"/>
  <unicode hex="0419"/>
  <outline>
    <contour>
      <point x="78" y="707" type="line"/>
      <point x="165" y="707" type="line"/>
      <point x="165" y="155" type="line"/>
      <point x="171" y="155" type="line"/>
      <point x="556" y="707" type="line"/>
      <point x="640" y="707" type="line"/>
      <point x="640" y="0" type="line"/>
      <point x="552" y="0" type="line"/>
      <point x="552" y="551" type="line"/>
      <point x="545" y="551" type="line"/>
      <point x="162" y="0" type="line"/>
      <point x="78" y="0" type="line"/>
    </contour>
    <contour>
      <point x="505" y="884" type="line"/>
      <point x="505" y="810"/>
      <point x="448" y="757"/>
      <point x="359" y="757" type="curve" smooth="yes"/>
      <point x="271" y="757"/>
      <point x="216" y="810"/>
      <point x="216" y="884" type="curve"/>
      <point x="293" y="884" type="line"/>
      <point x="293" y="849"/>
      <point x="311" y="817"/>
      <point x="359" y="817" type="curve" smooth="yes"/>
      <point x="408" y="817"/>
      <point x="427" y="849"/>
      <point x="427" y="884" type="curve"/>
    </contour>
  </outline>
</glyph>
<glyph name="uni041A" format="2">
  <advance width="617"/>
  <unicode hex="041A"/>
  <outline>
    <contour>
      <point x="494" y="0" type="line"/>
      <point x="230" y="324" type="line"/>
      <point x="166" y="324" type="line"/>
      <point x="166" y="0" type="line"/>
      <point x="78" y="0" type="line"/>
      <point x="78" y="707" type="line"/>
      <point x="166" y="707" type="line"/>
      <point x="166" y="401" type="line"/>
      <point x="230" y="401" type="line"/>
      <point x="484" y="707" type="line"/>
      <point x="590" y="707" type="line"/>
      <point x="305" y="362" type="line"/>
      <point x="600" y="0" type="line"/>
    </contour>
  </outline>
</glyph>
<glyph name="uni041B" format="2">
  <advance width="680"/>
  <unicode hex="041B"/>
  <outline>
    <contour>
      <point x="18" y="0" type="line"/>
      <point x="18" y="80" type="line"/>
      <point x="38" y="81" type="line"/>
      <point x="126" y="81"/>
      <point x="149" y="159"/>
      <point x="157" y="367" type="curve" smooth="yes"/>
      <point x="169" y="707" type="line"/>
      <point x="603" y="707" type="line"/>
      <point x="603" y="0" type="line"/>
      <point x="514" y="0" type="line"/>
      <point x="514" y="629" type="line"/>
      <point x="253" y="629" type="line"/>
      <point x="242" y="350" type="line" smooth="yes"/>
      <point x="232" y="126"/>
      <point x="201" y="0"/>
      <point x="44" y="0" type="curve" smooth="yes"/>
    </contour>
  </outline>
</glyph>
<glyph name="uni041D" format="2">
  <advance width="706"/>
  <unicode hex="041D"/>
  <outline>
    <contour>
      <point x="78" y="0" type="line"/>
      <point x="78" y="707" type="line"/>
      <point x="166" y="707" type="line"/>
      <point x="166" y="393" type="line"/>
      <point x="540" y="393" type="line"/>
      <point x="540" y="707" type="line"/>
      <point x="629" y="707" type="line"/>
      <point x="629" y="0" type="line"/>
      <point x="540" y="0" type="line"/>
      <point x="540" y="315" type="line"/>
      <point x="166" y="315" type="line"/>
      <point x="166" y="0" type="line"/>
    </contour>
  </outline>
</glyph>
<glyph name="uni041F" format="2">
  <advance width="688"/>
  <unicode hex="041F"/>
  <outline>
    <contour>
      <point x="609" y="707" type="line"/>
      <point x="609" y="0" type="line"/>
      <point x="521" y="0" type="line"/>
      <point x="521" y="629" type="line"/>
      <point x="167" y="629" type="line"/>
      <point x="167" y="0" type="line"/>
      <point x="79" y="0" type="line"/>
      <point x="79" y="707" type="line"/>
    </contour>
  </outline>
</glyph>
<glyph name="uni0421" format="2">
  <advance width="693"/>
  <unicode hex="0421"/>
  <outline>
    <contour>
      <point x="561" y="484" type="line"/>
      <point x="540" y="582"/>
      <point x="456" y="635"/>
      <point x="363" y="635" type="curve" smooth="yes"/>
      <point x="235" y="635"/>
      <point x="136" y="537"/>
      <point x="136" y="354" type="curve" smooth="yes"/>
      <point x="136" y="171"/>
      <point x="235" y="72"/>
      <point x="363" y="72" type="curve" smooth="yes"/>
      <point x="456" y="72"/>
      <point x="540" y="125"/>
      <point x="561" y="222" type="curve"/>
      <point x="648" y="222" type="line"/>
      <point x="623" y="77"/>
      <point x="507" y="-10"/>
      <point x="363" y="-10" type="curve" smooth="yes"/>
      <point x="181" y="-10"/>
      <point x="51" y="130"/>
      <point x="51" y="354" type="curve" smooth="yes"/>
      <point x="51" y="578"/>
      <point x="181" y="717"/>
      <point x="363" y="717" type="curve" smooth="yes"/>
      <point x="506" y="717"/>
      <point x="622" y="630"/>
      <point x="648" y="484" type="curve"/>
    </contour>
  </outline>
</glyph>
<glyph name="uni0423" format="2">
  <advance width="592"/>
  <unicode hex="0423"/>
  <outline>
    <contour>
      <point x="116" y="-10" type="line"/>
      <point x="116" y="72" type="line"/>
      <point x="160" y="72" type="line" smooth="yes"/>
      <point x="211" y="72"/>
      <point x="236" y="107"/>
      <point x="251" y="141" type="curve" smooth="yes"/>
      <point x="263" y="167" type="line"/>
      <point x="18" y="707" type="line"/>
      <point x="112" y="707" type="line"/>
      <point x="306" y="271" type="line"/>
      <point x="482" y="707" type="line"/>
      <point x="576" y="707" type="line"/>
      <point x="331" y="115" type="line" smooth="yes"/>
      <point x="303" y="49"/>
      <point x="270" y="-10"/>
      <point x="161" y="-10" type="curve" smooth="yes"/>
    </contour>
  </outline>
</glyph>
<glyph name="uni0424" format="2">
  <advance width="757"/>
  <unicode hex="0424"/>
  <outline>
    <contour>
      <point x="436" y="623" type="line" smooth="yes"/>
      <point x="593" y="623"/>
      <point x="707" y="510"/>
      <point x="707" y="344" type="curve" smooth="yes"/>
      <point x="707" y="178"/>
      <point x="593" y="63"/>
      <point x="436" y="63" type="curve" smooth="yes"/>
      <point x="424" y="63" type="line"/>
      <point x="424" y="-29" type="line"/>
      <point x="335" y="-29" type="line"/>
      <point x="335" y="63" type="line"/>
      <point x="322" y="63" type="line" smooth="yes"/>
      <point x="164" y="63"/>
      <point x="51" y="177"/>
      <point x="51" y="343" type="curve" smooth="yes"/>
      <point x="51" y="509"/>
      <point x="164" y="623"/>
      <point x="322" y="623" type="curve" smooth="yes"/>
      <point x="335" y="623" type="line"/>
      <point x="335" y="720" type="line"/>
      <point x="424" y="720" type="line"/>
      <point x="424" y="623" type="line"/>
    </contour>
    <contour>
      <point x="322" y="546" type="line" smooth="yes"/>
      <point x="203" y="546"/>
      <point x="138" y="466"/>
      <point x="138" y="343" type="curve" smooth="yes"/>
      <point x="138" y="221"/>
      <point x="203" y="142"/>
      <point x="322" y="142" type="curve" smooth="yes"/>
      <point x="335" y="142" type="line"/>
      <point x="335" y="546" type="line"/>
    </contour>
    <contour>
      <point x="424" y="142" type="line"/>
      <point x="436" y="142" type="line" smooth="yes"/>
      <point x="555" y="142"/>
      <point x="619" y="221"/>
      <point x="619" y="344" type="curve" smooth="yes"/>
      <point x="619" y="466"/>
      <point x="555" y="546"/>
      <point x="436" y="546" type="curve" smooth="yes"/>
      <point x="424" y="546" type="line"/>
    </contour>
  </outline>
</glyph>
<glyph name="uni0426" format="2">
  <advance width="714"/>
  <unicode hex="0426"/>
  <outline>
    <contour>
      <point x="682" y="83" type="line"/>
      <point x="672" y="-167" type="line"/>
      <point x="581" y="-167" type="line"/>
      <point x="581" y="0" type="line"/>
      <point x="78" y="0" type="line"/>
      <point x="78" y="707" type="line"/>
      <point x="161" y="707" type="line"/>
      <point x="161" y="80" type="line"/>
      <point x="523" y="80" type="line"/>
      <point x="523" y="707" type="line"/>
      <point x="607" y="707" type="line"/>
      <point x="607" y="83" type="line"/>
    </contour>
  </outline>
</glyph>
<glyph name="uni0427" format="2">
  <advance width="681"/>
  <unicode hex="0427"/>
  <outline>
    <contour>
      <point x="85" y="707" type="line"/>
      <point x="173" y="707" type="line"/>
      <point x="173" y="471" type="line" smooth="yes"/>
      <point x="173" y="367"/>
      <point x="229" y="336"/>
      <point x="322" y="336" type="curve" smooth="yes"/>
      <point x="392" y="336"/>
      <point x="457" y="346"/>
      <point x="516" y="364" type="curve"/>
      <point x="516" y="707" type="line"/>
      <point x="604" y="707" type="line"/>
      <point x="604" y="0" type="line"/>
      <point x="516" y="0" type="line"/>
      <point x="516" y="285" type="line"/>
      <point x="459" y="267"/>
      <point x="405" y="256"/>
      <point x="322" y="256" type="curve" smooth="yes"/>
      <point x="174" y="256"/>
      <point x="85" y="315"/>
      <point x="85" y="471" type="curve" smooth="yes"/>
    </contour>
  </outline>
</glyph>
<glyph name="uni0428" format="2">
  <advance width="914"/>
  <unicode hex="0428"/>
  <outline>
    <contour>
      <point x="78" y="707" type="line"/>
      <point x="166" y="707" type="line"/>
      <point x="166" y="80" type="line"/>
      <point x="413" y="80" type="line"/>
      <point x="413" y="707" type="line"/>
      <point x="501" y="707" type="line"/>
      <point x="501" y="80" type="line"/>
      <point x="747" y="80" type="line"/>
      <point x="747" y="707" type="line"/>
      <point x="836" y="707" type="line"/>
      <point x="836" y="0" type="line"/>
      <point x="78" y="0" type="line"/>
    </contour>
  </outline>
</glyph>
<glyph name="uni0429" format="2">
  <advance width="938"/>
  <unicode hex="0429"/>
  <outline>
    <contour>
      <point x="905" y="77" type="line"/>
      <point x="896" y="-167" type="line"/>
      <point x="810" y="-167" type="line"/>
      <point x="810" y="0" type="line"/>
      <point x="78" y="0" type="line"/>
      <point x="78" y="707" type="line"/>
      <point x="166" y="707" type="line"/>
      <point x="166" y="80" type="line"/>
      <point x="413" y="80" type="line"/>
      <point x="413" y="707" type="line"/>
      <point x="501" y="707" type="line"/>
      <point x="501" y="80" type="line"/>
      <point x="747" y="80" type="line"/>
      <point x="747" y="707" type="line"/>
      <point x="836" y="707" type="line"/>
      <point x="836" y="77" type="line"/>
    </contour>
  </outline>
</glyph>
<glyph name="uni042A" format="2">
  <advance width="777"/>
  <unicode hex="042A"/>
  <outline>
    <contour>
      <point x="39" y="630" type="line"/>
      <point x="39" y="707" type="line"/>
      <point x="321" y="707" type="line"/>
      <point x="321" y="411" type="line"/>
      <point x="498" y="411" type="line" smooth="yes"/>
      <point x="651" y="411"/>
      <point x="734" y="333"/>
      <point x="734" y="209" type="curve" smooth="yes"/>
      <point x="734" y="86"/>
      <point x="651" y="0"/>
      <point x="498" y="0" type="curve" smooth="yes"/>
      <point x="233" y="0" type="line"/>
      <point x="233" y="630" type="line"/>
    </contour>
    <contour>
      <point x="321" y="76" type="line"/>
      <point x="498" y="76" type="line" smooth="yes"/>
      <point x="595" y="76"/>
      <point x="647" y="143"/>
      <point x="647" y="211" type="curve" smooth="yes"/>
      <point x="647" y="277"/>
      <point x="595" y="334"/>
      <point x="498" y="334" type="curve" smooth="yes"/>
      <point x="321" y="334" type="line"/>
    </contour>
  </outline>
</glyph>
<glyph name="uni042B" format="2">
  <advance width="814"/>
  <unicode hex="042B"/>
  <outline>
    <contour>
      <point x="343" y="411" type="line" smooth="yes"/>
      <point x="496" y="411"/>
      <point x="579" y="333"/>
      <point x="579" y="209" type="curve" smooth="yes"/>
      <point x="579" y="86"/>
      <point x="496" y="0"/>
      <point x="343" y="0" type="curve" smooth="yes"/>
      <point x="78" y="0" type="line"/>
      <point x="78" y="707" type="line"/>
      <point x="166" y="707" type="line"/>
      <point x="166" y="411" type="line"/>
    </contour>
    <contour>
      <point x="736" y="707" type="line"/>
      <point x="736" y="0" type="line"/>
      <point x="648" y="0" type="line"/>
      <point x="648" y="707" type="line"/>
    </contour>
    <contour>
      <point x="166" y="76" type="line"/>
      <point x="343" y="76" type="line" smooth="yes"/>
      <point x="440" y="76"/>
      <point x="492" y="143"/>
      <point x="492" y="211" type="curve" smooth="yes"/>
      <point x="492" y="277"/>
      <point x="440" y="334"/>
      <point x="343" y="334" type="curve" smooth="yes"/>
      <point x="166" y="334" type="line"/>
    </contour>
  </outline>
</glyph>
<glyph name="uni042D" format="2">
  <advance width="637"/>
  <unicode hex="042D"/>
  <outline>
    <contour>
      <point x="141" y="222" type="line"/>
      <point x="157" y="123"/>
      <point x="201" y="68"/>
      <point x="314" y="68" type="curve" smooth="yes"/>
      <point x="433" y="68"/>
      <point x="494" y="176"/>
      <point x="497" y="306" type="curve"/>
      <point x="221" y="306" type="line"/>
      <point x="221" y="383" type="line"/>
      <point x="497" y="383" type="line"/>
      <point x="497" y="392" type="line" smooth="yes"/>
      <point x="497" y="538"/>
      <point x="426" y="638"/>
      <point x="307" y="638" type="curve" smooth="yes"/>
      <point x="203" y="638"/>
      <point x="155" y="580"/>
      <point x="141" y="482" type="curve"/>
      <point x="51" y="482" type="line"/>
      <point x="65" y="618"/>
      <point x="148" y="717"/>
      <point x="307" y="717" type="curve" smooth="yes"/>
      <point x="480" y="717"/>
      <point x="588" y="589"/>
      <point x="588" y="393" type="curve" smooth="yes"/>
      <point x="588" y="312" type="line" smooth="yes"/>
      <point x="588" y="117"/>
      <point x="479" y="-10"/>
      <point x="314" y="-10" type="curve" smooth="yes"/>
      <point x="146" y="-10"/>
      <point x="65" y="91"/>
      <point x="51" y="222" type="curve"/>
    </contour>
  </outline>
</glyph>
<glyph name="uni042E" format="2">
  <advance width="970"/>
  <unicode hex="042E"/>
  <outline>
    <contour>
      <point x="166" y="707" type="line"/>
      <point x="166" y="385" type="line"/>
      <point x="296" y="385" type="line"/>
      <point x="308" y="590"/>
      <point x="434" y="717"/>
      <point x="607" y="717" type="curve" smooth="yes"/>
      <point x="788" y="717"/>
      <point x="920" y="578"/>
      <point x="920" y="354" type="curve" smooth="yes"/>
      <point x="920" y="130"/>
      <point x="788" y="-10"/>
      <point x="607" y="-10" type="curve" smooth="yes"/>
      <point x="438" y="-10"/>
      <point x="314" y="111"/>
      <point x="297" y="308" type="curve"/>
      <point x="166" y="308" type="line"/>
      <point x="166" y="0" type="line"/>
      <point x="78" y="0" type="line"/>
      <point x="78" y="707" type="line"/>
    </contour>
    <contour>
      <point x="835" y="354" type="curve" smooth="yes"/>
      <point x="835" y="537"/>
      <point x="735" y="635"/>
      <point x="607" y="635" type="curve" smooth="yes"/>
      <point x="479" y="635"/>
      <point x="380" y="537"/>
      <point x="380" y="354" type="curve" smooth="yes"/>
      <point x="380" y="171"/>
      <point x="479" y="72"/>
      <point x="607" y="72" type="curve" smooth="yes"/>
      <point x="735" y="72"/>
      <point x="835" y="171"/>
    </contour>
  </outline>
</glyph>
<glyph name="uni042F" format="2">
  <advance width="638"/>
  <unicode hex="042F"/>
  <outline>
    <contour>
      <point x="561" y="0" type="line"/>
      <point x="473" y="0" type="line"/>
      <point x="473" y="274" type="line"/>
      <point x="319" y="274" type="line"/>
      <point x="303" y="275" type="line"/>
      <point x="154" y="0" type="line"/>
      <point x="52" y="0" type="line"/>
      <point x="211" y="291" type="line"/>
      <point x="121" y="322"/>
      <point x="79" y="396"/>
      <point x="79" y="489" type="curve" smooth="yes"/>
      <point x="79" y="615"/>
      <point x="154" y="707"/>
      <point x="320" y="707" type="curve" smooth="yes"/>
      <point x="561" y="707" type="line"/>
    </contour>
    <contour>
      <point x="166" y="489" type="curve" smooth="yes"/>
      <point x="166" y="405"/>
      <point x="211" y="354"/>
      <point x="323" y="354" type="curve" smooth="yes"/>
      <point x="473" y="354" type="line"/>
      <point x="473" y="629" type="line"/>
      <point x="324" y="629" type="line" smooth="yes"/>
      <point x="211" y="629"/>
      <point x="166" y="574"/>
    </contour>
  </outline>
</glyph>
<glyph name="uni0431" format="2">
  <advance width="560"/>
  <unicode hex="0431"/>
  <outline>
    <contour>
      <point x="504" y="678" type="line"/>
      <point x="456" y="631"/>
      <point x="386" y="633"/>
      <point x="288" y="629" type="curve" smooth="yes"/>
      <point x="177" y="625"/>
      <point x="126" y="553"/>
      <point x="114" y="416" type="curve"/>
      <point x="121" y="416" type="line"/>
      <point x="157" y="482"/>
      <point x="225" y="513"/>
      <point x="299" y="513" type="curve" smooth="yes"/>
      <point x="423" y="513"/>
      <point x="518" y="425"/>
      <point x="518" y="258" type="curve" smooth="yes"/>
      <point x="518" y="92"/>
      <point x="424" y="-11"/>
      <point x="281" y="-11" type="curve" smooth="yes"/>
      <point x="137" y="-11"/>
      <point x="42" y="91"/>
      <point x="42" y="287" type="curve" smooth="yes"/>
      <point x="42" y="343" type="line" smooth="yes"/>
      <point x="42" y="580"/>
      <point x="124" y="703"/>
      <point x="286" y="707" type="curve" smooth="yes"/>
      <point x="371" y="710"/>
      <point x="428" y="700"/>
      <point x="463" y="729" type="curve"/>
    </contour>
    <contour>
      <point x="281" y="63" type="curve" smooth="yes"/>
      <point x="376" y="63"/>
      <point x="434" y="140"/>
      <point x="434" y="258" type="curve" smooth="yes"/>
      <point x="434" y="373"/>
      <point x="376" y="438"/>
      <point x="279" y="438" type="curve" smooth="yes"/>
      <point x="185" y="438"/>
      <point x="129" y="373"/>
      <point x="126" y="258" type="curve"/>
      <point x="126" y="141"/>
      <point x="185" y="63"/>
    </contour>
  </outline>
</glyph>
<glyph name="uni0432" format="2">
  <advance width="534"/>
  <unicode hex="0432"/>
  <outline>
    <contour>
      <point x="67" y="0" type="line"/>
      <point x="67" y="530" type="line"/>
      <point x="284" y="530" type="line" smooth="yes"/>
      <point x="399" y="530"/>
      <point x="472" y="475"/>
      <point x="472" y="390" type="curve" smooth="yes"/>
      <point x="472" y="326"/>
      <point x="430" y="291"/>
      <point x="369" y="279" type="curve"/>
      <point x="429" y="270"/>
      <point x="492" y="226"/>
      <point x="492" y="143" type="curve" smooth="yes"/>
      <point x="492" y="61"/>
      <point x="425" y="0"/>
      <point x="317" y="0" type="curve" smooth="yes"/>
    </contour>
    <contour>
      <point x="317" y="76" type="line" smooth="yes"/>
      <point x="373" y="76"/>
      <point x="406" y="104"/>
      <point x="406" y="149" type="curve" smooth="yes"/>
      <point x="406" y="204"/>
      <point x="373" y="237"/>
      <point x="317" y="237" type="curve" smooth="yes"/>
      <point x="147" y="237" type="line"/>
      <point x="147" y="76" type="line"/>
    </contour>
    <contour>
      <point x="284" y="308" type="line" smooth="yes"/>
      <point x="348" y="308"/>
      <point x="388" y="336"/>
      <point x="388" y="383" type="curve" smooth="yes"/>
      <point x="388" y="428"/>
      <point x="348" y="454"/>
      <point x="284" y="454" type="curve" smooth="yes"/>
      <point x="147" y="454" type="line"/>
      <point x="147" y="308" type="line"/>
    </contour>
  </outline>
</glyph>
<glyph name="uni0433" format="2">
  <advance width="432"/>
  <unicode hex="0433"/>
  <outline>
    <contour>
      <point x="396" y="530" type="line"/>
      <point x="396" y="453" type="line"/>
      <point x="151" y="453" type="line"/>
      <point x="151" y="0" type="line"/>
      <point x="67" y="0" type="line"/>
      <point x="67" y="530" type="line"/>
    </contour>
  </outline>
</glyph>
<glyph name="uni0434" format="2">
  <advance width="592"/>
  <unicode hex="0434"/>
  <outline>
    <contour>
      <point x="11" y="-152" type="line"/>
      <point x="11" y="77" type="line"/>
      <point x="55" y="77" type="line"/>
      <point x="98" y="121"/>
      <point x="116" y="176"/>
      <point x="129" y="322" type="curve" smooth="yes"/>
      <point x="146" y="530" type="line"/>
      <point x="486" y="530" type="line"/>
      <point x="486" y="77" type="line"/>
      <point x="567" y="77" type="line"/>
      <point x="567" y="-152" type="line"/>
      <point x="484" y="-152" type="line"/>
      <point x="484" y="0" type="line"/>
      <point x="95" y="0" type="line"/>
      <point x="95" y="-152" type="line"/>
    </contour>
    <contour>
      <point x="149" y="77" type="curve"/>
      <point x="402" y="77" type="line"/>
      <point x="402" y="453" type="line"/>
      <point x="225" y="453" type="line"/>
      <point x="211" y="322" type="line" smooth="yes"/>
      <point x="199" y="211"/>
      <point x="186" y="126"/>
    </contour>
  </outline>
</glyph>
<glyph name="uni0436" format="2">
  <advance width="791"/>
  <unicode hex="0436"/>
  <outline>
    <contour>
      <point x="34" y="0" type="line"/>
      <point x="248" y="270" type="line"/>
      <point x="36" y="530" type="line"/>
      <point x="136" y="530" type="line"/>
      <point x="312" y="305" type="line"/>
      <point x="354" y="305" type="line"/>
      <point x="354" y="530" type="line"/>
      <point x="438" y="530" type="line"/>
      <point x="438" y="305" type="line"/>
      <point x="480" y="305" type="line"/>
      <point x="656" y="530" type="line"/>
      <point x="756" y="530" type="line"/>
      <point x="546" y="270" type="line"/>
      <point x="758" y="0" type="line"/>
      <point x="657" y="0" type="line"/>
      <point x="479" y="228" type="line"/>
      <point x="438" y="228" type="line"/>
      <point x="438" y="0" type="line"/>
      <point x="354" y="0" type="line"/>
      <point x="354" y="228" type="line"/>
      <point x="314" y="228" type="line"/>
      <point x="135" y="0" type="line"/>
    </contour>
  </outline>
</glyph>
<glyph name="uni0437" format="2">
  <advance width="466"/>
  <unicode hex="0437"/>
  <outline>
    <contour>
      <point x="123" y="136" type="line"/>
      <point x="126" y="89"/>
      <point x="169" y="63"/>
      <point x="232" y="63" type="curve" smooth="yes"/>
      <point x="296" y="63"/>
      <point x="350" y="88"/>
      <point x="350" y="148" type="curve" smooth="yes"/>
      <point x="350" y="200"/>
      <point x="308" y="235"/>
      <point x="244" y="235" type="curve" smooth="yes"/>
      <point x="154" y="235" type="line"/>
      <point x="154" y="311" type="line"/>
      <point x="244" y="311" type="line" smooth="yes"/>
      <point x="308" y="311"/>
      <point x="339" y="343"/>
      <point x="339" y="386" type="curve" smooth="yes"/>
      <point x="339" y="433"/>
      <point x="304" y="464"/>
      <point x="243" y="464" type="curve" smooth="yes"/>
      <point x="181" y="464"/>
      <point x="136" y="434"/>
      <point x="134" y="391" type="curve"/>
      <point x="46" y="391" type="line"/>
      <point x="49" y="477"/>
      <point x="128" y="537"/>
      <point x="239" y="537" type="curve" smooth="yes"/>
      <point x="351" y="537"/>
      <point x="424" y="474"/>
      <point x="424" y="390" type="curve" smooth="yes"/>
      <point x="424" y="330"/>
      <point x="386" y="293"/>
      <point x="334" y="277" type="curve"/>
      <point x="334" y="272" type="line"/>
      <point x="395" y="267"/>
      <point x="435" y="213"/>
      <point x="435" y="147" type="curve" smooth="yes"/>
      <point x="435" y="50"/>
      <point x="350" y="-11"/>
      <point x="233" y="-11" type="curve" smooth="yes"/>
      <point x="120" y="-11"/>
      <point x="36" y="49"/>
      <point x="34" y="136" type="curve"/>
    </contour>
  </outline>
</glyph>
<glyph name="uni0438" format="2">
  <advance width="567"/>
  <unicode hex="0438"/>
  <outline>
    <contour>
      <point x="151" y="123" type="line"/>
      <point x="404" y="530" type="line"/>
      <point x="500" y="530" type="line"/>
      <point x="500" y="0" type="line"/>
      <point x="416" y="0" type="line"/>
      <point x="416" y="407" type="line"/>
      <point x="164" y="0" type="line"/>
      <point x="67" y="0" type="line"/>
      <point x="67" y="530" type="line"/>
      <point x="151" y="530" type="line"/>
    </contour>
  </outline>
</glyph>
<glyph name="uni0439" format="2">
  <advance width="567"/>
  <unicode hex="0439"/>
  <outline>
    <contour>
      <point x="151" y="123" type="line"/>
      <point x="404" y="530" type="line"/>
      <point x="500" y="530" type="line"/>
      <point x="500" y="0" type="line"/>
      <point x="416" y="0" type="line"/>
      <point x="416" y="407" type="line"/>
      <point x="164" y="0" type="line"/>
      <point x="67" y="0" type="line"/>
      <point x="67" y="530" type="line"/>
      <point x="151" y="530" type="line"/>
    </contour>
    <contour>
      <point x="429" y="707" type="line"/>
      <point x="429" y="633"/>
      <point x="372" y="580"/>
      <point x="283" y="580" type="curve" smooth="yes"/>
      <point x="195" y="580"/>
      <point x="140" y="633"/>
      <point x="140" y="707" type="curve"/>
      <point x="217" y="707" type="line"/>
      <point x="217" y="672"/>
      <point x="235" y="641"/>
      <point x="283" y="641" type="curve" smooth="yes"/>
      <point x="332" y="641"/>
      <point x="351" y="672"/>
      <point x="351" y="707" type="curve"/>
    </contour>
  </outline>
</glyph>
<glyph name="uni043A" format="2">
  <advance width="510"/>
  <unicode hex="043A"/>
  <outline>
    <contour>
      <point x="67" y="0" type="line"/>
      <point x="67" y="530" type="line"/>
      <point x="151" y="530" type="line"/>
      <point x="151" y="301" type="line"/>
      <point x="214" y="301" type="line"/>
      <point x="394" y="530" type="line"/>
      <point x="501" y="530" type="line"/>
      <point x="288" y="261" type="line"/>
      <point x="504" y="0" type="line"/>
      <point x="396" y="0" type="line"/>
      <point x="215" y="223" type="line"/>
      <point x="151" y="223" type="line"/>
      <point x="151" y="0" type="line"/>
    </contour>
  </outline>
</glyph>
<glyph name="uni043B" format="2">
  <advance width="559"/>
  <unicode hex="043B"/>
  <outline>
    <contour>
      <point x="21" y="0" type="line"/>
      <point x="21" y="77" type="line"/>
      <point x="39" y="77" type="line" smooth="yes"/>
      <point x="102" y="77"/>
      <point x="120" y="119"/>
      <point x="127" y="296" type="curve" smooth="yes"/>
      <point x="137" y="530" type="line"/>
      <point x="492" y="530" type="line"/>
      <point x="492" y="0" type="line"/>
      <point x="409" y="0" type="line"/>
      <point x="409" y="453" type="line"/>
      <point x="216" y="453" type="line"/>
      <point x="208" y="265" type="line" smooth="yes"/>
      <point x="200" y="91"/>
      <point x="166" y="0"/>
      <point x="49" y="0" type="curve" smooth="yes"/>
    </contour>
  </outline>
</glyph>
<glyph name="uni043C" format="2">
  <advance width="715"/>
  <unicode hex="043C"/>
  <outline>
    <contour>
      <point x="358" y="112" type="line"/>
      <point x="541" y="530" type="line"/>
      <point x="649" y="530" type="line"/>
      <point x="649" y="0" type="line"/>
      <point x="565" y="0" type="line"/>
      <point x="565" y="403" type="line"/>
      <point x="392" y="0" type="line"/>
      <point x="324" y="0" type="line"/>
      <point x="151" y="410" type="line"/>
      <point x="151" y="0" type="line"/>
      <point x="67" y="0" type="line"/>
      <point x="67" y="530" type="line"/>
      <point x="178" y="530" type="line"/>
    </contour>
  </outline>
</glyph>
<glyph name="uni043D" format="2">
  <advance width="552"/>
  <unicode hex="043D"/>
  <outline>
    <contour>
      <point x="151" y="530" type="line"/>
      <point x="151" y="303" type="line"/>
      <point x="402" y="303" type="line"/>
      <point x="402" y="530" type="line"/>
      <point x="486" y="530" type="line"/>
      <point x="486" y="0" type="line"/>
      <point x="402" y="0" type="line"/>
      <point x="402" y="226" type="line"/>
      <point x="151" y="226" type="line"/>
      <point x="151" y="0" type="line"/>
      <point x="67" y="0" type="line"/>
      <point x="67" y="530" type="line"/>
    </contour>
  </outline>
</glyph>
<glyph name="uni043F" format="2">
  <advance width="552"/>
  <unicode hex="043F"/>
  <outline>
    <contour>
      <point x="67" y="0" type="line"/>
      <point x="67" y="530" type="line"/>
      <point x="486" y="530" type="line"/>
      <point x="486" y="0" type="line"/>
      <point x="402" y="0" type="line"/>
      <point x="402" y="453" type="line"/>
      <point x="151" y="453" type="line"/>
      <point x="151" y="0" type="line"/>
    </contour>
  </outline>
</glyph>
<glyph name="uni0440" format="2">
  <advance width="579"/>
  <unicode hex="0440"/>
  <outline>
    <contour>
      <point x="67" y="-199" type="line"/>
      <point x="67" y="530" type="line"/>
      <point x="148" y="530" type="line"/>
      <point x="148" y="446" type="line"/>
      <point x="158" y="446" type="line"/>
      <point x="176" y="474"/>
      <point x="209" y="537"/>
      <point x="312" y="537" type="curve" smooth="yes"/>
      <point x="445" y="537"/>
      <point x="537" y="432"/>
      <point x="537" y="264" type="curve" smooth="yes"/>
      <point x="537" y="96"/>
      <point x="444" y="-11"/>
      <point x="312" y="-11" type="curve" smooth="yes"/>
      <point x="210" y="-11"/>
      <point x="176" y="52"/>
      <point x="158" y="81" type="curve"/>
      <point x="151" y="81" type="line"/>
      <point x="151" y="-199" type="line"/>
    </contour>
    <contour>
      <point x="149" y="266" type="curve" smooth="yes"/>
      <point x="149" y="147"/>
      <point x="203" y="64"/>
      <point x="301" y="64" type="curve" smooth="yes"/>
      <point x="402" y="64"/>
      <point x="453" y="153"/>
      <point x="453" y="266" type="curve" smooth="yes"/>
      <point x="453" y="376"/>
      <point x="403" y="462"/>
      <point x="301" y="462" type="curve" smooth="yes"/>
      <point x="201" y="462"/>
      <point x="149" y="383"/>
    </contour>
  </outline>
</glyph>
<glyph name="uni0442" format="2">
  <advance width="505"/>
  <unicode hex="0442"/>
  <outline>
    <contour>
      <point x="36" y="453" type="line"/>
      <point x="36" y="530" type="line"/>
      <point x="470" y="530" type="line"/>
      <point x="470" y="453" type="line"/>
      <point x="296" y="453" type="line"/>
      <point x="296" y="0" type="line"/>
      <point x="212" y="0" type="line"/>
      <point x="212" y="453" type="line"/>
    </contour>
  </outline>
</glyph>
<glyph name="uni0443" format="2">
  <advance width="529"/>
  <unicode hex="0443"/>
  <outline>
    <contour>
      <point x="121" y="-199" type="curve" smooth="yes"/>
      <point x="102" y="-199"/>
      <point x="85" y="-198"/>
      <point x="74" y="-197" type="curve"/>
      <point x="74" y="-122" type="line"/>
      <point x="83" y="-123"/>
      <point x="102" y="-124"/>
      <point x="115" y="-124" type="curve" smooth="yes"/>
      <point x="149" y="-124"/>
      <point x="178" y="-121"/>
      <point x="206" y="-44" type="curve" smooth="yes"/>
      <point x="222" y="-4" type="line"/>
      <point x="25" y="530" type="line"/>
      <point x="117" y="530" type="line"/>
      <point x="262" y="109" type="line"/>
      <point x="268" y="109" type="line"/>
      <point x="412" y="530" type="line"/>
      <point x="504" y="530" type="line"/>
      <point x="279" y="-76" type="line" smooth="yes"/>
      <point x="248" y="-159"/>
      <point x="196" y="-199"/>
    </contour>
  </outline>
</glyph>
<glyph name="uni0444" format="2">
  <advance width="652"/>
  <unicode hex="0444"/>
  <outline>
    <contour>
      <point x="284" y="-181" type="line"/>
      <point x="284" y="-11" type="line"/>
      <point x="139" y="-11"/>
      <point x="42" y="98"/>
      <point x="42" y="263" type="curve" smooth="yes"/>
      <point x="42" y="428"/>
      <point x="139" y="537"/>
      <point x="284" y="537" type="curve"/>
      <point x="284" y="707" type="line"/>
      <point x="368" y="707" type="line"/>
      <point x="368" y="537" type="line"/>
      <point x="513" y="537"/>
      <point x="609" y="428"/>
      <point x="609" y="263" type="curve" smooth="yes"/>
      <point x="609" y="98"/>
      <point x="513" y="-11"/>
      <point x="368" y="-11" type="curve"/>
      <point x="368" y="-181" type="line"/>
    </contour>
    <contour>
      <point x="284" y="64" type="curve"/>
      <point x="284" y="463" type="line"/>
      <point x="176" y="463"/>
      <point x="126" y="368"/>
      <point x="126" y="263" type="curve" smooth="yes"/>
      <point x="126" y="158"/>
      <point x="176" y="64"/>
    </contour>
    <contour>
      <point x="368" y="64" type="line"/>
      <point x="476" y="64"/>
      <point x="525" y="158"/>
      <point x="525" y="263" type="curve" smooth="yes"/>
      <point x="525" y="368"/>
      <point x="476" y="463"/>
      <point x="368" y="463" type="curve"/>
    </contour>
  </outline>
</glyph>
<glyph name="uni0446" format="2">
  <advance width="594"/>
  <unicode hex="0446"/>
  <outline>
    <contour>
      <point x="485" y="530" type="line"/>
      <point x="485" y="77" type="line"/>
      <point x="562" y="77" type="line"/>
      <point x="562" y="-171" type="line"/>
      <point x="478" y="-171" type="line"/>
      <point x="478" y="0" type="line"/>
      <point x="66" y="0" type="line"/>
      <point x="66" y="530" type="line"/>
      <point x="150" y="530" type="line"/>
      <point x="150" y="77" type="line"/>
      <point x="401" y="77" type="line"/>
      <point x="401" y="530" type="line"/>
    </contour>
  </outline>
</glyph>
<glyph name="uni0447" format="2">
  <advance width="544"/>
  <unicode hex="0447"/>
  <outline>
    <contour>
      <point x="478" y="530" type="line"/>
      <point x="478" y="0" type="line"/>
      <point x="395" y="0" type="line"/>
      <point x="395" y="185" type="line"/>
      <point x="357" y="173"/>
      <point x="317" y="166"/>
      <point x="268" y="166" type="curve" smooth="yes"/>
      <point x="147" y="166"/>
      <point x="67" y="231"/>
      <point x="67" y="361" type="curve" smooth="yes"/>
      <point x="67" y="532" type="line"/>
      <point x="151" y="532" type="line"/>
      <point x="151" y="361" type="line" smooth="yes"/>
      <point x="151" y="280"/>
      <point x="202" y="244"/>
      <point x="268" y="244" type="curve" smooth="yes"/>
      <point x="316" y="244"/>
      <point x="356" y="251"/>
      <point x="395" y="263" type="curve"/>
      <point x="395" y="530" type="line"/>
    </contour>
  </outline>
</glyph>
<glyph name="uni0448" format="2">
  <advance width="782"/>
  <unicode hex="0448"/>
  <outline>
    <contour>
      <point x="67" y="530" type="line"/>
      <point x="151" y="530" type="line"/>
      <point x="151" y="77" type="line"/>
      <point x="350" y="77" type="line"/>
      <point x="350" y="530" type="line"/>
      <point x="433" y="530" type="line"/>
      <point x="433" y="77" type="line"/>
      <point x="631" y="77" type="line"/>
      <point x="631" y="530" type="line"/>
      <point x="716" y="530" type="line"/>
      <point x="716" y="0" type="line"/>
      <point x="67" y="0" type="line"/>
    </contour>
  </outline>
</glyph>
<glyph name="uni0449" format="2">
  <advance width="828"/>
  <unicode hex="0449"/>
  <outline>
    <contour>
      <point x="795" y="77" type="line"/>
      <point x="785" y="-152" type="line"/>
      <point x="699" y="-152" type="line"/>
      <point x="699" y="0" type="line"/>
      <point x="67" y="0" type="line"/>
      <point x="67" y="530" type="line"/>
      <point x="151" y="530" type="line"/>
      <point x="151" y="77" type="line"/>
      <point x="350" y="77" type="line"/>
      <point x="350" y="530" type="line"/>
      <point x="433" y="530" type="line"/>
      <point x="433" y="77" type="line"/>
      <point x="631" y="77" type="line"/>
      <point x="631" y="530" type="line"/>
      <point x="716" y="530" type="line"/>
      <point x="716" y="77" type="line"/>
    </contour>
  </outline>
</glyph>
<glyph name="uni044A" format="2">
  <advance width="624"/>
  <unicode hex="044A"/>
  <outline>
    <contour>
      <point x="164" y="530" type="line"/>
      <point x="164" y="453" type="line"/>
      <point x="18" y="453" type="line"/>
      <point x="18" y="530" type="line"/>
    </contour>
    <contour>
      <point x="389" y="340" type="line" smooth="yes"/>
      <point x="514" y="340"/>
      <point x="582" y="270"/>
      <point x="582" y="172" type="curve" smooth="yes"/>
      <point x="582" y="76"/>
      <point x="514" y="0"/>
      <point x="389" y="0" type="curve" smooth="yes"/>
      <point x="165" y="0" type="line"/>
      <point x="165" y="530" type="line"/>
      <point x="249" y="530" type="line"/>
      <point x="249" y="340" type="line"/>
    </contour>
    <contour>
      <point x="249" y="77" type="line"/>
      <point x="389" y="77" type="line" smooth="yes"/>
      <point x="452" y="77"/>
      <point x="497" y="114"/>
      <point x="497" y="168" type="curve" smooth="yes"/>
      <point x="497" y="223"/>
      <point x="452" y="262"/>
      <point x="389" y="262" type="curve" smooth="yes"/>
      <point x="249" y="262" type="line"/>
    </contour>
  </outline>
</glyph>
<glyph name="uni044C" format="2">
  <advance width="526"/>
  <unicode hex="044C"/>
  <outline>
    <contour>
      <point x="291" y="340" type="line" smooth="yes"/>
      <point x="416" y="340"/>
      <point x="484" y="270"/>
      <point x="484" y="172" type="curve" smooth="yes"/>
      <point x="484" y="76"/>
      <point x="416" y="0"/>
      <point x="291" y="0" type="curve" smooth="yes"/>
      <point x="67" y="0" type="line"/>
      <point x="67" y="530" type="line"/>
      <point x="151" y="530" type="line"/>
      <point x="151" y="340" type="line"/>
    </contour>
    <contour>
      <point x="151" y="77" type="line"/>
      <point x="291" y="77" type="line" smooth="yes"/>
      <point x="354" y="77"/>
      <point x="399" y="114"/>
      <point x="399" y="168" type="curve" smooth="yes"/>
      <point x="399" y="223"/>
      <point x="354" y="262"/>
      <point x="291" y="262" type="curve" smooth="yes"/>
      <point x="151" y="262" type="line"/>
    </contour>
  </outline>
</glyph>
<glyph name="uni044D" format="2">
  <advance width="512"/>
  <unicode hex="044D"/>
  <outline>
    <contour>
      <point x="243" y="460" type="curve" smooth="yes"/>
      <point x="188" y="459"/>
      <point x="124" y="414"/>
      <point x="124" y="359" type="curve"/>
      <point x="42" y="359" type="line"/>
      <point x="42" y="452"/>
      <point x="139" y="537"/>
      <point x="243" y="537" type="curve" smooth="yes"/>
      <point x="389" y="537"/>
      <point x="471" y="414"/>
      <point x="471" y="273" type="curve" smooth="yes"/>
      <point x="471" y="254" type="line" smooth="yes"/>
      <point x="471" y="113"/>
      <point x="389" y="-10"/>
      <point x="243" y="-10" type="curve" smooth="yes"/>
      <point x="127" y="-10"/>
      <point x="42" y="76"/>
      <point x="42" y="182" type="curve"/>
      <point x="124" y="182" type="line"/>
      <point x="124" y="122"/>
      <point x="181" y="69"/>
      <point x="243" y="68" type="curve" smooth="yes"/>
      <point x="327" y="69"/>
      <point x="377" y="149"/>
      <point x="386" y="229" type="curve"/>
      <point x="189" y="229" type="line"/>
      <point x="189" y="306" type="line"/>
      <point x="385" y="306" type="line"/>
      <point x="374" y="385"/>
      <point x="326" y="459"/>
    </contour>
  </outline>
</glyph>
<glyph name="uni044E" format="2">
  <advance width="776"/>
  <unicode hex="044E"/>
  <outline>
    <contour>
      <point x="112" y="530" type="line"/>
      <point x="112" y="299" type="line"/>
      <point x="246" y="299" type="line"/>
      <point x="259" y="444"/>
      <point x="351" y="537"/>
      <point x="484" y="537" type="curve" smooth="yes"/>
      <point x="629" y="537"/>
      <point x="726" y="428"/>
      <point x="726" y="263" type="curve" smooth="yes"/>
      <point x="726" y="98"/>
      <point x="629" y="-11"/>
      <point x="484" y="-11" type="curve" smooth="yes"/>
      <point x="353" y="-11"/>
      <point x="261" y="80"/>
      <point x="246" y="222" type="curve"/>
      <point x="112" y="222" type="line"/>
      <point x="112" y="0" type="line"/>
      <point x="28" y="0" type="line"/>
      <point x="28" y="530" type="line"/>
    </contour>
    <contour>
      <point x="484" y="64" type="curve" smooth="yes"/>
      <point x="592" y="64"/>
      <point x="643" y="158"/>
      <point x="643" y="263" type="curve" smooth="yes"/>
      <point x="643" y="368"/>
      <point x="592" y="462"/>
      <point x="484" y="462" type="curve" smooth="yes"/>
      <point x="377" y="462"/>
      <point x="328" y="368"/>
      <point x="328" y="263" type="curve" smooth="yes"/>
      <point x="328" y="158"/>
      <point x="377" y="64"/>
    </contour>
  </outline>
</glyph>
<glyph name="uni044F" format="2">
  <advance width="532"/>
  <unicode hex="044F"/>
  <outline>
    <contour>
      <point x="386" y="0" type="line"/>
      <point x="386" y="215" type="line"/>
      <point x="245" y="215" type="line"/>
      <point x="123" y="0" type="line"/>
      <point x="32" y="0" type="line"/>
      <point x="161" y="227" type="line"/>
      <point x="97" y="248"/>
      <point x="61" y="300"/>
      <point x="61" y="372" type="curve" smooth="yes"/>
      <point x="61" y="471"/>
      <point x="131" y="530"/>
      <point x="246" y="530" type="curve" smooth="yes"/>
      <point x="465" y="530" type="line"/>
      <point x="465" y="0" type="line"/>
    </contour>
    <contour>
      <point x="145" y="372" type="curve" smooth="yes"/>
      <point x="145" y="322"/>
      <point x="178" y="291"/>
      <point x="237" y="291" type="curve" smooth="yes"/>
      <point x="386" y="291" type="line"/>
      <point x="386" y="454" type="line"/>
      <point x="246" y="454" type="line" smooth="yes"/>
      <point x="183" y="454"/>
      <point x="145" y="423"/>
    </contour>
  </outline>
</glyph>
<glyph name="quoteright" format="2">
  <advance width="220"/>
  <unicode hex="2019"/>
  <outline>
    <contour>
      <point x="185" y="706" type="line"/>
      <point x="108" y="440" type="line"/>
      <point x="36" y="440" type="line"/>
      <point x="90" y="706" type="line"/>
    </contour>
  </outline>
</glyph>
<glyph name="quotedblright" format="2">
  <advance width="439"/>
  <unicode hex="201D"/>
  <outline>
    <contour>
      <point x="400" y="706" type="line"/>
      <point x="324" y="440" type="line"/>
      <point x="252" y="440" type="line"/>
      <point x="306" y="706" type="line"/>
    </contour>
    <contour>
      <point x="215" y="706" type="line"/>
      <point x="139" y="440" type="line"/>
      <point x="66" y="440" type="line"/>
      <point x="120" y="706" type="line"/>
    </contour>
  </outline>
</glyph>
<glyph name="twodotenleader" format="2">
  <advance width="507"/>
  <unicode hex="2025"/>
  <outline>
    <contour>
      <point x="127" y="-6" type="curve" smooth="yes"/>
      <point x="93" y="-6"/>
      <point x="63" y="23"/>
      <point x="64" y="58" type="curve" smooth="yes"/>
      <point x="63" y="92"/>
      <point x="93" y="120"/>
      <point x="127" y="120" type="curve" smooth="yes"/>
      <point x="161" y="120"/>
      <point x="189" y="92"/>
      <point x="189" y="58" type="curve" smooth="yes"/>
      <point x="189" y="23"/>
      <point x="161" y="-6"/>
    </contour>
    <contour>
      <point x="381" y="-6" type="curve" smooth="yes"/>
      <point x="347" y="-6"/>
      <point x="317" y="23"/>
      <point x="318" y="58" type="curve" smooth="yes"/>
      <point x="317" y="92"/>
      <point x="347" y="120"/>
      <point x="381" y="120" type="curve" smooth="yes"/>
      <point x="415" y="120"/>
      <point x="443" y="92"/>
      <point x="443" y="58" type="curve" smooth="yes"/>
      <point x="443" y="23"/>
      <point x="415" y="-6"/>
    </contour>
  </outline>
</glyph>
<glyph name="minute" format="2">
  <advance width="200"/>
  <unicode hex="2032"/>
  <outline>
    <contour>
      <point x="41" y="452" type="line"/>
      <point x="65" y="707" type="line"/>
      <point x="159" y="707" type="line"/>
      <point x="102" y="452" type="line"/>
    </contour>
  </outline>
</glyph>
<glyph name="second" format="2">
  <advance width="380"/>
  <unicode hex="2033"/>
  <outline>
    <contour>
      <point x="41" y="452" type="line"/>
      <point x="65" y="707" type="line"/>
      <point x="159" y="707" type="line"/>
      <point x="102" y="452" type="line"/>
    </contour>
    <contour>
      <point x="222" y="452" type="line"/>
      <point x="246" y="707" type="line"/>
      <point x="340" y="707" type="line"/>
      <point x="282" y="452" type="line"/>
    </contour>
  </outline>
</glyph>
<glyph name="uni203B" format="2">
  <advance width="602"/>
  <unicode hex="203B"/>
  <outline>
    <contour>
      <point x="151" y="105" type="line"/>
      <point x="89" y="169" type="line"/>
      <point x="243" y="326" type="line"/>
      <point x="89" y="482" type="line"/>
      <point x="151" y="546" type="line"/>
      <point x="306" y="390" type="line"/>
      <point x="460" y="546" type="line"/>
      <point x="522" y="482" type="line"/>
      <point x="368" y="326" type="line"/>
      <point x="522" y="169" type="line"/>
      <point x="460" y="105" type="line"/>
      <point x="306" y="263" type="line"/>
    </contour>
    <contour>
      <point x="42" y="329" type="curve" smooth="yes"/>
      <point x="42" y="359"/>
      <point x="61" y="383"/>
      <point x="98" y="383" type="curve" smooth="yes"/>
      <point x="135" y="383"/>
      <point x="153" y="359"/>
      <point x="153" y="329" type="curve" smooth="yes"/>
      <point x="153" y="299"/>
      <point x="136" y="277"/>
      <point x="98" y="277" type="curve" smooth="yes"/>
      <point x="61" y="277"/>
      <point x="42" y="299"/>
    </contour>
    <contour>
      <point x="246" y="119" type="curve" smooth="yes"/>
      <point x="246" y="148"/>
      <point x="266" y="172"/>
      <point x="302" y="172" type="curve" smooth="yes"/>
      <point x="338" y="172"/>
      <point x="357" y="148"/>
      <point x="357" y="119" type="curve" smooth="yes"/>
      <point x="357" y="90"/>
      <point x="338" y="66"/>
      <point x="302" y="66" type="curve" smooth="yes"/>
      <point x="266" y="66"/>
      <point x="246" y="90"/>
    </contour>
    <contour>
      <point x="246" y="532" type="curve" smooth="yes"/>
      <point x="246" y="562"/>
      <point x="266" y="586"/>
      <point x="302" y="586" type="curve" smooth="yes"/>
      <point x="338" y="586"/>
      <point x="357" y="562"/>
      <point x="357" y="532" type="curve" smooth="yes"/>
      <point x="357" y="504"/>
      <point x="338" y="479"/>
      <point x="302" y="479" type="curve" smooth="yes"/>
      <point x="266" y="479"/>
      <point x="246" y="504"/>
    </contour>
    <contour>
      <point x="449" y="329" type="curve" smooth="yes"/>
      <point x="449" y="359"/>
      <point x="470" y="383"/>
      <point x="506" y="383" type="curve" smooth="yes"/>
      <point x="542" y="383"/>
      <point x="562" y="359"/>
      <point x="562" y="329" type="curve" smooth="yes"/>
      <point x="562" y="299"/>
      <point x="542" y="277"/>
      <point x="506" y="277" type="curve" smooth="yes"/>
      <point x="470" y="277"/>
      <point x="449" y="299"/>
    </contour>
  </outline>
</glyph>
<glyph name="uni2070" format="2">
  <advance width="414"/>
  <unicode hex="2070"/>
  <outline>
    <contour>
      <point x="207" y="346" type="curve" smooth="yes"/>
      <point x="96" y="346"/>
      <point x="29" y="427"/>
      <point x="29" y="564" type="curve" smooth="yes"/>
      <point x="29" y="701"/>
      <point x="96" y="783"/>
      <point x="207" y="783" type="curve" smooth="yes"/>
      <point x="316" y="783"/>
      <point x="385" y="703"/>
      <point x="385" y="564" type="curve" smooth="yes"/>
      <point x="385" y="426"/>
      <point x="316" y="346"/>
    </contour>
    <contour>
      <point x="207" y="408" type="curve" smooth="yes"/>
      <point x="268" y="408"/>
      <point x="308" y="461"/>
      <point x="308" y="564" type="curve" smooth="yes"/>
      <point x="308" y="668"/>
      <point x="268" y="721"/>
      <point x="207" y="721" type="curve" smooth="yes"/>
      <point x="146" y="721"/>
      <point x="107" y="668"/>
      <point x="107" y="564" type="curve" smooth="yes"/>
      <point x="107" y="463"/>
      <point x="145" y="408"/>
    </contour>
  </outline>
</glyph>
<glyph name="uni2074" format="2">
  <advance width="410"/>
  <unicode hex="2074"/>
  <outline>
    <contour>
      <point x="28" y="433" type="line"/>
      <point x="28" y="492" type="line"/>
      <point x="229" y="777" type="line"/>
      <point x="325" y="777" type="line"/>
      <point x="325" y="494" type="line"/>
      <point x="383" y="494" type="line"/>
      <point x="383" y="433" type="line"/>
      <point x="325" y="433" type="line"/>
      <point x="325" y="354" type="line"/>
      <point x="252" y="354" type="line"/>
      <point x="252" y="433" type="line"/>
    </contour>
    <contour>
      <point x="106" y="494" type="line"/>
      <point x="252" y="494" type="line"/>
      <point x="252" y="693" type="line"/>
      <point x="249" y="693" type="line"/>
      <point x="106" y="496" type="line"/>
    </contour>
  </outline>
</glyph>
<glyph name="uni2075" format="2">
  <advance width="388"/>
  <unicode hex="2075"/>
  <outline>
    <contour>
      <point x="196" y="348" type="curve" smooth="yes"/>
      <point x="105" y="348"/>
      <point x="39" y="400"/>
      <point x="38" y="473" type="curve"/>
      <point x="112" y="473" type="line"/>
      <point x="114" y="436"/>
      <point x="146" y="407"/>
      <point x="196" y="407" type="curve" smooth="yes"/>
      <point x="249" y="407"/>
      <point x="288" y="442"/>
      <point x="288" y="492" type="curve" smooth="yes"/>
      <point x="288" y="542"/>
      <point x="246" y="576"/>
      <point x="194" y="576" type="curve" smooth="yes"/>
      <point x="164" y="576"/>
      <point x="136" y="565"/>
      <point x="119" y="545" type="curve"/>
      <point x="48" y="558" type="line"/>
      <point x="72" y="777" type="line"/>
      <point x="339" y="777" type="line"/>
      <point x="339" y="716" type="line"/>
      <point x="136" y="716" type="line"/>
      <point x="120" y="594" type="line"/>
      <point x="123" y="594" type="line"/>
      <point x="141" y="616"/>
      <point x="176" y="631"/>
      <point x="214" y="631" type="curve" smooth="yes"/>
      <point x="298" y="631"/>
      <point x="360" y="574"/>
      <point x="360" y="493" type="curve" smooth="yes"/>
      <point x="360" y="409"/>
      <point x="293" y="348"/>
    </contour>
  </outline>
</glyph>
<glyph name="uni2076" format="2">
  <advance width="399"/>
  <unicode hex="2076"/>
  <outline>
    <contour>
      <point x="204" y="348" type="curve" smooth="yes"/>
      <point x="112" y="348"/>
      <point x="29" y="407"/>
      <point x="29" y="554" type="curve" smooth="yes"/>
      <point x="29" y="690"/>
      <point x="94" y="784"/>
      <point x="209" y="784" type="curve" smooth="yes"/>
      <point x="299" y="784"/>
      <point x="355" y="727"/>
      <point x="362" y="660" type="curve"/>
      <point x="288" y="660" type="line"/>
      <point x="281" y="697"/>
      <point x="251" y="718"/>
      <point x="209" y="718" type="curve" smooth="yes"/>
      <point x="140" y="718"/>
      <point x="104" y="659"/>
      <point x="104" y="564" type="curve"/>
      <point x="106" y="564" type="line"/>
      <point x="127" y="604"/>
      <point x="174" y="628"/>
      <point x="226" y="628" type="curve" smooth="yes"/>
      <point x="306" y="628"/>
      <point x="368" y="571"/>
      <point x="368" y="493" type="curve" smooth="yes"/>
      <point x="368" y="409"/>
      <point x="301" y="348"/>
    </contour>
    <contour>
      <point x="204" y="407" type="curve" smooth="yes"/>
      <point x="255" y="407"/>
      <point x="295" y="444"/>
      <point x="295" y="490" type="curve" smooth="yes"/>
      <point x="295" y="537"/>
      <point x="255" y="572"/>
      <point x="204" y="572" type="curve" smooth="yes"/>
      <point x="150" y="572"/>
      <point x="109" y="537"/>
      <point x="113" y="485" type="curve" smooth="yes"/>
      <point x="116" y="444"/>
      <point x="152" y="407"/>
    </contour>
  </outline>
</glyph>
<glyph name="uni2077" format="2">
  <advance width="362"/>
  <unicode hex="2077"/>
  <outline>
    <contour>
      <point x="53" y="354" type="line"/>
      <point x="257" y="713" type="line"/>
      <point x="257" y="716" type="line"/>
      <point x="21" y="716" type="line"/>
      <point x="21" y="777" type="line"/>
      <point x="336" y="777" type="line"/>
      <point x="336" y="714" type="line"/>
      <point x="133" y="354" type="line"/>
    </contour>
  </outline>
</glyph>
<glyph name="uni2078" format="2">
  <advance width="401"/>
  <unicode hex="2078"/>
  <outline>
    <contour>
      <point x="199" y="348" type="curve" smooth="yes"/>
      <point x="101" y="348"/>
      <point x="28" y="400"/>
      <point x="28" y="467" type="curve" smooth="yes"/>
      <point x="28" y="514"/>
      <point x="67" y="562"/>
      <point x="129" y="572" type="curve"/>
      <point x="129" y="574" type="line"/>
      <point x="79" y="586"/>
      <point x="45" y="624"/>
      <point x="45" y="671" type="curve" smooth="yes"/>
      <point x="45" y="734"/>
      <point x="111" y="783"/>
      <point x="199" y="783" type="curve" smooth="yes"/>
      <point x="289" y="783"/>
      <point x="354" y="734"/>
      <point x="354" y="671" type="curve" smooth="yes"/>
      <point x="354" y="624"/>
      <point x="320" y="586"/>
      <point x="272" y="574" type="curve"/>
      <point x="272" y="572" type="line"/>
      <point x="329" y="563"/>
      <point x="373" y="517"/>
      <point x="373" y="467" type="curve" smooth="yes"/>
      <point x="373" y="400"/>
      <point x="299" y="348"/>
    </contour>
    <contour>
      <point x="199" y="402" type="curve" smooth="yes"/>
      <point x="254" y="402"/>
      <point x="294" y="433"/>
      <point x="294" y="473" type="curve" smooth="yes"/>
      <point x="294" y="513"/>
      <point x="254" y="544"/>
      <point x="199" y="544" type="curve" smooth="yes"/>
      <point x="146" y="544"/>
      <point x="107" y="513"/>
      <point x="107" y="473" type="curve" smooth="yes"/>
      <point x="107" y="435"/>
      <point x="145" y="402"/>
    </contour>
    <contour>
      <point x="199" y="599" type="curve" smooth="yes"/>
      <point x="246" y="599"/>
      <point x="280" y="627"/>
      <point x="280" y="663" type="curve" smooth="yes"/>
      <point x="280" y="699"/>
      <point x="246" y="728"/>
      <point x="199" y="728" type="curve" smooth="yes"/>
      <point x="154" y="728"/>
      <point x="119" y="699"/>
      <point x="119" y="663" type="curve" smooth="yes"/>
      <point x="119" y="626"/>
      <point x="156" y="599"/>
    </contour>
  </outline>
</glyph>
<glyph name="uni2079" format="2">
  <advance width="399"/>
  <unicode hex="2079"/>
  <outline>
    <contour>
      <point x="194" y="784" type="curve" smooth="yes"/>
      <point x="286" y="784"/>
      <point x="369" y="726"/>
      <point x="369" y="579" type="curve" smooth="yes"/>
      <point x="369" y="444"/>
      <point x="306" y="348"/>
      <point x="192" y="348" type="curve" smooth="yes"/>
      <point x="104" y="348"/>
      <point x="45" y="401"/>
      <point x="36" y="473" type="curve"/>
      <point x="110" y="473" type="line"/>
      <point x="119" y="433"/>
      <point x="150" y="413"/>
      <point x="192" y="413" type="curve" smooth="yes"/>
      <point x="258" y="413"/>
      <point x="295" y="471"/>
      <point x="295" y="568" type="curve"/>
      <point x="292" y="568" type="line"/>
      <point x="272" y="529"/>
      <point x="226" y="505"/>
      <point x="174" y="505" type="curve" smooth="yes"/>
      <point x="93" y="505"/>
      <point x="31" y="562"/>
      <point x="31" y="641" type="curve" smooth="yes"/>
      <point x="31" y="724"/>
      <point x="97" y="784"/>
    </contour>
    <contour>
      <point x="196" y="726" type="curve" smooth="yes"/>
      <point x="143" y="726"/>
      <point x="104" y="689"/>
      <point x="104" y="643" type="curve" smooth="yes"/>
      <point x="104" y="596"/>
      <point x="143" y="561"/>
      <point x="196" y="561" type="curve" smooth="yes"/>
      <point x="248" y="561"/>
      <point x="290" y="600"/>
      <point x="286" y="643" type="curve" smooth="yes"/>
      <point x="282" y="693"/>
      <point x="244" y="726"/>
    </contour>
  </outline>
</glyph>
<glyph name="uni2080" format="2">
  <advance width="414"/>
  <unicode hex="2080"/>
  <outline>
    <contour>
      <point x="207" y="-130" type="curve" smooth="yes"/>
      <point x="96" y="-130"/>
      <point x="29" y="-48"/>
      <point x="29" y="89" type="curve" smooth="yes"/>
      <point x="29" y="226"/>
      <point x="96" y="308"/>
      <point x="207" y="308" type="curve" smooth="yes"/>
      <point x="316" y="308"/>
      <point x="385" y="228"/>
      <point x="385" y="89" type="curve" smooth="yes"/>
      <point x="385" y="-49"/>
      <point x="316" y="-130"/>
    </contour>
    <contour>
      <point x="207" y="-67" type="curve" smooth="yes"/>
      <point x="268" y="-67"/>
      <point x="308" y="-14"/>
      <point x="308" y="89" type="curve" smooth="yes"/>
      <point x="308" y="193"/>
      <point x="268" y="245"/>
      <point x="207" y="245" type="curve" smooth="yes"/>
      <point x="146" y="245"/>
      <point x="107" y="193"/>
      <point x="107" y="89" type="curve" smooth="yes"/>
      <point x="107" y="-12"/>
      <point x="145" y="-67"/>
    </contour>
  </outline>
</glyph>
<glyph name="uni2081" format="2">
  <advance width="290"/>
  <unicode hex="2081"/>
  <outline>
    <contour>
      <point x="143" y="-122" type="line"/>
      <point x="143" y="226" type="line"/>
      <point x="140" y="226" type="line"/>
      <point x="31" y="153" type="line"/>
      <point x="31" y="228" type="line"/>
      <point x="144" y="302" type="line"/>
      <point x="216" y="302" type="line"/>
      <point x="216" y="-122" type="line"/>
    </contour>
  </outline>
</glyph>
<glyph name="uni2082" format="2">
  <advance width="395"/>
  <unicode hex="2082"/>
  <outline>
    <contour>
      <point x="41" y="-122" type="line"/>
      <point x="41" y="-67" type="line"/>
      <point x="203" y="76" type="line" smooth="yes"/>
      <point x="251" y="118"/>
      <point x="276" y="145"/>
      <point x="276" y="181" type="curve" smooth="yes"/>
      <point x="276" y="222"/>
      <point x="240" y="247"/>
      <point x="193" y="247" type="curve" smooth="yes"/>
      <point x="144" y="247"/>
      <point x="111" y="219"/>
      <point x="111" y="176" type="curve"/>
      <point x="38" y="176" type="line"/>
      <point x="38" y="255"/>
      <point x="103" y="308"/>
      <point x="194" y="308" type="curve" smooth="yes"/>
      <point x="286" y="308"/>
      <point x="349" y="254"/>
      <point x="349" y="182" type="curve" smooth="yes"/>
      <point x="349" y="125"/>
      <point x="315" y="86"/>
      <point x="239" y="21" type="curve" smooth="yes"/>
      <point x="150" y="-57" type="line"/>
      <point x="150" y="-60" type="line"/>
      <point x="361" y="-60" type="line"/>
      <point x="361" y="-122" type="line"/>
    </contour>
  </outline>
</glyph>
<glyph name="uni2083" format="2">
  <advance width="404"/>
  <unicode hex="2083"/>
  <outline>
    <contour>
      <point x="201" y="-128" type="curve" smooth="yes"/>
      <point x="105" y="-128"/>
      <point x="35" y="-76"/>
      <point x="34" y="-3" type="curve"/>
      <point x="110" y="-3" type="line"/>
      <point x="112" y="-40"/>
      <point x="150" y="-64"/>
      <point x="201" y="-64" type="curve" smooth="yes"/>
      <point x="255" y="-64"/>
      <point x="293" y="-37"/>
      <point x="293" y="1" type="curve" smooth="yes"/>
      <point x="293" y="40"/>
      <point x="253" y="66"/>
      <point x="191" y="66" type="curve" smooth="yes"/>
      <point x="157" y="66" type="line"/>
      <point x="157" y="123" type="line"/>
      <point x="191" y="123" type="line" smooth="yes"/>
      <point x="242" y="123"/>
      <point x="280" y="148"/>
      <point x="280" y="186" type="curve" smooth="yes"/>
      <point x="280" y="222"/>
      <point x="249" y="247"/>
      <point x="202" y="247" type="curve" smooth="yes"/>
      <point x="156" y="247"/>
      <point x="117" y="223"/>
      <point x="116" y="185" type="curve"/>
      <point x="44" y="185" type="line"/>
      <point x="45" y="258"/>
      <point x="114" y="308"/>
      <point x="202" y="308" type="curve" smooth="yes"/>
      <point x="293" y="308"/>
      <point x="354" y="257"/>
      <point x="354" y="190" type="curve" smooth="yes"/>
      <point x="354" y="140"/>
      <point x="317" y="108"/>
      <point x="267" y="99" type="curve"/>
      <point x="267" y="97" type="line"/>
      <point x="334" y="87"/>
      <point x="371" y="47"/>
      <point x="371" y="-5" type="curve" smooth="yes"/>
      <point x="371" y="-75"/>
      <point x="301" y="-128"/>
    </contour>
  </outline>
</glyph>
<glyph name="uni2084" format="2">
  <advance width="410"/>
  <unicode hex="2084"/>
  <outline>
    <contour>
      <point x="28" y="-43" type="line"/>
      <point x="28" y="17" type="line"/>
      <point x="229" y="302" type="line"/>
      <point x="325" y="302" type="line"/>
      <point x="325" y="19" type="line"/>
      <point x="383" y="19" type="line"/>
      <point x="383" y="-43" type="line"/>
      <point x="325" y="-43" type="line"/>
      <point x="325" y="-122" type="line"/>
      <point x="252" y="-122" type="line"/>
      <point x="252" y="-43" type="line"/>
    </contour>
    <contour>
      <point x="106" y="19" type="line"/>
      <point x="252" y="19" type="line"/>
      <point x="252" y="218" type="line"/>
      <point x="249" y="218" type="line"/>
      <point x="106" y="21" type="line"/>
    </contour>
  </outline>
</glyph>
<glyph name="uni2085" format="2">
  <advance width="388"/>
  <unicode hex="2085"/>
  <outline>
    <contour>
      <point x="196" y="-128" type="curve" smooth="yes"/>
      <point x="105" y="-128"/>
      <point x="39" y="-76"/>
      <point x="38" y="-3" type="curve"/>
      <point x="112" y="-3" type="line"/>
      <point x="114" y="-40"/>
      <point x="146" y="-68"/>
      <point x="196" y="-68" type="curve" smooth="yes"/>
      <point x="249" y="-68"/>
      <point x="288" y="-33"/>
      <point x="288" y="17" type="curve" smooth="yes"/>
      <point x="288" y="67"/>
      <point x="246" y="101"/>
      <point x="194" y="101" type="curve" smooth="yes"/>
      <point x="164" y="101"/>
      <point x="136" y="89"/>
      <point x="119" y="69" type="curve"/>
      <point x="48" y="82" type="line"/>
      <point x="72" y="302" type="line"/>
      <point x="339" y="302" type="line"/>
      <point x="339" y="240" type="line"/>
      <point x="136" y="240" type="line"/>
      <point x="120" y="118" type="line"/>
      <point x="123" y="118" type="line"/>
      <point x="141" y="140"/>
      <point x="176" y="155"/>
      <point x="214" y="155" type="curve" smooth="yes"/>
      <point x="298" y="155"/>
      <point x="360" y="99"/>
      <point x="360" y="18" type="curve" smooth="yes"/>
      <point x="360" y="-66"/>
      <point x="293" y="-128"/>
    </contour>
  </outline>
</glyph>
<glyph name="uni2086" format="2">
  <advance width="399"/>
  <unicode hex="2086"/>
  <outline>
    <contour>
      <point x="204" y="-128" type="curve" smooth="yes"/>
      <point x="112" y="-128"/>
      <point x="29" y="-69"/>
      <point x="29" y="78" type="curve" smooth="yes"/>
      <point x="29" y="214"/>
      <point x="94" y="309"/>
      <point x="209" y="309" type="curve" smooth="yes"/>
      <point x="299" y="309"/>
      <point x="355" y="252"/>
      <point x="362" y="185" type="curve"/>
      <point x="288" y="185" type="line"/>
      <point x="281" y="222"/>
      <point x="251" y="242"/>
      <point x="209" y="242" type="curve" smooth="yes"/>
      <point x="140" y="242"/>
      <point x="104" y="184"/>
      <point x="104" y="89" type="curve"/>
      <point x="106" y="89" type="line"/>
      <point x="127" y="129"/>
      <point x="174" y="152"/>
      <point x="226" y="152" type="curve" smooth="yes"/>
      <point x="306" y="152"/>
      <point x="368" y="96"/>
      <point x="368" y="18" type="curve" smooth="yes"/>
      <point x="368" y="-66"/>
      <point x="301" y="-128"/>
    </contour>
    <contour>
      <point x="204" y="-68" type="curve" smooth="yes"/>
      <point x="255" y="-68"/>
      <point x="295" y="-31"/>
      <point x="295" y="15" type="curve" smooth="yes"/>
      <point x="295" y="62"/>
      <point x="255" y="97"/>
      <point x="204" y="97" type="curve" smooth="yes"/>
      <point x="150" y="97"/>
      <point x="109" y="62"/>
      <point x="113" y="10" type="curve" smooth="yes"/>
      <point x="116" y="-31"/>
      <point x="152" y="-68"/>
    </contour>
  </outline>
</glyph>
<glyph name="uni2087" format="2">
  <advance width="362"/>
  <unicode hex="2087"/>
  <outline>
    <contour>
      <point x="53" y="-122" type="line"/>
      <point x="257" y="237" type="line"/>
      <point x="257" y="240" type="line"/>
      <point x="21" y="240" type="line"/>
      <point x="21" y="302" type="line"/>
      <point x="336" y="302" type="line"/>
      <point x="336" y="238" type="line"/>
      <point x="133" y="-122" type="line"/>
    </contour>
  </outline>
</glyph>
<glyph name="uni2088" format="2">
  <advance width="401"/>
  <unicode hex="2088"/>
  <outline>
    <contour>
      <point x="199" y="-128" type="curve" smooth="yes"/>
      <point x="101" y="-128"/>
      <point x="28" y="-76"/>
      <point x="28" y="-9" type="curve" smooth="yes"/>
      <point x="28" y="38"/>
      <point x="67" y="87"/>
      <point x="129" y="97" type="curve"/>
      <point x="129" y="99" type="line"/>
      <point x="79" y="111"/>
      <point x="45" y="148"/>
      <point x="45" y="195" type="curve" smooth="yes"/>
      <point x="45" y="258"/>
      <point x="111" y="308"/>
      <point x="199" y="308" type="curve" smooth="yes"/>
      <point x="289" y="308"/>
      <point x="354" y="258"/>
      <point x="354" y="195" type="curve" smooth="yes"/>
      <point x="354" y="148"/>
      <point x="320" y="111"/>
      <point x="272" y="99" type="curve"/>
      <point x="272" y="97" type="line"/>
      <point x="329" y="88"/>
      <point x="373" y="41"/>
      <point x="373" y="-9" type="curve" smooth="yes"/>
      <point x="373" y="-76"/>
      <point x="299" y="-128"/>
    </contour>
    <contour>
      <point x="199" y="-73" type="curve" smooth="yes"/>
      <point x="254" y="-73"/>
      <point x="294" y="-43"/>
      <point x="294" y="-3" type="curve" smooth="yes"/>
      <point x="294" y="37"/>
      <point x="254" y="68"/>
      <point x="199" y="68" type="curve" smooth="yes"/>
      <point x="146" y="68"/>
      <point x="107" y="37"/>
      <point x="107" y="-3" type="curve" smooth="yes"/>
      <point x="107" y="-41"/>
      <point x="145" y="-73"/>
    </contour>
    <contour>
      <point x="199" y="123" type="curve" smooth="yes"/>
      <point x="246" y="123"/>
      <point x="280" y="152"/>
      <point x="280" y="188" type="curve" smooth="yes"/>
      <point x="280" y="224"/>
      <point x="246" y="252"/>
      <point x="199" y="252" type="curve" smooth="yes"/>
      <point x="154" y="252"/>
      <point x="119" y="224"/>
      <point x="119" y="188" type="curve" smooth="yes"/>
      <point x="119" y="151"/>
      <point x="156" y="123"/>
    </contour>
  </outline>
</glyph>
<glyph name="uni2089" format="2">
  <advance width="399"/>
  <unicode hex="2089"/>
  <outline>
    <contour>
      <point x="194" y="309" type="curve" smooth="yes"/>
      <point x="286" y="309"/>
      <point x="369" y="251"/>
      <point x="369" y="104" type="curve" smooth="yes"/>
      <point x="369" y="-31"/>
      <point x="306" y="-128"/>
      <point x="192" y="-128" type="curve" smooth="yes"/>
      <point x="104" y="-128"/>
      <point x="45" y="-75"/>
      <point x="36" y="-3" type="curve"/>
      <point x="110" y="-3" type="line"/>
      <point x="119" y="-43"/>
      <point x="150" y="-62"/>
      <point x="192" y="-62" type="curve" smooth="yes"/>
      <point x="258" y="-62"/>
      <point x="295" y="-4"/>
      <point x="295" y="93" type="curve"/>
      <point x="292" y="93" type="line"/>
      <point x="272" y="54"/>
      <point x="226" y="29"/>
      <point x="174" y="29" type="curve" smooth="yes"/>
      <point x="93" y="29"/>
      <point x="31" y="86"/>
      <point x="31" y="165" type="curve" smooth="yes"/>
      <point x="31" y="248"/>
      <point x="97" y="309"/>
    </contour>
    <contour>
      <point x="196" y="250" type="curve" smooth="yes"/>
      <point x="143" y="250"/>
      <point x="104" y="213"/>
      <point x="104" y="167" type="curve" smooth="yes"/>
      <point x="104" y="120"/>
      <point x="143" y="85"/>
      <point x="196" y="85" type="curve" smooth="yes"/>
      <point x="248" y="85"/>
      <point x="290" y="124"/>
      <point x="286" y="167" type="curve" smooth="yes"/>
      <point x="282" y="217"/>
      <point x="244" y="250"/>
    </contour>
  </outline>
</glyph>
<glyph name="uni20A9" format="2">
  <advance width="910"/>
  <unicode hex="20A9"/>
  <outline>
    <contour>
      <point x="207" y="0" type="line"/>
      <point x="122" y="314" type="line"/>
      <point x="21" y="314" type="line"/>
      <point x="21" y="393" type="line"/>
      <point x="101" y="393" type="line"/>
      <point x="16" y="707" type="line"/>
      <point x="104" y="707" type="line"/>
      <point x="185" y="393" type="line"/>
      <point x="324" y="393" type="line"/>
      <point x="406" y="707" type="line"/>
      <point x="504" y="707" type="line"/>
      <point x="586" y="393" type="line"/>
      <point x="727" y="393" type="line"/>
      <point x="806" y="707" type="line"/>
      <point x="896" y="707" type="line"/>
      <point x="811" y="393" type="line"/>
      <point x="891" y="393" type="line"/>
      <point x="891" y="314" type="line"/>
      <point x="789" y="314" type="line"/>
      <point x="703" y="0" type="line"/>
      <point x="612" y="0" type="line"/>
      <point x="526" y="314" type="line"/>
      <point x="385" y="314" type="line"/>
      <point x="299" y="0" type="line"/>
    </contour>
    <contour>
      <point x="204" y="314" type="line"/>
      <point x="250" y="134" type="line"/>
      <point x="257" y="134" type="line"/>
      <point x="304" y="314" type="line"/>
    </contour>
    <contour>
      <point x="406" y="393" type="line"/>
      <point x="505" y="393" type="line"/>
      <point x="458" y="561" type="line"/>
      <point x="452" y="561" type="line"/>
    </contour>
    <contour>
      <point x="606" y="314" type="line"/>
      <point x="653" y="134" type="line"/>
      <point x="660" y="134" type="line"/>
      <point x="706" y="314" type="line"/>
    </contour>
  </outline>
</glyph>
<glyph name="uni2103" format="2">
  <advance width="1109"/>
  <unicode hex="2103"/>
  <outline>
    <contour>
      <point x="214" y="395" type="curve" smooth="yes"/>
      <point x="126" y="395"/>
      <point x="55" y="466"/>
      <point x="55" y="553" type="curve" smooth="yes"/>
      <point x="55" y="642"/>
      <point x="126" y="713"/>
      <point x="214" y="713" type="curve" smooth="yes"/>
      <point x="302" y="713"/>
      <point x="373" y="642"/>
      <point x="373" y="553" type="curve" smooth="yes"/>
      <point x="373" y="466"/>
      <point x="302" y="395"/>
    </contour>
    <contour>
      <point x="214" y="464" type="curve" smooth="yes"/>
      <point x="263" y="464"/>
      <point x="303" y="504"/>
      <point x="303" y="553" type="curve" smooth="yes"/>
      <point x="303" y="603"/>
      <point x="263" y="643"/>
      <point x="214" y="643" type="curve" smooth="yes"/>
      <point x="164" y="643"/>
      <point x="124" y="603"/>
      <point x="124" y="553" type="curve" smooth="yes"/>
      <point x="124" y="504"/>
      <point x="164" y="464"/>
    </contour>
    <contour>
      <point x="977" y="484" type="line"/>
      <point x="956" y="582"/>
      <point x="872" y="635"/>
      <point x="779" y="635" type="curve" smooth="yes"/>
      <point x="651" y="635"/>
      <point x="552" y="537"/>
      <point x="552" y="354" type="curve" smooth="yes"/>
      <point x="552" y="171"/>
      <point x="651" y="72"/>
      <point x="779" y="72" type="curve" smooth="yes"/>
      <point x="872" y="72"/>
      <point x="956" y="125"/>
      <point x="977" y="222" type="curve"/>
      <point x="1064" y="222" type="line"/>
      <point x="1039" y="77"/>
      <point x="923" y="-10"/>
      <point x="779" y="-10" type="curve" smooth="yes"/>
      <point x="597" y="-10"/>
      <point x="467" y="130"/>
      <point x="467" y="354" type="curve" smooth="yes"/>
      <point x="467" y="578"/>
      <point x="597" y="717"/>
      <point x="779" y="717" type="curve" smooth="yes"/>
      <point x="922" y="717"/>
      <point x="1038" y="630"/>
      <point x="1064" y="484" type="curve"/>
    </contour>
  </outline>
</glyph>
<glyph name="uni2109" format="2">
  <advance width="984"/>
  <unicode hex="2109"/>
  <outline>
    <contour>
      <point x="214" y="395" type="curve" smooth="yes"/>
      <point x="126" y="395"/>
      <point x="55" y="466"/>
      <point x="55" y="553" type="curve" smooth="yes"/>
      <point x="55" y="642"/>
      <point x="126" y="713"/>
      <point x="214" y="713" type="curve" smooth="yes"/>
      <point x="302" y="713"/>
      <point x="373" y="642"/>
      <point x="373" y="553" type="curve" smooth="yes"/>
      <point x="373" y="466"/>
      <point x="302" y="395"/>
    </contour>
    <contour>
      <point x="214" y="464" type="curve" smooth="yes"/>
      <point x="263" y="464"/>
      <point x="303" y="504"/>
      <point x="303" y="553" type="curve" smooth="yes"/>
      <point x="303" y="603"/>
      <point x="263" y="643"/>
      <point x="214" y="643" type="curve" smooth="yes"/>
      <point x="164" y="643"/>
      <point x="124" y="603"/>
      <point x="124" y="553" type="curve" smooth="yes"/>
      <point x="124" y="504"/>
      <point x="164" y="464"/>
    </contour>
    <contour>
      <point x="506" y="0" type="line"/>
      <point x="506" y="707" type="line"/>
      <point x="932" y="707" type="line"/>
      <point x="932" y="629" type="line"/>
      <point x="594" y="629" type="line"/>
      <point x="594" y="393" type="line"/>
      <point x="899" y="393" type="line"/>
      <point x="899" y="315" type="line"/>
      <point x="594" y="315" type="line"/>
      <point x="594" y="0" type="line"/>
    </contour>
  </outline>
</glyph>
<glyph name="uni2113" format="2">
  <advance width="423"/>
  <unicode hex="2113"/>
  <outline>
    <contour>
      <point x="319" y="-10" type="line"/>
      <point x="185" y="-10"/>
      <point x="121" y="74"/>
      <point x="121" y="204" type="curve" smooth="yes"/>
      <point x="121" y="212" type="line"/>
      <point x="91" y="204"/>
      <point x="59" y="199"/>
      <point x="25" y="199" type="curve"/>
      <point x="25" y="287" type="line"/>
      <point x="61" y="287"/>
      <point x="93" y="293"/>
      <point x="121" y="303" type="curve"/>
      <point x="121" y="557" type="line" smooth="yes"/>
      <point x="121" y="671"/>
      <point x="176" y="737"/>
      <point x="265" y="737" type="curve" smooth="yes"/>
      <point x="343" y="737"/>
      <point x="398" y="681"/>
      <point x="398" y="588" type="curve" smooth="yes"/>
      <point x="398" y="567" type="line" smooth="yes"/>
      <point x="398" y="457"/>
      <point x="335" y="325"/>
      <point x="218" y="253" type="curve"/>
      <point x="218" y="206" type="line" smooth="yes"/>
      <point x="218" y="121"/>
      <point x="242" y="71"/>
      <point x="319" y="71" type="curve"/>
    </contour>
    <contour>
      <point x="218" y="363" type="line"/>
      <point x="276" y="422"/>
      <point x="302" y="503"/>
      <point x="302" y="567" type="curve" smooth="yes"/>
      <point x="302" y="588" type="line" smooth="yes"/>
      <point x="302" y="636"/>
      <point x="287" y="657"/>
      <point x="266" y="657" type="curve" smooth="yes"/>
      <point x="234" y="657"/>
      <point x="218" y="624"/>
      <point x="218" y="558" type="curve" smooth="yes"/>
    </contour>
  </outline>
</glyph>
<glyph name="uni212B" format="2">
  <advance width="645"/>
  <unicode hex="212B"/>
  <outline>
    <contour>
      <point x="109" y="0" type="line"/>
      <point x="18" y="0" type="line"/>
      <point x="276" y="707" type="line"/>
      <point x="369" y="707" type="line"/>
      <point x="628" y="0" type="line"/>
      <point x="535" y="0" type="line"/>
      <point x="465" y="199" type="line"/>
      <point x="181" y="199" type="line"/>
    </contour>
    <contour>
      <point x="322" y="756" type="curve" smooth="yes"/>
      <point x="266" y="756"/>
      <point x="222" y="800"/>
      <point x="222" y="855" type="curve" smooth="yes"/>
      <point x="222" y="911"/>
      <point x="266" y="956"/>
      <point x="322" y="956" type="curve" smooth="yes"/>
      <point x="377" y="956"/>
      <point x="423" y="911"/>
      <point x="423" y="855" type="curve" smooth="yes"/>
      <point x="423" y="800"/>
      <point x="377" y="756"/>
    </contour>
    <contour>
      <point x="322" y="806" type="curve" smooth="yes"/>
      <point x="350" y="806"/>
      <point x="372" y="827"/>
      <point x="372" y="855" type="curve" smooth="yes"/>
      <point x="372" y="882"/>
      <point x="351" y="905"/>
      <point x="322" y="905" type="curve" smooth="yes"/>
      <point x="294" y="905"/>
      <point x="272" y="882"/>
      <point x="272" y="855" type="curve" smooth="yes"/>
      <point x="272" y="827"/>
      <point x="294" y="806"/>
    </contour>
    <contour>
      <point x="207" y="276" type="line"/>
      <point x="438" y="276" type="line"/>
      <point x="325" y="593" type="line"/>
      <point x="319" y="593" type="line"/>
    </contour>
  </outline>
</glyph>
<glyph name="oneeighth" format="2">
  <advance width="891"/>
  <unicode hex="215B"/>
  <outline>
    <contour>
      <point x="124" y="0" type="line"/>
      <point x="610" y="707" type="line"/>
      <point x="689" y="707" type="line"/>
      <point x="203" y="0" type="line"/>
    </contour>
    <contour>
      <point x="121" y="331" type="line"/>
      <point x="121" y="631" type="line"/>
      <point x="118" y="631" type="line"/>
      <point x="25" y="569" type="line"/>
      <point x="25" y="644" type="line"/>
      <point x="121" y="707" type="line"/>
      <point x="194" y="707" type="line"/>
      <point x="194" y="331" type="line"/>
    </contour>
    <contour>
      <point x="709" y="-6" type="curve" smooth="yes"/>
      <point x="618" y="-6"/>
      <point x="551" y="41"/>
      <point x="551" y="101" type="curve" smooth="yes"/>
      <point x="551" y="146"/>
      <point x="591" y="185"/>
      <point x="645" y="193" type="curve"/>
      <point x="645" y="196" type="line"/>
      <point x="595" y="206"/>
      <point x="565" y="243"/>
      <point x="565" y="282" type="curve" smooth="yes"/>
      <point x="565" y="339"/>
      <point x="628" y="381"/>
      <point x="709" y="381" type="curve" smooth="yes"/>
      <point x="790" y="381"/>
      <point x="853" y="339"/>
      <point x="853" y="282" type="curve" smooth="yes"/>
      <point x="853" y="243"/>
      <point x="823" y="206"/>
      <point x="773" y="196" type="curve"/>
      <point x="773" y="193" type="line"/>
      <point x="830" y="183"/>
      <point x="867" y="144"/>
      <point x="867" y="101" type="curve" smooth="yes"/>
      <point x="867" y="41"/>
      <point x="800" y="-6"/>
    </contour>
    <contour>
      <point x="709" y="46" type="curve" smooth="yes"/>
      <point x="756" y="46"/>
      <point x="790" y="74"/>
      <point x="790" y="106" type="curve" smooth="yes"/>
      <point x="790" y="139"/>
      <point x="755" y="166"/>
      <point x="709" y="166" type="curve" smooth="yes"/>
      <point x="664" y="166"/>
      <point x="627" y="140"/>
      <point x="627" y="106" type="curve" smooth="yes"/>
      <point x="627" y="74"/>
      <point x="662" y="46"/>
    </contour>
    <contour>
      <point x="709" y="218" type="curve" smooth="yes"/>
      <point x="749" y="218"/>
      <point x="780" y="243"/>
      <point x="780" y="273" type="curve" smooth="yes"/>
      <point x="780" y="302"/>
      <point x="749" y="328"/>
      <point x="709" y="328" type="curve" smooth="yes"/>
      <point x="669" y="328"/>
      <point x="639" y="302"/>
      <point x="639" y="273" type="curve" smooth="yes"/>
      <point x="639" y="243"/>
      <point x="669" y="218"/>
    </contour>
  </outline>
</glyph>
<glyph name="threeeighths" format="2">
  <advance width="956"/>
  <unicode hex="215C"/>
  <outline>
    <contour>
      <point x="188" y="0" type="line"/>
      <point x="675" y="707" type="line"/>
      <point x="754" y="707" type="line"/>
      <point x="268" y="0" type="line"/>
    </contour>
    <contour>
      <point x="182" y="325" type="curve" smooth="yes"/>
      <point x="93" y="325"/>
      <point x="28" y="374"/>
      <point x="28" y="440" type="curve"/>
      <point x="103" y="440" type="line"/>
      <point x="103" y="409"/>
      <point x="137" y="386"/>
      <point x="182" y="386" type="curve" smooth="yes"/>
      <point x="228" y="386"/>
      <point x="261" y="410"/>
      <point x="261" y="441" type="curve" smooth="yes"/>
      <point x="261" y="474"/>
      <point x="225" y="496"/>
      <point x="172" y="496" type="curve" smooth="yes"/>
      <point x="142" y="496" type="line"/>
      <point x="142" y="549" type="line"/>
      <point x="172" y="549" type="line" smooth="yes"/>
      <point x="218" y="549"/>
      <point x="252" y="571"/>
      <point x="252" y="602" type="curve" smooth="yes"/>
      <point x="252" y="632"/>
      <point x="223" y="655"/>
      <point x="182" y="655" type="curve" smooth="yes"/>
      <point x="141" y="655"/>
      <point x="107" y="632"/>
      <point x="107" y="601" type="curve"/>
      <point x="36" y="601" type="line"/>
      <point x="38" y="665"/>
      <point x="99" y="712"/>
      <point x="182" y="712" type="curve" smooth="yes"/>
      <point x="266" y="712"/>
      <point x="323" y="668"/>
      <point x="323" y="607" type="curve" smooth="yes"/>
      <point x="323" y="564"/>
      <point x="290" y="534"/>
      <point x="240" y="527" type="curve"/>
      <point x="240" y="524" type="line"/>
      <point x="302" y="516"/>
      <point x="337" y="482"/>
      <point x="337" y="436" type="curve" smooth="yes"/>
      <point x="337" y="373"/>
      <point x="274" y="325"/>
    </contour>
    <contour>
      <point x="773" y="-6" type="curve" smooth="yes"/>
      <point x="682" y="-6"/>
      <point x="615" y="41"/>
      <point x="615" y="101" type="curve" smooth="yes"/>
      <point x="615" y="146"/>
      <point x="655" y="185"/>
      <point x="709" y="193" type="curve"/>
      <point x="709" y="196" type="line"/>
      <point x="659" y="206"/>
      <point x="630" y="243"/>
      <point x="630" y="282" type="curve" smooth="yes"/>
      <point x="630" y="339"/>
      <point x="692" y="381"/>
      <point x="773" y="381" type="curve" smooth="yes"/>
      <point x="854" y="381"/>
      <point x="917" y="339"/>
      <point x="917" y="282" type="curve" smooth="yes"/>
      <point x="917" y="243"/>
      <point x="888" y="206"/>
      <point x="838" y="196" type="curve"/>
      <point x="838" y="193" type="line"/>
      <point x="895" y="183"/>
      <point x="932" y="144"/>
      <point x="932" y="101" type="curve" smooth="yes"/>
      <point x="932" y="41"/>
      <point x="864" y="-6"/>
    </contour>
    <contour>
      <point x="773" y="46" type="curve" smooth="yes"/>
      <point x="820" y="46"/>
      <point x="854" y="74"/>
      <point x="854" y="106" type="curve" smooth="yes"/>
      <point x="854" y="139"/>
      <point x="819" y="166"/>
      <point x="773" y="166" type="curve" smooth="yes"/>
      <point x="728" y="166"/>
      <point x="691" y="140"/>
      <point x="691" y="106" type="curve" smooth="yes"/>
      <point x="691" y="74"/>
      <point x="726" y="46"/>
    </contour>
    <contour>
      <point x="773" y="218" type="curve" smooth="yes"/>
      <point x="813" y="218"/>
      <point x="845" y="243"/>
      <point x="845" y="273" type="curve" smooth="yes"/>
      <point x="845" y="302"/>
      <point x="813" y="328"/>
      <point x="773" y="328" type="curve" smooth="yes"/>
      <point x="733" y="328"/>
      <point x="703" y="302"/>
      <point x="703" y="273" type="curve" smooth="yes"/>
      <point x="703" y="243"/>
      <point x="733" y="218"/>
    </contour>
  </outline>
</glyph>
